<?xml version="1.0" standalone="no"?>
<!DOCTYPE svg PUBLIC "-//W3C//DTD SVG 20010904//EN"
 "http://www.w3.org/TR/2001/REC-SVG-20010904/DTD/svg10.dtd">
<svg version="1.0" xmlns="http://www.w3.org/2000/svg"
 width="626.000000pt" height="443.000000pt" viewBox="0 0 626.000000 443.000000"
 preserveAspectRatio="xMidYMid meet">

<g transform="translate(0.000000,443.000000) scale(0.100000,-0.100000)"
fill="#000000" stroke="none">
<path d="M4442 3909 c-113 -22 -165 -130 -107 -224 14 -22 25 -34 25 -27 0 7
11 17 25 24 13 6 22 15 19 19 -3 5 -14 5 -24 -1 -27 -15 -30 -13 -30 19 0 54
5 57 84 55 79 -2 109 -13 143 -53 l22 -26 1 33 c0 36 22 44 40 15 9 -14 10
-10 5 22 -19 113 -93 166 -203 144z"/>
<path d="M4465 3729 c-12 -18 -1 -19 45 -4 l45 14 -42 0 c-23 1 -45 -4 -48
-10z"/>
<path d="M4495 3690 c3 -5 8 -10 11 -10 2 0 4 5 4 10 0 6 -5 10 -11 10 -5 0
-7 -4 -4 -10z"/>
<path d="M4390 3661 c0 -6 5 -13 10 -16 6 -3 10 1 10 9 0 9 -4 16 -10 16 -5 0
-10 -4 -10 -9z"/>
<path d="M4632 3650 c0 -14 2 -19 5 -12 2 6 2 18 0 25 -3 6 -5 1 -5 -13z"/>
<path d="M1970 3426 c-19 -8 -55 -20 -79 -26 -120 -31 -166 -191 -92 -315 10
-16 35 -57 55 -89 l36 -60 -22 -24 c-26 -27 -36 -18 94 -89 69 -37 76 -39 68
-19 -4 12 -4 44 2 73 l10 52 63 -6 c62 -6 63 -5 78 24 24 45 36 129 25 175
-10 47 -3 115 19 175 10 28 13 57 9 85 l-6 43 -48 1 c-26 1 -76 4 -112 8 -47
4 -75 2 -100 -8z"/>
<path d="M4186 3329 c-35 -28 -36 -80 -1 -114 31 -32 39 -31 84 4 20 15 46 31
59 35 12 4 22 11 22 14 0 19 -36 55 -66 68 -46 19 -67 18 -98 -7z"/>
<path d="M4276 3194 c-17 -12 -17 -14 -4 -14 9 0 20 5 23 11 11 17 2 18 -19 3z"/>
<path d="M752 2902 c5 -16 -1 -17 -56 -14 -34 2 -80 -1 -104 -7 l-42 -12 31
-33 c24 -27 39 -34 80 -38 45 -5 56 -11 93 -52 36 -39 49 -46 79 -46 36 0 37
1 37 39 0 31 -4 41 -20 46 -11 3 -20 11 -20 17 0 12 -70 118 -78 118 -2 0 -2
-8 0 -18z"/>
<path d="M4920 2683 c-74 -19 -164 -43 -200 -52 l-65 -18 150 -11 c83 -7 190
-15 239 -18 l89 -7 -6 39 c-4 21 -11 40 -17 42 -5 2 -8 8 -5 12 8 14 -18 50
-35 50 -8 -1 -76 -17 -150 -37z m115 -63 c3 -5 17 -10 30 -10 13 0 27 5 30 10
7 12 25 13 25 2 0 -14 -63 -33 -74 -22 -6 6 -21 10 -35 10 -21 0 -23 2 -11 10
19 12 27 12 35 0z"/>
<path d="M2667 2664 c-4 -4 -7 -67 -7 -141 0 -135 3 -146 38 -125 9 7 12 41
10 138 -3 107 -6 129 -18 132 -9 1 -19 0 -23 -4z"/>
<path d="M3913 2594 c-278 -47 -290 -42 164 -75 l302 -23 188 39 c103 21 194
41 201 45 7 3 -63 12 -155 19 -92 7 -234 18 -315 25 l-146 11 -239 -41z"/>
<path d="M4620 2536 l-195 -43 100 -7 c55 -4 115 -10 133 -13 l32 -5 0 -125 0
-126 -52 6 c-39 3 -92 -4 -198 -28 -150 -35 -1120 -253 -1552 -349 l-248 -55
-447 89 -448 90 -44 -21 c-56 -26 -106 -22 -187 16 -32 15 -70 28 -84 30 -23
3 -23 2 -5 -11 10 -8 13 -14 7 -14 -7 0 -12 -4 -12 -8 0 -5 16 -9 35 -10 19
-1 44 -6 55 -12 11 -6 25 -8 30 -5 6 3 10 1 10 -5 0 -7 7 -9 16 -6 12 5 15 2
10 -10 -3 -8 1 -22 9 -30 11 -11 15 -12 15 -3 0 10 3 10 12 1 17 -17 25 -15
31 8 3 11 1 18 -3 15 -5 -3 -11 -1 -15 5 -4 6 8 10 30 10 33 0 36 -2 31 -22
-3 -13 -4 -18 -1 -12 4 7 125 -14 355 -60 286 -57 350 -73 350 -86 0 -16 -55
-33 -507 -164 -44 -12 -74 -27 -76 -36 -2 -8 -11 8 -20 35 -8 28 -16 42 -16
33 -1 -10 -5 -18 -10 -18 -5 0 -7 10 -5 23 l5 22 -10 -22 c-6 -13 -15 -23 -21
-23 -5 0 -10 -7 -10 -15 0 -22 -115 -22 -124 0 -7 20 -46 20 -46 0 0 -8 -4
-15 -9 -15 -4 0 -6 11 -3 25 3 16 0 25 -8 25 -7 0 -10 -7 -6 -17 12 -33 -114
111 -134 153 -11 23 -26 44 -35 48 -8 3 -15 12 -15 21 0 25 -17 17 -32 -15 -7
-17 -21 -30 -30 -30 -20 0 -23 11 -7 27 6 6 9 23 7 39 -3 28 -5 29 -60 29 -32
0 -58 2 -58 6 0 3 -7 6 -15 6 -11 0 -15 -12 -15 -44 0 -30 -4 -42 -11 -37 -8
4 -9 -1 -4 -17 4 -13 7 -26 7 -29 1 -27 -4 -40 -11 -36 -5 3 -11 -6 -14 -20
-3 -19 -1 -24 10 -20 8 3 17 6 19 6 2 0 4 6 4 14 0 10 16 15 56 18 31 1 61 0
66 -3 11 -7 -7 -49 -21 -49 -5 0 -11 -10 -15 -22 -3 -13 -26 -46 -51 -75 -25
-28 -45 -58 -45 -66 0 -8 14 -29 32 -46 34 -33 33 -50 -3 -31 -25 14 -84 8
-163 -15 -28 -8 -94 -26 -146 -40 -153 -41 -171 -46 -253 -73 l-79 -25 5 -46
c9 -91 20 -108 58 -92 13 5 58 20 99 31 41 12 85 26 98 31 13 5 32 9 43 9 10
0 27 4 37 9 9 5 94 31 188 57 l171 47 49 100 c27 55 72 139 101 185 49 82 52
84 59 57 4 -15 5 -198 2 -406 -6 -409 -8 -389 47 -389 57 0 55 -9 55 260 0
137 3 251 8 253 4 2 18 7 32 10 21 5 29 0 48 -28 29 -45 28 -71 -7 -169 -42
-119 -51 -149 -53 -187 -1 -22 -4 -13 -8 26 -6 55 -7 51 -8 -40 -1 -55 -7
-155 -14 -222 -6 -67 -9 -125 -5 -129 14 -15 103 -16 137 -2 29 13 35 21 38
49 4 55 -5 78 -28 72 -12 -3 -29 2 -40 12 -20 18 -27 45 -12 45 5 0 9 14 9 30
0 18 -6 30 -14 30 -10 0 -13 17 -11 68 1 56 2 59 5 20 2 -27 8 -48 14 -48 13
0 11 94 -3 108 -9 9 -9 12 0 12 8 0 9 6 1 23 -7 16 -6 33 5 62 13 35 15 37 15
13 1 -40 11 -58 32 -58 16 0 19 8 19 58 0 36 6 66 16 80 16 23 60 30 66 10 3
-9 6 -9 12 0 4 7 2 12 -3 12 -6 0 -11 14 -11 30 0 28 -3 30 -35 30 -24 0 -35
5 -35 14 0 8 -2 20 -3 28 -2 7 -2 10 0 6 3 -5 20 -8 39 -8 l34 0 1 93 c1 53 4
82 8 67 4 -16 14 -25 26 -25 16 0 20 7 18 30 -2 28 -2 29 7 7 6 -13 8 -27 5
-32 -4 -6 487 142 548 165 16 7 17 -8 17 -229 0 -159 3 -236 11 -236 5 0 8 -3
6 -7 -3 -5 15 -9 40 -10 30 0 41 2 32 8 -10 6 -10 9 -1 9 9 0 12 63 12 283 l0
284 63 -14 c61 -13 147 -10 192 7 12 4 33 10 48 12 l27 3 6 -157 c5 -140 4
-158 -10 -158 -14 0 -16 -45 -14 -452 l3 -453 5 450 5 450 3 -455 2 -455 30
-2 30 -2 4 517 c2 284 5 527 7 540 3 13 11 22 21 22 15 0 18 13 20 92 l3 93
35 6 c19 4 54 11 78 17 l42 10 0 -208 c0 -184 2 -209 18 -223 15 -13 21 -14
49 -2 l33 14 2 203 3 203 90 27 c50 14 151 45 225 68 159 48 250 70 291 70
l29 0 0 -252 c0 -139 3 -262 6 -273 4 -17 -3 -23 -42 -35 -27 -8 -49 -20 -51
-26 -2 -6 26 -23 63 -39 73 -31 83 -44 64 -83 -52 -110 -54 -111 -137 -86 -88
26 -114 69 -76 124 l17 24 -27 -20 c-18 -13 -27 -27 -26 -44 3 -43 -21 -90
-44 -91 -21 0 -21 -1 -2 -9 11 -5 14 -9 7 -9 -18 -1 -4 -21 14 -21 9 0 12 5 8
12 -5 8 -2 9 10 5 10 -4 21 -7 24 -7 4 -1 -6 -7 -23 -14 -20 -9 -34 -10 -42
-4 -13 11 -43 -11 -43 -32 0 -6 -4 -8 -10 -5 -5 3 -10 -3 -10 -14 0 -12 -6
-21 -12 -22 -7 0 -3 -4 10 -9 12 -5 22 -16 22 -25 0 -8 5 -15 11 -15 7 0 0
-10 -15 -21 l-27 -22 28 -18 c15 -10 38 -19 51 -19 24 0 32 -34 10 -44 -10 -5
-10 -7 0 -12 6 -3 12 -9 12 -13 0 -10 -49 -1 -55 10 -3 4 -22 5 -42 2 -31 -5
-35 -4 -30 10 4 10 -1 18 -14 22 -10 4 -19 11 -19 16 0 5 -7 9 -15 9 -18 0
-20 -16 -2 -23 8 -4 9 -8 1 -14 -14 -11 -27 -46 -13 -38 6 4 10 1 8 -6 -3 -28
2 -39 24 -50 21 -11 21 -11 -3 17 l-25 28 29 -22 c16 -12 35 -22 43 -22 8 0
11 -5 7 -12 -4 -6 -3 -8 3 -5 5 3 27 1 49 -5 34 -9 36 -12 19 -19 -15 -7 -11
-8 15 -4 19 2 61 -1 92 -9 48 -11 61 -11 75 0 25 19 70 17 81 -2 8 -14 19 -16
58 -11 59 8 181 40 191 51 9 10 -69 2 -148 -15 -50 -11 -61 -10 -96 7 l-41 19
20 28 c18 25 47 40 32 16 -4 -7 0 -9 12 -6 67 20 73 20 80 -7 8 -33 34 -34 34
-2 0 14 -4 28 -10 31 -5 3 -11 16 -11 28 -1 17 -2 18 -6 5 -2 -10 -8 -18 -13
-18 -5 0 -7 7 -5 15 16 50 17 50 36 2 37 -92 71 -98 62 -11 -3 30 -2 54 3 54
15 0 17 253 2 291 -8 20 -11 54 -8 84 l5 50 22 -28 c46 -59 54 -178 23 -326
-27 -126 -26 -147 8 -180 15 -16 26 -33 24 -40 -2 -6 7 -11 20 -11 32 0 129
29 147 44 12 8 13 8 7 -1 -5 -9 -2 -11 9 -7 9 4 14 11 12 18 -2 6 2 16 9 23
16 16 28 17 18 1 -4 -6 -3 -8 4 -5 5 4 8 16 5 27 -3 11 0 20 6 20 6 0 11 16
11 35 0 19 4 35 8 35 5 0 14 18 21 39 11 37 13 39 46 36 l35 -3 0 460 c0 396
2 459 14 455 8 -3 17 -1 20 6 2 7 5 1 6 -13 2 -23 3 -23 9 5 l6 30 88 3 c48 1
87 6 87 11 0 4 -8 15 -18 24 -14 12 -37 17 -88 17 -67 0 -69 -1 -82 -30 -8
-17 -17 -28 -22 -25 -5 3 -11 -1 -13 -7 -3 -7 -6 -1 -6 13 -1 18 6 29 24 37
21 10 24 18 27 73 l3 63 84 18 c84 18 84 18 99 -3 17 -25 35 -20 42 12 5 22
21 27 255 79 138 31 262 59 278 63 l27 7 0 -150 0 -150 -26 0 c-21 0 -25 -4
-22 -22 2 -14 11 -24 23 -26 18 -2 20 -9 17 -74 -3 -60 -1 -74 14 -85 39 -28
47 -18 40 52 -5 55 -4 65 9 65 8 0 15 7 15 15 0 8 -5 15 -11 15 -5 0 -7 -4 -4
-10 3 -5 1 -10 -4 -10 -6 0 -11 7 -11 16 0 10 8 15 23 14 12 -1 219 -2 460 -1
l437 1 0 25 0 25 -435 0 -435 0 0 160 c0 157 0 160 23 165 115 26 427 95 431
95 3 0 6 18 6 41 0 40 -1 41 -27 34 -16 -4 -257 -58 -538 -121 -280 -63 -518
-117 -527 -120 -10 -3 -18 -1 -18 4 0 5 44 19 98 31 53 12 284 64 512 115 481
108 485 93 -30 131 -527 39 -477 40 -700 -9z m758 -388 c-3 -117 -5 -133 -20
-136 -16 -3 -18 8 -18 126 0 71 3 132 7 135 3 4 12 7 20 7 11 0 13 -26 11
-132z m-968 -88 l0 -50 -165 0 c-217 0 -219 13 -7 61 86 20 160 37 165 38 4 0
7 -21 7 -49z m976 -84 c2 -13 -1 -15 -8 -8 -6 6 -16 8 -23 6 -6 -3 -12 2 -12
11 0 23 40 15 43 -9z m-1396 -161 c0 -95 4 -145 11 -145 5 0 7 -5 3 -11 -4 -7
0 -9 12 -6 11 4 31 9 45 12 l25 6 -4 145 -5 144 167 0 166 0 -1 -467 c-1 -258
-5 -457 -9 -443 -4 14 -8 19 -9 11 -1 -8 -4 -11 -8 -7 -12 12 -32 80 -26 89 3
6 1 7 -5 3 -6 -4 -25 23 -46 66 -20 40 -36 67 -36 61 0 -21 -14 -14 -27 12 -8
19 -8 24 0 19 7 -3 4 1 -5 9 -10 8 -15 17 -11 20 3 4 1 7 -6 7 -7 0 -9 4 -6
10 7 11 -19 65 -32 65 -4 0 -7 9 -5 20 1 15 0 16 -7 6 -11 -17 -25 3 -15 22 4
6 3 9 -1 4 -5 -4 -16 3 -24 15 -9 13 -22 23 -28 24 -55 4 -58 6 -28 15 29 8
29 8 -6 6 -29 -2 -35 1 -31 12 3 9 1 12 -5 8 -6 -4 -13 -2 -15 5 -3 7 -14 9
-33 4 -22 -6 -26 -9 -15 -16 18 -11 10 -19 -23 -22 -14 -1 -25 -5 -25 -8 3
-14 -16 -40 -29 -40 -13 0 -14 29 -11 201 1 110 6 206 10 212 5 8 11 7 21 -1
18 -15 27 2 27 49 0 24 4 29 25 29 l25 0 0 -145z m-2390 85 c0 -5 -2 -10 -4
-10 -3 0 -8 5 -11 10 -3 6 -1 10 4 10 6 0 11 -4 11 -10z m-419 -60 c9 13 10
13 6 0 -2 -8 -10 -15 -17 -15 -7 0 -15 7 -17 15 -4 13 -3 13 6 0 10 -13 12
-13 22 0z m572 -290 c3 -11 1 -18 -4 -14 -5 3 -9 12 -9 20 0 20 7 17 13 -6z
m2235 -142 c3 -48 2 -51 -15 -38 -29 22 -29 24 -8 17 17 -6 18 -5 4 5 -28 23
-31 48 -6 58 12 5 22 9 22 9 0 1 1 -22 3 -51z m216 -34 c3 -8 2 -12 -4 -9 -6
3 -10 10 -10 16 0 14 7 11 14 -7z m-2507 -91 c19 -15 10 -65 -11 -57 -9 4 -16
-10 -23 -48 l-10 -53 -12 30 c-7 16 -9 41 -6 55 10 44 40 110 44 97 2 -6 10
-17 18 -24z m2600 -95 c-3 -8 -6 -5 -6 6 -1 11 2 17 5 13 3 -3 4 -12 1 -19z
m-561 -98 c37 -16 67 -50 44 -50 -6 0 -10 7 -10 15 0 8 -4 15 -10 15 -5 0 -10
-4 -10 -8 0 -5 -7 -9 -16 -9 -14 0 -14 2 2 14 16 12 16 13 -10 13 -19 0 -25
-4 -20 -12 5 -9 3 -9 -9 1 -9 7 -14 17 -11 22 3 5 -4 9 -15 9 -12 0 -21 5 -21
11 0 11 21 6 86 -21z m4 -54 c0 -1 -13 -17 -30 -34 -17 -18 -30 -26 -30 -18 0
8 7 16 15 20 8 3 15 12 15 21 0 8 7 15 15 15 8 0 15 -2 15 -4z m-95 -146 c-9
-16 -18 -30 -21 -30 -2 0 2 14 11 30 9 17 18 30 21 30 2 0 -2 -13 -11 -30z
m-2066 -107 c-5 -25 -8 -59 -6 -75 1 -18 -3 -33 -10 -35 -16 -6 -17 18 -1 136
11 81 14 90 19 57 3 -21 2 -58 -2 -83z m1966 47 c3 -5 17 -10 31 -10 13 0 24
-5 24 -11 0 -6 -9 -8 -22 -3 -29 9 -66 34 -51 34 7 0 15 -4 18 -10z m-1938
-117 c-3 -10 -5 -2 -5 17 0 19 2 27 5 18 2 -10 2 -26 0 -35z m70 -15 c-3 -8
-6 -5 -6 6 -1 11 2 17 5 13 3 -3 4 -12 1 -19z m-23 -17 c3 -5 -7 -11 -22 -14
-31 -6 -37 -3 -27 12 8 13 42 14 49 2z m23 -27 c-3 -3 -12 -4 -19 -1 -8 3 -5
6 6 6 11 1 17 -2 13 -5z"/>
<path d="M3944 1620 c0 -52 1 -74 3 -47 2 26 2 68 0 95 -2 26 -3 4 -3 -48z"/>
<path d="M4370 1105 c0 -2 7 -8 15 -15 12 -10 15 -10 15 2 0 8 -7 15 -15 15
-8 0 -15 -1 -15 -2z"/>
<path d="M3960 1430 c0 -5 5 -10 11 -10 5 0 7 5 4 10 -3 6 -8 10 -11 10 -2 0
-4 -4 -4 -10z"/>
<path d="M2897 2404 c-19 -10 -39 -13 -58 -9 -19 4 -137 -11 -310 -41 l-279
-48 0 -49 0 -49 168 3 167 4 3 -57 3 -57 -38 -10 c-21 -5 -65 -17 -98 -25 -33
-8 -87 -25 -120 -36 -44 -15 -82 -20 -145 -19 -83 1 -325 -41 -304 -53 5 -3
176 -38 381 -79 l372 -73 408 91 c224 50 645 145 936 210 290 65 527 121 527
124 0 3 -42 9 -92 13 -51 4 -216 19 -365 34 -150 15 -273 24 -273 20 0 -5 -9
-8 -20 -8 -11 0 -20 4 -20 9 0 5 -33 12 -72 16 -65 5 -104 0 -338 -49 -145
-31 -271 -56 -280 -55 -24 1 68 23 295 70 l210 44 -105 11 c-58 6 -170 17
-250 24 -112 11 -151 18 -171 33 -36 26 -97 31 -132 11z m-58 -199 c11 -19 18
-35 15 -35 -4 0 -45 24 -63 37 -4 2 19 33 24 33 2 0 12 -16 24 -35z"/>
<path d="M1956 2256 c-66 -13 -74 -21 -151 -161 -65 -118 -64 -112 -11 -120
57 -9 330 43 317 60 -13 15 -38 102 -52 173 -13 69 -8 66 -103 48z"/>
<path d="M1183 2123 c-18 -2 -33 -8 -33 -13 0 -10 108 -25 117 -16 3 3 12 1
20 -5 10 -9 10 -15 2 -25 -9 -11 -8 -14 1 -14 9 0 10 -3 1 -14 -9 -11 -8 -15
5 -20 10 -4 20 -2 24 4 4 6 15 8 26 5 10 -4 3 3 -16 14 -40 23 -37 26 9 10 17
-6 31 -17 31 -24 0 -19 15 -26 35 -19 12 5 1 15 -42 41 -32 19 -69 46 -84 59
-25 24 -32 25 -96 17z m137 -87 c0 -3 -4 -8 -10 -11 -5 -3 -10 -1 -10 4 0 6 5
11 10 11 6 0 10 -2 10 -4z"/>
<path d="M1060 2072 c0 -31 5 -41 23 -50 16 -8 -126 -11 -530 -11 l-553 -1 0
-25 0 -25 586 0 c387 0 583 3 579 10 -3 6 0 10 7 10 9 0 9 3 -2 10 -13 8 -12
10 3 10 9 0 17 6 17 13 0 8 10 22 22 33 22 19 23 19 8 -1 -13 -19 -13 -19 6
-2 25 23 13 31 -70 47 -34 6 -69 13 -78 16 -15 4 -18 -1 -18 -34z"/>
<path d="M4882 1985 c11 -24 14 -25 115 -25 56 0 103 4 103 9 0 37 -11 41
-121 41 l-109 0 12 -25z"/>
<path d="M1151 1934 c0 -11 3 -14 6 -6 3 7 2 16 -1 19 -3 4 -6 -2 -5 -13z"/>
<path d="M5383 1905 c0 -22 2 -30 4 -17 2 12 2 30 0 40 -3 9 -5 -1 -4 -23z"/>
<path d="M1690 1861 c0 -7 -5 -9 -12 -5 -8 5 -9 2 -5 -11 4 -9 3 -23 -3 -30
-11 -13 -3 -93 11 -116 6 -11 11 -11 21 -1 8 8 8 12 1 12 -17 0 -22 60 -6 75
7 8 12 24 12 37 -1 17 -3 18 -6 6 -2 -10 -9 -18 -13 -18 -6 0 -5 11 1 26 5 15
7 29 4 32 -3 3 -5 0 -5 -7z"/>
<path d="M4504 1745 c0 -66 1 -92 3 -57 2 34 2 88 0 120 -2 31 -3 3 -3 -63z"/>
<path d="M4482 1820 c0 -19 2 -27 5 -17 2 9 2 25 0 35 -3 9 -5 1 -5 -18z"/>
<path d="M1714 1754 c-4 -14 -2 -35 4 -47 8 -18 10 -14 10 26 0 52 -4 60 -14
21z"/>
<path d="M5285 1770 c-13 -6 -15 -9 -5 -9 8 0 22 4 30 9 18 12 2 12 -25 0z"/>
<path d="M5320 1760 c-13 -9 -13 -10 0 -10 12 -1 11 -3 -3 -11 -9 -5 -22 -7
-27 -4 -6 3 -7 -1 -4 -10 4 -9 3 -15 -2 -14 -5 1 -29 1 -52 0 -35 -1 -45 -5
-49 -21 -3 -10 -13 -22 -23 -25 -13 -4 -16 -12 -12 -33 l6 -27 7 25 c5 19 7
14 8 -23 l1 -49 58 4 57 3 3 -138 c2 -86 6 -136 12 -132 6 3 10 2 10 -3 0 -16
28 -22 52 -12 21 8 21 9 3 9 -19 1 -20 8 -21 223 -1 187 -3 259 -8 258 -1 0
-8 -5 -16 -10z m-20 -70 c0 -5 -18 -10 -40 -10 -22 0 -40 5 -40 10 0 6 18 10
40 10 22 0 40 -4 40 -10z m0 -30 c0 -5 -18 -10 -40 -10 -22 0 -40 5 -40 10 0
6 18 10 40 10 22 0 40 -4 40 -10z"/>
<path d="M4984 1743 c-10 -16 -16 -17 -58 -5 -53 14 -66 10 -66 -19 0 -14 7
-19 28 -19 34 0 109 22 112 33 4 19 -6 25 -16 10z"/>
<path d="M5238 1753 c7 -3 16 -2 19 1 4 3 -2 6 -13 5 -11 0 -14 -3 -6 -6z"/>
<path d="M1425 1711 c-3 -6 0 -11 7 -11 7 -1 29 -21 48 -45 22 -29 38 -41 44
-35 6 6 25 10 43 10 32 0 33 1 33 40 l0 40 -69 0 c-38 0 -76 3 -84 6 -8 3 -18
1 -22 -5z"/>
<path d="M5088 1713 c6 -2 18 -2 25 0 6 3 1 5 -13 5 -14 0 -19 -2 -12 -5z"/>
<path d="M4479 1665 c-5 -50 -4 -63 7 -53 3 3 4 28 2 54 l-3 49 -6 -50z"/>
<path d="M5030 1680 c0 -6 -4 -8 -10 -5 -5 3 -10 1 -10 -4 0 -6 -8 -11 -17
-11 -15 0 -16 2 -3 10 42 27 -138 -14 -310 -70 l-25 -8 28 -1 c27 -1 37 -16
16 -23 -7 -2 -9 -13 -5 -26 6 -19 14 -22 64 -22 31 0 68 -3 82 -6 20 -4 22 -3
10 5 -13 10 -13 11 0 11 8 0 28 7 43 15 15 8 34 12 43 8 18 -7 94 25 95 41 1
6 0 21 -1 33 -2 26 29 46 51 32 7 -5 23 -8 34 -8 14 1 11 4 -10 10 -16 6 -34
11 -40 12 -5 2 -16 6 -22 10 -8 5 -13 3 -13 -3z m-142 -55 c-10 -10 -49 -14
-43 -4 4 5 16 9 27 9 12 0 19 -2 16 -5z m-88 -25 c-8 -5 -19 -10 -25 -10 -5 0
-3 5 5 10 8 5 20 10 25 10 6 0 3 -5 -5 -10z"/>
<path d="M1121 1638 c-1 -16 4 -28 9 -28 12 0 12 8 0 35 -8 18 -9 17 -9 -7z"/>
<path d="M1077 1623 c-4 -12 -5 -34 -1 -49 5 -19 4 -25 -5 -20 -7 5 -11 -1
-11 -16 0 -17 3 -19 9 -9 5 8 18 12 29 9 25 -7 35 13 23 44 -9 22 -9 22 -17
-7 -8 -28 -9 -27 -14 20 -4 39 -7 45 -13 28z"/>
<path d="M4520 1626 c0 -10 9 -16 25 -16 14 0 25 5 25 10 0 6 -4 10 -9 10 -5
0 -16 3 -25 6 -11 4 -16 1 -16 -10z"/>
<path d="M4501 1604 c0 -11 3 -14 6 -6 3 7 2 16 -1 19 -3 4 -6 -2 -5 -13z"/>
<path d="M4566 1574 c-27 -7 -52 -11 -56 -9 -4 3 -10 -6 -12 -20 -3 -14 -1
-25 3 -25 5 0 9 8 9 18 1 16 2 16 15 -1 8 -11 21 -17 32 -14 16 4 16 5 1 6
-36 2 -16 27 35 42 63 20 42 22 -27 3z"/>
<path d="M4640 1541 c0 -5 9 -7 20 -4 11 3 20 7 20 9 0 2 -9 4 -20 4 -11 0
-20 -4 -20 -9z"/>
<path d="M4588 1513 c7 -3 16 -2 19 1 4 3 -2 6 -13 5 -11 0 -14 -3 -6 -6z"/>
<path d="M4473 1445 c0 -38 2 -53 4 -32 2 20 2 52 0 70 -2 17 -4 1 -4 -38z"/>
<path d="M4522 1283 c0 -126 3 -237 8 -248 5 -12 9 82 9 228 1 145 -3 247 -8
247 -6 0 -9 -95 -9 -227z"/>
<path d="M2948 1415 c-12 -105 -10 -211 2 -199 7 7 10 61 8 140 -3 120 -3 124
-10 59z"/>
<path d="M5374 1467 c-3 -8 -3 -47 -1 -88 l3 -74 2 82 c1 54 6 83 15 86 9 4 9
6 -1 6 -7 1 -15 -5 -18 -12z"/>
<path d="M5413 1405 c0 -38 2 -53 4 -32 2 20 2 52 0 70 -2 17 -4 1 -4 -38z"/>
<path d="M1836 1433 c-4 -9 -2 -21 4 -27 7 -7 10 -2 10 17 0 31 -5 34 -14 10z"/>
<path d="M3758 1443 c7 -3 16 -2 19 1 4 3 -2 6 -13 5 -11 0 -14 -3 -6 -6z"/>
<path d="M3660 1428 c0 -16 20 -17 51 -3 l34 14 -42 -2 c-24 -1 -43 -5 -43 -9z"/>
<path d="M3625 1400 c3 -5 8 -10 11 -10 2 0 4 5 4 10 0 6 -5 10 -11 10 -5 0
-7 -4 -4 -10z"/>
<path d="M3520 1379 c0 -5 5 -7 10 -4 6 3 10 8 10 11 0 2 -4 4 -10 4 -5 0 -10
-5 -10 -11z"/>
<path d="M3415 1370 c3 -5 21 -10 38 -9 27 0 29 2 12 9 -28 12 -57 12 -50 0z"/>
<path d="M3705 1373 c-25 -6 -44 -23 -26 -23 7 0 9 -5 5 -12 -4 -7 -3 -8 5 -4
6 4 9 12 6 17 -4 5 1 9 9 9 8 0 18 5 21 10 3 6 5 9 3 9 -2 -1 -12 -3 -23 -6z"/>
<path d="M2518 1353 c7 -3 16 -2 19 1 4 3 -2 6 -13 5 -11 0 -14 -3 -6 -6z"/>
<path d="M3351 1344 c9 -9 25 -14 35 -12 14 3 10 7 -16 16 -32 12 -34 11 -19
-4z"/>
<path d="M1842 1325 c0 -16 2 -22 5 -12 2 9 2 23 0 30 -3 6 -5 -1 -5 -18z"/>
<path d="M3282 1328 c7 -19 35 -21 41 -3 5 11 0 15 -19 15 -16 0 -24 -5 -22
-12z"/>
<path d="M3641 1331 c-7 -5 -9 -11 -4 -14 5 -3 15 -2 22 2 7 5 9 11 4 14 -5 3
-15 2 -22 -2z"/>
<path d="M4474 1215 c0 -71 1 -99 3 -62 2 37 2 96 0 130 -2 34 -3 4 -3 -68z"/>
<path d="M3590 1310 c0 -5 9 -10 21 -10 11 0 17 5 14 10 -3 6 -13 10 -21 10
-8 0 -14 -4 -14 -10z"/>
<path d="M3193 1300 c16 -5 38 -5 50 -1 16 6 9 8 -28 9 -42 0 -46 -1 -22 -8z"/>
<path d="M3468 1303 c7 -3 16 -2 19 1 4 3 -2 6 -13 5 -11 0 -14 -3 -6 -6z"/>
<path d="M4032 1265 c-1 -28 2 -55 7 -60 5 -6 11 -21 14 -35 3 -16 5 -10 6 18
0 23 -3 42 -8 42 -6 0 -12 19 -14 43 -3 42 -4 42 -5 -8z"/>
<path d="M5535 1300 c-3 -6 1 -7 9 -4 18 7 21 14 7 14 -6 0 -13 -4 -16 -10z"/>
<path d="M3130 1291 c0 -15 16 -22 35 -15 13 5 14 8 3 15 -18 12 -38 11 -38 0z"/>
<path d="M3408 1293 c-10 -2 -18 -8 -18 -13 0 -5 6 -7 14 -4 8 3 17 1 21 -5 8
-14 25 -14 25 0 0 5 -4 8 -9 4 -5 -3 -12 -1 -15 4 -4 5 2 12 11 14 12 3 13 5
3 5 -8 0 -23 -2 -32 -5z"/>
<path d="M3038 1273 c7 -3 16 -2 19 1 4 3 -2 6 -13 5 -11 0 -14 -3 -6 -6z"/>
<path d="M3065 1260 c-3 -5 1 -10 9 -10 8 0 18 5 21 10 3 6 -1 10 -9 10 -8 0
-18 -4 -21 -10z"/>
<path d="M3568 1263 c7 -3 16 -2 19 1 4 3 -2 6 -13 5 -11 0 -14 -3 -6 -6z"/>
<path d="M3288 1253 c7 -3 16 -2 19 1 4 3 -2 6 -13 5 -11 0 -14 -3 -6 -6z"/>
<path d="M3518 1253 c7 -3 16 -2 19 1 4 3 -2 6 -13 5 -11 0 -14 -3 -6 -6z"/>
<path d="M3238 1243 c7 -3 16 -2 19 1 4 3 -2 6 -13 5 -11 0 -14 -3 -6 -6z"/>
<path d="M3572 1241 c-10 -6 -8 -10 9 -14 26 -7 34 -3 24 12 -7 13 -15 14 -33
2z"/>
<path d="M3018 1233 c7 -3 16 -2 19 1 4 3 -2 6 -13 5 -11 0 -14 -3 -6 -6z"/>
<path d="M3315 1230 c3 -5 21 -10 38 -9 31 1 31 1 7 9 -36 11 -52 11 -45 0z"/>
<path d="M3250 1219 c0 -5 5 -7 10 -4 6 3 10 8 10 11 0 2 -4 4 -10 4 -5 0 -10
-5 -10 -11z"/>
<path d="M3165 1194 l-40 -13 38 5 c23 3 37 1 37 -6 0 -6 5 -8 11 -4 8 5 8 9
-1 14 -9 6 -9 9 1 13 30 12 -8 5 -46 -9z"/>
<path d="M3290 1208 c15 -16 48 -26 60 -18 12 7 10 9 -5 8 -11 0 -29 3 -40 7
-11 5 -18 6 -15 3z"/>
<path d="M1770 1182 c0 -7 -7 -12 -15 -12 -8 0 -15 -4 -15 -10 0 -5 7 -10 15
-10 17 0 32 27 21 37 -3 4 -6 1 -6 -5z"/>
<path d="M3018 1183 c6 -2 18 -2 25 0 6 3 1 5 -13 5 -14 0 -19 -2 -12 -5z"/>
<path d="M1803 1145 c0 -22 2 -30 4 -17 2 12 2 30 0 40 -3 9 -5 -1 -4 -23z"/>
<path d="M3053 1155 c0 -12 3 -12 16 -3 9 7 18 14 20 15 2 2 -5 3 -16 3 -11 0
-20 -7 -20 -15z"/>
<path d="M3169 1154 c30 -8 56 -12 58 -10 6 6 -67 26 -92 25 -11 0 4 -7 34
-15z"/>
<path d="M1783 1110 c0 -25 2 -35 4 -22 2 12 2 32 0 45 -2 12 -4 2 -4 -23z"/>
<path d="M3100 1140 c-13 -8 -12 -10 3 -10 9 0 17 5 17 10 0 12 -1 12 -20 0z"/>
<path d="M1746 1108 c4 -13 7 -44 6 -70 -1 -26 3 -50 8 -53 12 -7 13 31 4 99
-4 25 -11 46 -16 46 -5 0 -6 -10 -2 -22z"/>
<path d="M485 1110 c9 -15 45 -32 45 -22 0 5 -12 14 -26 20 -14 7 -23 8 -19 2z"/>
<path d="M3000 1103 c0 -11 3 -14 8 -7 4 6 14 14 22 17 10 4 8 6 -7 6 -16 1
-23 -5 -23 -16z"/>
<path d="M2940 861 c0 -164 4 -252 10 -256 8 -5 10 71 8 244 -3 216 -1 251 12
255 8 2 5 4 -7 5 l-23 1 0 -249z"/>
<path d="M361 1084 c0 -11 3 -14 6 -6 3 7 2 16 -1 19 -3 4 -6 -2 -5 -13z"/>
<path d="M4491 1084 c0 -11 3 -14 6 -6 3 7 2 16 -1 19 -3 4 -6 -2 -5 -13z"/>
<path d="M2980 1080 c0 -5 5 -10 11 -10 5 0 7 5 4 10 -3 6 -8 10 -11 10 -2 0
-4 -4 -4 -10z"/>
<path d="M3480 1080 c0 -5 5 -10 11 -10 5 0 7 5 4 10 -3 6 -8 10 -11 10 -2 0
-4 -4 -4 -10z"/>
<path d="M480 1060 c14 -10 27 -17 29 -14 6 5 -31 33 -44 33 -5 1 1 -8 15 -19z"/>
<path d="M1801 1064 c0 -11 3 -14 6 -6 3 7 2 16 -1 19 -3 4 -6 -2 -5 -13z"/>
<path d="M4472 1050 c0 -14 2 -19 5 -12 2 6 2 18 0 25 -3 6 -5 1 -5 -13z"/>
<path d="M4052 1040 c0 -14 2 -19 5 -12 2 6 2 18 0 25 -3 6 -5 1 -5 -13z"/>
<path d="M4495 1050 c-3 -5 -1 -10 4 -10 6 0 11 5 11 10 0 6 -2 10 -4 10 -3 0
-8 -4 -11 -10z"/>
<path d="M1780 1013 c0 -24 2 -43 4 -43 8 0 12 60 4 72 -4 8 -8 -4 -8 -29z"/>
<path d="M3440 1040 c0 -5 5 -10 11 -10 5 0 7 5 4 10 -3 6 -8 10 -11 10 -2 0
-4 -4 -4 -10z"/>
<path d="M450 1036 c0 -3 9 -10 20 -16 11 -6 20 -8 20 -6 0 3 -9 10 -20 16
-11 6 -20 8 -20 6z"/>
<path d="M3474 1009 c-7 -12 12 -29 34 -29 15 0 16 12 0 28 -15 15 -25 15 -34
1z"/>
<path d="M4408 993 c7 -3 16 -2 19 1 4 3 -2 6 -13 5 -11 0 -14 -3 -6 -6z"/>
<path d="M3450 969 c0 -5 5 -7 10 -4 6 3 10 8 10 11 0 2 -4 4 -10 4 -5 0 -10
-5 -10 -11z"/>
<path d="M4387 973 c-11 -10 -8 -20 7 -26 10 -4 12 0 9 14 -6 21 -7 22 -16 12z"/>
<path d="M1763 930 c0 -25 2 -35 4 -22 2 12 2 32 0 45 -2 12 -4 2 -4 -23z"/>
<path d="M4571 959 c-14 -5 -31 -7 -38 -4 -8 2 -11 0 -8 -5 8 -13 24 -12 60 5
34 15 23 19 -14 4z"/>
<path d="M3430 934 c0 -8 5 -12 10 -9 6 4 8 11 5 16 -9 14 -15 11 -15 -7z"/>
<path d="M4478 933 c6 -2 18 -2 25 0 6 3 1 5 -13 5 -14 0 -19 -2 -12 -5z"/>
<path d="M1664 873 c2 -32 9 -71 15 -86 6 -16 11 -33 11 -38 0 -5 5 -9 11 -9
8 0 10 17 5 58 -3 31 -2 51 2 44 5 -6 9 -33 11 -59 1 -26 5 -50 7 -53 3 -3 5
15 4 40 -1 25 -1 63 1 85 l2 40 7 -45 c7 -44 7 -45 8 -8 3 50 -6 68 -33 68
-13 0 -27 5 -30 10 -16 25 -25 5 -21 -47z"/>
<path d="M3383 890 c0 -25 2 -35 4 -22 2 12 2 32 0 45 -2 12 -4 2 -4 -23z"/>
<path d="M4350 839 c0 -5 5 -7 10 -4 6 3 10 8 10 11 0 2 -4 4 -10 4 -5 0 -10
-5 -10 -11z"/>
<path d="M3890 796 c0 -2 7 -6 15 -10 8 -3 15 -1 15 4 0 6 -7 10 -15 10 -8 0
-15 -2 -15 -4z"/>
<path d="M3785 710 c4 -6 11 -8 16 -5 14 9 11 15 -7 15 -8 0 -12 -5 -9 -10z"/>
<path d="M1701 599 c-13 -10 -19 -19 -15 -19 13 1 48 29 43 34 -2 2 -15 -4
-28 -15z"/>
<path d="M1731 569 c-13 -10 -19 -19 -15 -19 13 1 48 29 43 34 -2 2 -15 -4
-28 -15z"/>
<path d="M1756 539 c-11 -10 -15 -19 -9 -19 5 0 18 9 28 20 23 26 6 25 -19 -1z"/>
<path d="M1466 513 c6 -52 14 -54 14 -5 0 23 -4 42 -10 42 -5 0 -7 -17 -4 -37z"/>
<path d="M1840 538 c0 -10 52 -10 67 0 7 5 -4 8 -27 7 -22 0 -40 -3 -40 -7z"/>
<path d="M2023 533 c9 -2 23 -2 30 0 6 3 -1 5 -18 5 -16 0 -22 -2 -12 -5z"/>
<path d="M1088 523 c12 -2 32 -2 45 0 12 2 2 4 -23 4 -25 0 -35 -2 -22 -4z"/>
<path d="M1467 444 c-24 -24 1 -29 156 -30 112 -2 147 0 112 6 -27 5 -96 9
-152 9 -62 1 -103 5 -105 12 -2 5 -7 7 -11 3z"/>
<path d="M1865 420 c-21 -9 -18 -10 43 -13 17 -1 32 1 32 6 0 4 -6 7 -14 7 -8
0 -20 2 -28 4 -7 3 -22 1 -33 -4z"/>
<path d="M2143 403 c9 -2 23 -2 30 0 6 3 -1 5 -18 5 -16 0 -22 -2 -12 -5z"/>
<path d="M1118 393 c28 -2 76 -2 105 0 28 2 5 3 -53 3 -58 0 -81 -1 -52 -3z"/>
<path d="M1583 383 c9 -2 23 -2 30 0 6 3 -1 5 -18 5 -16 0 -22 -2 -12 -5z"/>
<path d="M1788 383 c7 -3 16 -2 19 1 4 3 -2 6 -13 5 -11 0 -14 -3 -6 -6z"/>
<path d="M1853 383 c9 -2 25 -2 35 0 9 3 1 5 -18 5 -19 0 -27 -2 -17 -5z"/>
<path d="M1928 383 c12 -2 30 -2 40 0 9 3 -1 5 -23 4 -22 0 -30 -2 -17 -4z"/>
</g>
</svg>
