<?xml version="1.0" standalone="no"?>
<!DOCTYPE svg PUBLIC "-//W3C//DTD SVG 20010904//EN"
 "http://www.w3.org/TR/2001/REC-SVG-20010904/DTD/svg10.dtd">
<svg version="1.0" xmlns="http://www.w3.org/2000/svg"
 width="570.000000pt" height="440.000000pt" viewBox="0 0 570.000000 440.000000"
 preserveAspectRatio="xMidYMid meet">

<g transform="translate(0.000000,440.000000) scale(0.100000,-0.100000)"
fill="#000000" stroke="none">
<path d="M1098 3663 l432 -3 0 -480 0 -480 -432 -3 -433 -2 443 -3 442 -2 0
240 0 240 425 0 425 0 0 -990 0 -990 -425 0 -425 0 -1 223 c-1 122 -1 230 0
240 2 16 -24 17 -441 15 l-443 -3 433 -2 432 -3 0 -480 0 -480 -432 -3 -433
-2 440 0 440 0 3 243 2 242 430 0 430 0 2 618 3 617 395 5 395 5 -397 3 -398
2 0 375 0 375 -430 0 -430 0 0 245 0 245 -442 -2 -443 -3 433 -2z"/>
<path d="M4150 3420 l0 -250 -435 0 -435 0 0 -620 0 -620 -387 -3 -388 -2 387
-3 388 -2 2 -372 c2 -290 6 -373 16 -374 6 -1 201 -2 432 -3 l420 -1 0 -245 0
-245 438 2 437 3 -430 5 -430 5 -3 477 c-2 379 0 478 10 478 7 0 201 0 431 0
280 0 417 3 417 10 0 7 -140 9 -432 8 l-433 -3 -3 -237 -2 -238 -425 0 -425 0
0 985 0 985 425 0 425 0 0 -235 c0 -129 3 -235 8 -235 4 0 7 217 7 482 l0 483
425 5 425 5 -432 3 -433 2 0 -250z"/>
<path d="M4403 2683 c114 -2 300 -2 415 0 114 1 20 2 -208 2 -228 0 -322 -1
-207 -2z"/>
<path d="M2257 433 c-4 -3 -7 -10 -7 -15 0 -4 268 -8 595 -8 522 0 595 2 595
15 0 13 -72 15 -588 15 -324 0 -592 -3 -595 -7z"/>
<path d="M2257 373 c-4 -3 -7 -10 -7 -15 0 -4 270 -8 601 -8 476 0 600 3 597
13 -4 9 -133 13 -595 15 -324 1 -593 -1 -596 -5z"/>
<path d="M3076 323 c-11 -11 -6 -23 9 -23 8 0 15 4 15 9 0 13 -16 22 -24 14z"/>
<path d="M2508 260 l-16 -60 24 0 c18 0 24 5 24 23 0 25 16 54 25 46 3 -4 1
-18 -4 -32 -11 -28 -6 -37 21 -37 13 0 18 8 20 30 0 17 1 36 2 43 1 6 -9 12
-21 11 -16 0 -23 5 -23 18 0 11 -7 18 -18 18 -13 0 -22 -15 -34 -60z"/>
<path d="M2402 297 c-45 -54 -2 -119 59 -87 10 6 19 16 19 22 0 9 -3 9 -12 0
-7 -7 -21 -12 -31 -12 -16 0 -18 5 -12 27 11 45 25 56 45 38 16 -14 18 -14 24
0 3 9 6 18 6 19 0 10 -90 4 -98 -7z"/>
<path d="M2647 283 c-12 -11 -8 -23 7 -23 8 0 17 6 19 13 3 7 6 6 6 -5 1 -11
-8 -18 -26 -20 -20 -2 -28 -9 -28 -23 0 -17 7 -20 44 -20 42 0 44 1 46 30 1
17 -3 36 -8 43 -10 13 -49 17 -60 5z m23 -53 c0 -5 -5 -10 -11 -10 -5 0 -7 5
-4 10 3 6 8 10 11 10 2 0 4 -4 4 -10z"/>
<path d="M2747 261 c-3 -14 -9 -34 -12 -43 -5 -14 -2 -18 13 -18 15 0 22 9 27
30 9 43 27 50 23 9 -2 -28 0 -34 17 -34 11 0 20 7 21 15 2 33 4 40 14 40 5 0
7 -13 3 -31 -5 -28 -4 -30 17 -27 18 2 24 10 27 40 4 41 -8 54 -35 39 -11 -6
-22 -7 -26 -4 -4 4 -24 8 -45 9 -35 2 -39 -1 -44 -25z"/>
<path d="M2936 281 c-2 -3 -11 -30 -19 -58 l-16 -53 25 0 c14 0 23 5 22 13 -2
6 9 13 24 15 34 4 50 24 46 59 -3 24 -7 27 -41 29 -21 0 -39 -2 -41 -5z m40
-57 c-12 -30 -25 -13 -13 19 8 23 12 27 15 14 2 -10 1 -25 -2 -33z"/>
<path d="M3047 263 c-3 -16 -9 -36 -12 -45 -6 -14 -2 -18 17 -18 14 0 25 6 25
13 0 6 3 27 7 45 7 28 5 32 -12 32 -13 0 -21 -9 -25 -27z"/>
<path d="M3122 274 c-16 -11 -22 -24 -20 -42 6 -54 98 -32 98 23 0 36 -40 46
-78 19z m38 -21 c0 -20 -17 -50 -24 -43 -2 3 -2 17 1 33 6 30 23 37 23 10z"/>
<path d="M3226 277 c-2 -7 -8 -27 -14 -44 -10 -31 -9 -33 14 -33 16 0 24 6 24
18 0 10 7 27 15 38 14 18 15 16 9 -19 -6 -36 -5 -39 17 -35 20 3 23 9 24 43
l0 40 -43 2 c-26 1 -44 -3 -46 -10z"/>
</g>
</svg>
