<?xml version="1.0" standalone="no"?>
<!DOCTYPE svg PUBLIC "-//W3C//DTD SVG 20010904//EN"
 "http://www.w3.org/TR/2001/REC-SVG-20010904/DTD/svg10.dtd">
<svg version="1.0" xmlns="http://www.w3.org/2000/svg"
 width="390.000000pt" height="280.000000pt" viewBox="0 0 390.000000 280.000000"
 preserveAspectRatio="xMidYMid meet">

<g transform="translate(0.000000,280.000000) scale(0.100000,-0.100000)"
fill="#000000" stroke="none">
<path d="M383 2523 l217 -3 0 -150 0 -150 -217 -3 -218 -2 228 -3 227 -2 0 80
0 80 210 0 210 0 0 -285 0 -284 -210 -3 -210 -3 0 78 0 77 -227 -2 -228 -3
218 -2 217 -3 0 -150 0 -150 -217 -3 -218 -2 228 -3 227 -2 0 75 0 75 215 0
215 0 0 145 0 145 215 0 215 0 0 -570 0 -570 -215 0 -215 0 0 140 0 140 -215
0 -214 0 -3 78 -3 77 -225 0 -225 1 218 -3 217 -3 0 -150 0 -150 -217 -3 -218
-2 228 -3 227 -2 0 75 0 75 210 0 210 0 0 -285 0 -285 -210 0 -209 0 -3 78 -3
77 -222 3 c-147 1 -223 -1 -223 -8 0 -6 76 -10 215 -10 l215 0 0 -145 0 -145
-217 -3 -218 -2 228 -3 227 -2 0 75 0 75 215 0 215 0 0 145 0 145 218 2 217 3
3 287 2 288 198 3 197 2 -197 3 -198 2 0 290 0 290 -217 2 -218 3 -3 148 -3
147 -214 0 -215 0 0 75 0 75 -227 -2 -228 -3 218 -2z"/>
<path d="M3280 2455 l0 -75 -215 0 -214 0 -3 -147 -3 -148 -217 -3 -218 -2 0
-290 0 -290 -197 -3 -198 -2 197 -3 198 -2 2 -287 3 -288 218 -3 217 -2 0
-145 0 -145 215 0 215 0 0 -75 0 -75 228 2 227 3 -217 2 -218 3 0 145 0 145
215 0 c139 0 215 4 215 10 0 7 -76 9 -222 8 l-223 -3 -3 -77 -3 -78 -209 0
-210 0 0 285 0 285 210 0 210 0 0 -75 0 -75 228 2 227 3 -217 2 -218 3 0 150
0 150 218 3 217 3 -225 -1 -225 0 -3 -77 -3 -78 -214 0 -215 0 0 -140 0 -140
-215 0 -215 0 0 570 0 570 215 0 215 0 0 -145 0 -145 215 0 215 0 0 -75 0 -75
228 2 227 3 -217 2 -218 3 0 150 0 150 218 3 217 2 -227 3 -228 2 0 -75 0 -75
-210 0 -210 0 0 285 0 285 210 0 210 0 0 -80 0 -80 228 2 227 3 -217 2 -218 3
0 150 0 150 218 3 217 2 -227 3 -228 2 0 -75z"/>
<path d="M4 100 c0 -58 1 -81 3 -53 2 29 2 77 0 105 -2 29 -3 6 -3 -52z"/>
<path d="M1253 95 c0 -27 2 -38 4 -22 2 15 8 27 13 27 5 0 11 -12 13 -27 4
-26 4 -26 6 5 1 22 -4 32 -13 32 -8 0 -17 8 -19 18 -3 9 -5 -5 -4 -33z"/>
<path d="M1752 95 c0 -27 2 -43 5 -35 3 8 13 24 22 35 15 18 15 19 -1 7 -14
-12 -17 -10 -21 15 -2 16 -4 6 -5 -22z"/>
<path d="M1369 119 c-8 -20 4 -62 19 -65 7 -1 8 0 2 3 -15 7 -12 43 4 43 8 0
16 -10 18 -22 2 -12 9 -23 16 -24 7 -1 8 0 2 3 -12 6 -13 40 -1 45 5 2 3 9 -5
16 -8 7 -14 8 -14 2 0 -14 -27 -13 -32 2 -3 8 -6 7 -9 -3z"/>
<path d="M1599 118 c-2 -25 3 -53 11 -62 5 -5 6 1 3 14 -3 12 -1 25 4 29 7 4
6 11 -3 19 -11 10 -14 10 -15 0z"/>
<path d="M2150 125 c-1 -5 -1 -21 0 -34 1 -13 -4 -28 -12 -32 -9 -6 -3 -9 17
-9 17 0 25 4 18 8 -6 4 -13 23 -16 42 -2 19 -5 31 -7 25z"/>
<path d="M2195 120 c-4 -6 1 -7 11 -3 13 5 16 3 11 -10 -3 -9 -2 -19 4 -22 14
-9 -1 -27 -18 -21 -8 3 -11 1 -8 -4 9 -14 32 -12 38 3 14 38 -19 88 -38 57z"/>
<path d="M2254 115 c-4 -8 -1 -22 6 -30 6 -8 9 -19 5 -25 -3 -5 -4 -10 -1 -10
10 0 33 55 29 68 -6 17 -32 15 -39 -3z m28 -10 c0 -5 -5 -11 -11 -13 -6 -2
-11 4 -11 13 0 9 5 15 11 13 6 -2 11 -8 11 -13z"/>
<path d="M2317 123 c-12 -12 -7 -33 7 -33 26 0 28 -20 4 -29 -14 -6 -17 -10
-7 -10 8 -1 20 4 26 10 14 14 6 39 -13 39 -20 0 -17 18 4 23 14 4 14 5 1 6 -9
0 -19 -2 -22 -6z"/>
<path d="M2377 123 c-12 -12 -7 -33 7 -33 26 0 28 -20 4 -29 -14 -6 -17 -10
-7 -10 8 -1 20 4 26 10 14 14 6 39 -13 39 -20 0 -17 18 4 23 14 4 14 5 1 6 -9
0 -19 -2 -22 -6z"/>
<path d="M2440 106 c-15 -29 -8 -56 15 -56 23 0 31 31 12 45 -12 9 -14 14 -5
23 7 7 8 12 2 12 -6 0 -16 -11 -24 -24z m22 -31 c0 -5 -5 -11 -11 -13 -6 -2
-11 4 -11 13 0 9 5 15 11 13 6 -2 11 -8 11 -13z"/>
<path d="M2495 120 c-3 -5 0 -7 8 -4 24 9 28 -12 7 -31 -27 -25 -25 -35 8 -34
21 0 23 2 9 7 -15 7 -16 10 -3 27 7 10 12 25 9 32 -6 15 -29 17 -38 3z"/>
<path d="M2557 123 c-12 -12 -7 -33 7 -33 26 0 28 -20 4 -29 -14 -6 -17 -10
-7 -10 8 -1 20 4 26 10 14 14 6 39 -13 39 -20 0 -17 18 4 23 14 4 14 5 1 6 -9
0 -19 -2 -22 -6z"/>
<path d="M2614 115 c-4 -8 -1 -22 6 -30 6 -8 9 -19 5 -25 -3 -5 -4 -10 -1 -10
10 0 33 55 29 68 -6 17 -32 15 -39 -3z m28 -10 c0 -5 -5 -11 -11 -13 -6 -2
-11 4 -11 13 0 9 5 15 11 13 6 -2 11 -8 11 -13z"/>
<path d="M2675 120 c-3 -5 0 -7 8 -4 24 9 28 -12 7 -31 -27 -25 -25 -35 8 -34
21 0 23 2 9 7 -15 7 -16 10 -3 27 7 10 12 25 9 32 -6 15 -29 17 -38 3z"/>
<path d="M1200 93 c0 -10 4 -14 8 -8 4 6 11 13 16 18 5 4 2 7 -7 7 -10 0 -17
-8 -17 -17z"/>
<path d="M1311 83 c-1 -27 3 -33 19 -33 16 0 20 6 19 33 -2 30 -2 30 -6 5 -6
-36 -20 -36 -26 0 -4 25 -4 25 -6 -5z"/>
<path d="M1454 96 c-9 -23 3 -46 23 -45 17 1 17 2 1 6 -22 6 -24 23 -2 23 9 0
14 5 12 12 -7 19 -27 21 -34 4z"/>
<path d="M1511 78 c2 -28 2 -29 6 -8 3 14 10 28 17 32 7 5 5 8 -6 8 -14 0 -18
-8 -17 -32z"/>
<path d="M1550 93 c0 -10 4 -14 8 -8 4 6 11 13 16 18 5 4 2 7 -7 7 -10 0 -17
-8 -17 -17z"/>
<path d="M1644 95 c-8 -21 2 -45 20 -45 17 0 28 24 20 45 -4 8 -13 15 -20 15
-8 0 -17 -7 -20 -15z m31 -15 c0 -7 -6 -15 -12 -17 -8 -3 -13 4 -13 17 0 13 5
20 13 18 6 -3 12 -11 12 -18z"/>
<path d="M1705 99 c-11 -16 -1 -19 13 -3 7 8 8 14 3 14 -5 0 -13 -5 -16 -11z"/>
<path d="M1844 95 c-8 -20 2 -45 18 -44 10 0 10 2 1 6 -7 2 -13 13 -13 23 0
10 6 21 13 23 9 4 9 6 -1 6 -7 1 -15 -6 -18 -14z"/>
<path d="M1897 103 c-11 -10 -8 -41 4 -49 16 -9 41 20 33 39 -6 17 -25 22 -37
10z m28 -23 c0 -7 -6 -15 -12 -17 -8 -3 -13 4 -13 17 0 13 5 20 13 18 6 -3 12
-11 12 -18z"/>
<path d="M1951 77 c2 -31 2 -31 6 -4 2 15 8 27 13 27 5 0 11 -12 13 -27 l4
-28 2 28 c0 15 5 27 10 27 5 0 12 -12 14 -27 4 -27 4 -27 6 4 1 29 -1 31 -34
31 -33 0 -35 -2 -34 -31z"/>
<path d="M1212 65 c-11 -12 -10 -15 3 -15 8 0 15 7 15 15 0 18 -2 18 -18 0z"/>
<path d="M1562 65 c-11 -12 -10 -15 3 -15 8 0 15 7 15 15 0 18 -2 18 -18 0z"/>
<path d="M1770 71 c0 -5 5 -13 10 -16 6 -3 10 -2 10 4 0 5 -4 13 -10 16 -5 3
-10 2 -10 -4z"/>
<path d="M1707 59 c7 -7 15 -10 18 -7 3 3 -2 9 -12 12 -14 6 -15 5 -6 -5z"/>
</g>
</svg>
