<?xml version="1.0" encoding="utf-8"?>
<!-- Generator: Adobe Illustrator 27.0.0, SVG Export Plug-In . SVG Version: 6.00 Build 0)  -->
<svg version="1.1" id="Layer_1" xmlns="http://www.w3.org/2000/svg" xmlns:xlink="http://www.w3.org/1999/xlink" x="0px" y="0px"
	 viewBox="0 0 40 40" style="enable-background:new 0 0 40 40;" xml:space="preserve">
<style type="text/css">
	.st0{fill:#FFFFFF;}
</style>
<rect x="1.82" y="-54.26" width="40" height="40"/>
<g>
	<g>
		<g>
			<path class="st0" d="M32.6,22.26c-0.97-0.97-2.24-1.57-3.6-1.69c1.17-1.05,1.91-2.57,1.91-4.27c0-3.18-2.57-5.75-5.75-5.75
				c-3.03,0-5.52,2.35-5.73,5.33c2.7,1.17,4.59,3.86,4.59,6.98c0,1.14-0.26,2.25-0.74,3.27c0.69,0.36,1.34,0.83,1.89,1.4
				c1.43,1.44,2.25,3.44,2.23,5.47v0.04v0.04l-0.05,0.96h6.89l0.06-7.62C34.3,24.85,33.69,23.36,32.6,22.26z"/>
			<path class="st0" d="M20.26,27.13c1.17-1.05,1.91-2.57,1.91-4.27c0-3.18-2.57-5.75-5.75-5.75s-5.75,2.57-5.75,5.75
				c0,1.69,0.74,3.21,1.9,4.27c-2.99,0.23-5.35,2.71-5.37,5.76l-0.06,1.14h8.74h9.61l0.06-1.06c0.01-1.55-0.6-3.04-1.69-4.15
				C22.89,27.84,21.61,27.25,20.26,27.13z"/>
			<path class="st0" d="M9.64,12.8v2.14c0,0.88,0.72,1.6,1.6,1.6c0.89,0,1.6-0.72,1.6-1.6V12.8h2.13c0.89,0,1.6-0.72,1.6-1.6
				s-0.72-1.6-1.6-1.6h-2.13V7.5c0-0.89-0.72-1.6-1.6-1.6c-0.89,0-1.6,0.72-1.6,1.6v2.1h-2.1c-0.89,0-1.6,0.72-1.6,1.6
				c0,0.89,0.72,1.6,1.6,1.6H9.64L9.64,12.8z"/>
		</g>
	</g>
</g>
</svg>
