<?xml version="1.0" standalone="no"?>
<!DOCTYPE svg PUBLIC "-//W3C//DTD SVG 20010904//EN"
 "http://www.w3.org/TR/2001/REC-SVG-20010904/DTD/svg10.dtd">
<svg version="1.0" xmlns="http://www.w3.org/2000/svg"
 width="512.000000pt" height="512.000000pt" viewBox="0 0 512.000000 512.000000"
 preserveAspectRatio="xMidYMid meet">

<g transform="translate(0.000000,512.000000) scale(0.100000,-0.100000)"
fill="#000000" stroke="none">
<path d="M2095 4651 c-248 -40 -449 -189 -551 -408 -47 -99 -64 -180 -64 -304
0 -203 65 -364 205 -505 134 -136 282 -202 476 -211 137 -7 232 13 359 75 79
38 109 60 181 131 69 70 94 103 131 178 64 127 82 213 75 366 -7 175 -53 297
-164 431 -84 103 -232 196 -367 230 -72 19 -215 27 -281 17z m239 -425 c303
-148 198 -606 -139 -606 -128 0 -231 64 -286 176 -28 56 -33 76 -33 142 0 90
21 146 79 211 99 110 249 140 379 77z"/>
<path d="M1997 3145 c-521 -85 -941 -504 -1032 -1029 -21 -124 -22 -999 -1
-1049 17 -39 71 -92 109 -106 19 -7 208 -11 555 -11 l527 0 24 -35 c33 -49
184 -196 256 -249 353 -260 853 -269 1235 -22 94 61 245 209 310 302 186 269
241 629 143 939 -121 383 -441 674 -831 752 l-90 19 -94 99 c-51 54 -127 124
-169 155 -139 103 -328 188 -501 226 -103 22 -332 27 -441 9z m361 -401 c42
-9 110 -28 150 -44 70 -27 182 -88 182 -100 0 -3 -32 -18 -70 -34 -112 -46
-237 -135 -332 -235 -145 -154 -233 -307 -285 -497 -24 -88 -27 -117 -28 -259
0 -88 3 -175 7 -192 l8 -33 -320 0 -320 0 0 338 c0 388 5 425 83 587 118 244
348 423 608 474 73 15 235 12 317 -5z m871 -500 c89 -22 180 -64 257 -119 195
-140 309 -409 275 -651 -11 -76 -52 -217 -70 -236 -4 -4 -220 206 -480 466
l-474 474 42 22 c113 57 316 77 450 44z m-281 -842 c243 -247 442 -453 442
-456 0 -11 -98 -51 -160 -67 -32 -8 -102 -14 -170 -13 -133 1 -228 26 -340 91
-93 54 -227 191 -272 278 -101 193 -106 445 -13 624 l16 32 27 -20 c15 -10
227 -222 470 -469z"/>
</g>
</svg>
