<?xml version="1.0" encoding="utf-8"?>
<!-- Generator: Adobe Illustrator 27.0.0, SVG Export Plug-In . SVG Version: 6.00 Build 0)  -->
<svg version="1.1" id="Layer_1" xmlns="http://www.w3.org/2000/svg" xmlns:xlink="http://www.w3.org/1999/xlink" x="0px" y="0px"
	 viewBox="0 0 512 512" style="enable-background:new 0 0 512 512;" xml:space="preserve">
<style type="text/css">
	.st0{fill:#FFFFFF;}
</style>
<g transform="translate(0.000000,512.000000) scale(0.100000,-0.100000)">
	<path class="st0" d="M2134.49,4474.28c-227.04-36.62-411.06-173.03-504.44-373.52c-43.03-90.63-58.59-164.79-58.59-278.31
		c0-185.85,59.51-333.24,187.68-462.32c122.68-124.51,258.17-184.93,435.77-193.17c125.42-6.41,212.39,11.9,328.66,68.66
		c72.32,34.79,99.79,54.93,165.7,119.93c63.17,64.08,86.06,94.3,119.93,162.96c58.59,116.27,75.07,195,68.66,335.07
		c-6.41,160.21-48.52,271.9-150.14,394.58c-76.9,94.3-212.39,179.44-335.99,210.56C2325.83,4476.11,2194.92,4483.44,2134.49,4474.28
		z M2353.3,4085.2c277.39-135.49,181.27-554.79-127.25-554.79c-117.18,0-211.48,58.59-261.83,161.13
		c-25.63,51.27-30.21,69.58-30.21,130c0,82.39,19.23,133.66,72.32,193.17C2096.96,4115.41,2234.28,4142.88,2353.3,4085.2z"/>
	<path class="st0" d="M2044.78,3095.55c-476.97-77.82-861.48-461.41-944.79-942.04c-19.23-113.52-20.14-914.58-0.92-960.35
		c15.56-35.7,65-84.23,99.79-97.04c17.39-6.41,190.42-10.07,508.1-10.07h482.46l21.97-32.04
		c30.21-44.86,168.45-179.44,234.37-227.96c323.17-238.03,780.92-246.27,1130.63-20.14c86.06,55.85,224.3,191.34,283.8,276.48
		c170.28,246.27,220.63,575.85,130.92,859.65c-110.77,350.63-403.73,617.04-760.77,688.45l-82.39,17.39l-86.06,90.63
		c-46.69,49.44-116.27,113.52-154.72,141.9c-127.25,94.3-300.28,172.11-458.66,206.9
		C2354.21,3107.45,2144.56,3112.03,2044.78,3095.55z M2375.27,2728.44c38.45-8.24,100.7-25.63,137.32-40.28
		c64.08-24.72,166.62-80.56,166.62-91.55c0-2.75-29.3-16.48-64.08-31.13c-102.54-42.11-216.97-123.59-303.94-215.14
		c-132.75-140.99-213.31-281.06-260.92-455c-21.97-80.56-24.72-107.11-25.63-237.11c0-80.56,2.75-160.21,6.41-175.77l7.32-30.21
		h-292.96h-292.96v309.44c0,355.21,4.58,389.08,75.99,537.39c108.03,223.38,318.59,387.25,556.62,433.94
		C2151.89,2746.75,2300.2,2744,2375.27,2728.44z M3172.66,2270.69c81.48-20.14,164.79-58.59,235.28-108.94
		c178.52-128.17,282.89-374.44,251.76-595.99c-10.07-69.58-47.61-198.66-64.08-216.06c-3.66-3.66-201.41,188.59-439.44,426.62
		l-433.94,433.94l38.45,20.14C2864.14,2282.59,3049.99,2300.9,3172.66,2270.69z M2915.41,1499.85
		c222.46-226.13,404.65-414.72,404.65-417.46c0-10.07-89.72-46.69-146.48-61.34c-29.3-7.32-93.38-12.82-155.63-11.9
		c-121.76,0.92-208.73,23.8-311.27,83.31c-85.14,49.44-207.82,174.86-249.01,254.51c-92.46,176.69-97.04,407.39-11.9,571.27
		l14.65,29.3l24.72-18.31C2498.86,1920.06,2692.94,1725.97,2915.41,1499.85z"/>
</g>
</svg>
