<?xml version="1.0" encoding="utf-8"?><!-- Uploaded to: SVG Repo, www.svgrepo.com, Generator: SVG Repo Mixer Tools -->
<svg version="1.1" id="Uploaded to svgrepo.com" xmlns="http://www.w3.org/2000/svg" xmlns:xlink="http://www.w3.org/1999/xlink" 
	 width="800px" height="800px" viewBox="0 0 32 32" xml:space="preserve">
<style type="text/css">
	.open_een{fill:#0B1719;}
</style>
<path class="open_een" d="M28.5,5H19c-0.276,0-0.5,0.224-0.5,0.5S18.724,6,19,6h9.5C28.776,6,29,6.225,29,6.5V11h-1.5
	c-0.827,0-1.5,0.673-1.5,1.5v7c0,0.827,0.673,1.5,1.5,1.5H29v4.5c0,0.275-0.224,0.5-0.5,0.5h-12v-5.051
	C19.02,20.694,21,18.586,21,16s-1.98-4.694-4.5-4.949V5.5C16.5,5.224,16.276,5,16,5H3.5C2.673,5,2,5.673,2,6.5v19
	C2,26.327,2.673,27,3.5,27H13c0.276,0,0.5-0.224,0.5-0.5S13.276,26,13,26H3.5C3.224,26,3,25.775,3,25.5V21h1.5
	C5.327,21,6,20.327,6,19.5v-7C6,11.673,5.327,11,4.5,11H3V6.5C3,6.225,3.224,6,3.5,6h12v5.051C12.98,11.306,11,13.414,11,16
	s1.98,4.694,4.5,4.949V26.5c0,0.276,0.224,0.5,0.5,0.5h12.5c0.827,0,1.5-0.673,1.5-1.5v-19C30,5.673,29.327,5,28.5,5z M4.5,12
	C4.776,12,5,12.225,5,12.5v7C5,19.775,4.776,20,4.5,20H3v-8H4.5z M20,16c0,2.035-1.532,3.7-3.5,3.949v-7.899
	C18.468,12.3,20,13.965,20,16z M12,16c0-2.035,1.532-3.7,3.5-3.949v7.899C13.532,19.7,12,18.035,12,16z M27.5,20
	c-0.276,0-0.5-0.225-0.5-0.5v-7c0-0.275,0.224-0.5,0.5-0.5H29v8H27.5z"/>
</svg>