<?xml version="1.0" encoding="utf-8"?>
<!-- Generator: Adobe Illustrator 27.0.0, SVG Export Plug-In . SVG Version: 6.00 Build 0)  -->
<svg version="1.1" id="Layer_1" xmlns="http://www.w3.org/2000/svg" xmlns:xlink="http://www.w3.org/1999/xlink" x="0px" y="0px"
	 viewBox="0 0 40 40" style="enable-background:new 0 0 40 40;" xml:space="preserve">
<style type="text/css">
	.st0{fill:#FFFFFF;}
</style>
<rect x="20.52" y="-55.89" width="40" height="40"/>
<path class="st0" d="M32.8,8.74h-9.73c-0.28,0-0.51,0.23-0.51,0.51s0.23,0.51,0.51,0.51h9.73c0.28,0,0.51,0.23,0.51,0.51v4.61h-1.54
	c-0.85,0-1.54,0.69-1.54,1.54v7.17c0,0.85,0.69,1.54,1.54,1.54h1.54v4.61c0,0.28-0.23,0.51-0.51,0.51H20.51v-5.17
	c2.58-0.26,4.61-2.42,4.61-5.07s-2.03-4.81-4.61-5.07V9.25c0-0.28-0.23-0.51-0.51-0.51H7.2c-0.85,0-1.54,0.69-1.54,1.54v19.46
	c0,0.85,0.69,1.54,1.54,1.54h9.73c0.28,0,0.51-0.23,0.51-0.51s-0.23-0.51-0.51-0.51H7.2c-0.28,0-0.51-0.23-0.51-0.51v-4.61h1.54
	c0.85,0,1.54-0.69,1.54-1.54v-7.17c0-0.85-0.69-1.54-1.54-1.54H6.69v-4.61c0-0.28,0.23-0.51,0.51-0.51h12.29v5.17
	c-2.58,0.26-4.61,2.42-4.61,5.07s2.03,4.81,4.61,5.07v5.68c0,0.28,0.23,0.51,0.51,0.51h12.8c0.85,0,1.54-0.69,1.54-1.54V10.27
	C34.34,9.43,33.65,8.74,32.8,8.74z M8.22,15.9c0.28,0,0.51,0.23,0.51,0.51v7.17c0,0.28-0.23,0.51-0.51,0.51H6.69V15.9H8.22z
	 M24.1,20c0,2.08-1.57,3.79-3.58,4.04v-8.09C22.53,16.21,24.1,17.92,24.1,20z M15.9,20c0-2.08,1.57-3.79,3.58-4.04v8.09
	C17.47,23.79,15.9,22.08,15.9,20z M31.78,24.1c-0.28,0-0.51-0.23-0.51-0.51v-7.17c0-0.28,0.23-0.51,0.51-0.51h1.54v8.19
	C33.32,24.1,31.78,24.1,31.78,24.1z"/>
</svg>
