<?xml version="1.0" encoding="utf-8"?>
<!-- Generator: Adobe Illustrator 27.0.0, SVG Export Plug-In . SVG Version: 6.00 Build 0)  -->
<svg version="1.1" id="Layer_1" xmlns="http://www.w3.org/2000/svg" xmlns:xlink="http://www.w3.org/1999/xlink" x="0px" y="0px"
	 viewBox="0 0 40 40" style="enable-background:new 0 0 40 40;" xml:space="preserve">
<style type="text/css">
	.st0{fill:#FFFFFF;}
	.st1{font-family:'AdobeArabic-Regular';}
	.st2{font-size:48.9679px;}
</style>
<path d="M92-127.61H69.52c-1.28,0-2.51,0.64-3.41,1.78s-1.41,2.69-1.42,4.3v26.08c0,1.61,0.51,3.16,1.42,4.3
	c0.91,1.14,2.13,1.78,3.41,1.78h28.97c1.28,0,2.51-0.64,3.41-1.78c0.9-1.14,1.41-2.69,1.42-4.3v-17.91c0.15-5.02,0,0,0.15-5.02
	c-0.15-9.24,0,0-0.15-9.24l-18.46,22.24C84.6-105.13,84.31-105,84-105c-0.31,0-0.6-0.13-0.85-0.37l-12.41-12.17
	c-0.15-0.14-0.27-0.31-0.36-0.51c-0.09-0.2-0.15-0.42-0.18-0.65c-0.02-0.23-0.01-0.46,0.04-0.68c0.05-0.22,0.13-0.43,0.24-0.61
	c0.11-0.18,0.25-0.33,0.41-0.45c0.16-0.11,0.33-0.19,0.52-0.21s0.37-0.01,0.54,0.06c0.18,0.06,0.34,0.17,0.48,0.31L84-108.94
	l15.61-18.66"/>
<g id="uGUbh4_00000091718489226495161000000016087605267476887691_">
	<g>
		<path d="M73.34-7.45c0.77,0,1.55,0,2.32,0c0.48,0.08,0.96,0.14,1.43,0.24c5.1,1,8.69,3.81,10.42,8.78c0.37,1.06,0.48,2.2,0.72,3.3
			c0,0.69,0,1.38,0,2.07c-0.04,0.18-0.09,0.35-0.11,0.53c-0.39,3.35-1.8,6.19-4.38,8.36c-3.76,3.17-8.11,3.93-12.85,2.91
			c-0.38-0.08-0.83-0.12-1.17,0.01c-0.96,0.36-1.89,0.82-2.83,1.24c-0.16,0-0.33,0-0.49,0c-0.65-0.26-0.9-0.75-0.87-1.44
			c0.03-0.57-0.04-1.14-0.03-1.71c0-0.56-0.21-0.99-0.63-1.38c-1.66-1.54-2.83-3.4-3.46-5.56c-0.28-0.97-0.42-1.97-0.62-2.96
			c0-0.73,0-1.46,0-2.2c0.05-0.32,0.1-0.63,0.15-0.95c1.04-5.67,4.38-9.24,9.91-10.77C71.65-7.2,72.5-7.29,73.34-7.45z M76.9,10.24
			c0.91-0.09,1.49-0.53,1.93-1.24c1.25-1.99,2.51-3.98,3.77-5.97c0.24-0.37,0.41-0.74,0.01-1.08c-0.37-0.31-0.71-0.13-1.04,0.13
			c-1.29,0.99-2.6,1.95-3.88,2.95c-0.52,0.41-0.96,0.4-1.47,0c-0.94-0.74-1.9-1.45-2.87-2.16c-1.14-0.83-2.39-0.6-3.14,0.59
			c-1.29,2.02-2.55,4.05-3.83,6.07c-0.22,0.35-0.39,0.7-0.02,1.04c0.39,0.35,0.74,0.14,1.08-0.12c1.29-0.99,2.6-1.95,3.87-2.96
			c0.5-0.39,0.93-0.38,1.42-0.01c0.96,0.74,1.93,1.49,2.93,2.18C76.03,9.93,76.48,10.06,76.9,10.24z"/>
	</g>
</g>
<rect width="40" height="40"/>
<text transform="matrix(0.8889 0 0 1 8.998 32.2124)" class="st0 st1 st2">X</text>
</svg>
