<?xml version="1.0" encoding="utf-8"?>
<!-- Generator: Adobe Illustrator 27.0.0, SVG Export Plug-In . SVG Version: 6.00 Build 0)  -->
<svg version="1.1" id="Layer_1" xmlns="http://www.w3.org/2000/svg" xmlns:xlink="http://www.w3.org/1999/xlink" x="0px" y="0px"
	 viewBox="0 0 512 512" style="enable-background:new 0 0 512 512;" xml:space="preserve">
<style type="text/css">
	.st0{clip-path:url(#SVGID_00000004537160528351169960000017653445032839060911_);}
	.st1{fill:#FFFFFF;}
	.st2{clip-path:url(#SVGID_00000067216814125558206690000003476754737731758230_);}
</style>
<g>
	<g>
		<defs>
			<rect id="SVGID_1_" x="-521.79" y="-800" width="800" height="800"/>
		</defs>
		<clipPath id="SVGID_00000054255497142823188370000001143674642277986433_">
			<use xlink:href="#SVGID_1_"  style="overflow:visible;"/>
		</clipPath>
		<g style="clip-path:url(#SVGID_00000054255497142823188370000001143674642277986433_);">
			<path class="st1" d="M-331.79-700h267l13,4l8,4l11,10l6,10l4,11l1,5v12l-3,12l-5,10l-10,11l-9,6l-11,4l-5,1h-257v400h400v-107
				l3-12l7-12l9-9l10-6l14-4h14l13,4l8,4l11,10l6,10l4,11l1,5v116l-4,20l-7,16l-7,12l-12,14l-12,10l-15,9l-17,6l-17,3h-419l-20-4
				l-15-6l-15-9l-13-12l-10-12l-8-14l-5-13l-4-20v-422l4-18l5-13l8-14l11-13l7-7l13-9l16-8l19-5L-331.79-700z"/>
			<path class="st1" d="M197.21-700h12l12,3l10,5l11,10l6,9l4,11l1,6v12l-3,12l-5,10l-9,10l-301,301l-10,6l-10,4l-6,1h-13l-13-4
				l-9-5l-10-9l-76-76l-7-12l-3-12v-14l3-11l5-10l9-10l10-7l11-4l6-1h12l12,3l10,5l12,11l34,34l4-2l266-266l8-5l11-4L197.21-700z"/>
		</g>
	</g>
</g>
<rect x="401.7" y="-1056" width="512" height="512"/>
<g>
	<g>
		<defs>
			<rect id="SVGID_00000040555069193947457310000015844390353077809576_" x="57.05" y="57.05" width="397.9" height="397.9"/>
		</defs>
		<clipPath id="SVGID_00000085224070521513866990000014690242605936404403_">
			<use xlink:href="#SVGID_00000040555069193947457310000015844390353077809576_"  style="overflow:visible;"/>
		</clipPath>
		<g style="clip-path:url(#SVGID_00000085224070521513866990000014690242605936404403_);">
			<path d="M151.55,106.79h132.8l6.47,1.99l3.98,1.99l5.47,4.97l2.98,4.97l1.99,5.47l0.5,2.49v5.97l-1.49,5.97l-2.49,4.97
				l-4.97,5.47l-4.48,2.98l-5.47,1.99l-2.49,0.5H156.53v198.95h198.95v-53.22l1.49-5.97l3.48-5.97l4.48-4.48l4.97-2.98l6.96-1.99
				h6.96l6.47,1.99l3.98,1.99l5.47,4.97l2.98,4.97l1.99,5.47l0.5,2.49v57.69l-1.99,9.95l-3.48,7.96l-3.48,5.97l-5.97,6.96
				l-5.97,4.97l-7.46,4.48l-8.46,2.98l-8.46,1.49h-208.4l-9.95-1.99l-7.46-2.98l-7.46-4.48l-6.47-5.97l-4.97-5.97l-3.98-6.96
				l-2.49-6.47l-1.99-9.95V150.56l1.99-8.95l2.49-6.47l3.98-6.96l5.47-6.47l3.48-3.48l6.47-4.48l7.96-3.98l9.45-2.49L151.55,106.79z
				"/>
			<path d="M414.66,106.79h5.97l5.97,1.49l4.97,2.49l5.47,4.97l2.98,4.48l1.99,5.47l0.5,2.98v5.97l-1.49,5.97l-2.49,4.97l-4.48,4.97
				l-149.7,149.72l-4.97,2.98l-4.97,1.99l-2.98,0.5h-6.47l-6.47-1.99l-4.48-2.49l-4.97-4.48l-37.8-37.8l-3.48-5.97l-1.49-5.97v-6.96
				l1.49-5.47l2.49-4.97l4.48-4.97l4.97-3.48l5.47-1.99l2.98-0.5h5.97l5.97,1.49l4.97,2.49l5.97,5.47l16.91,16.91l1.99-0.99
				l132.3-132.3l3.98-2.49l5.47-1.99L414.66,106.79z"/>
		</g>
	</g>
</g>
</svg>
