<svg width="800" height="800" viewBox="0 0 800 800" fill="none" xmlns="http://www.w3.org/2000/svg">
<g clip-path="url(#clip0_4692_174)">
<path d="M190 100H457L470 104L478 108L489 118L495 128L499 139L500 144V156L497 168L492 178L482 189L473 195L462 199L457 200H200V600H600V493L603 481L610 469L619 460L629 454L643 450H657L670 454L678 458L689 468L695 478L699 489L700 494V610L696 630L689 646L682 658L670 672L658 682L643 691L626 697L609 700H190L170 696L155 690L140 681L127 669L117 657L109 643L104 630L100 610V188L104 170L109 157L117 143L128 130L135 123L148 114L164 106L183 101L190 100Z" fill="black"/>
<path d="M719 100H731L743 103L753 108L764 118L770 127L774 138L775 144V156L772 168L767 178L758 188L457 489L447 495L437 499L431 500H418L405 496L396 491L386 482L310 406L303 394L300 382V368L303 357L308 347L317 337L327 330L338 326L344 325H356L368 328L378 333L390 344L424 378L428 376L694 110L702 105L713 101L719 100Z" fill="black"/>
</g>
<defs>
<clipPath id="clip0_4692_174">
<rect width="800" height="800" fill="white"/>
</clipPath>
</defs>
</svg>
