<svg width="19" height="24" viewBox="0 0 19 24" fill="none" xmlns="http://www.w3.org/2000/svg">
<g clip-path="url(#clip0_4231_1239)">
<path d="M15.4966 15.6589H7.91091C7.56323 15.6589 7.27877 15.343 7.27877 14.9568V3.72222C7.27877 3.33603 7.56323 3.02006 7.91091 3.02006H13.4461L16.1288 5.99985V14.9568C16.1288 15.343 15.8443 15.6589 15.4966 15.6589ZM7.91091 17.7654H15.4966C16.8913 17.7654 18.0252 16.5059 18.0252 14.9568V5.99985C18.0252 5.44251 17.8237 4.90711 17.4681 4.51215L14.7894 1.53235C14.4338 1.13739 13.9518 0.913574 13.4501 0.913574H7.91091C6.51624 0.913574 5.38234 2.17307 5.38234 3.72222V14.9568C5.38234 16.5059 6.51624 17.7654 7.91091 17.7654ZM2.85377 6.53086C1.4591 6.53086 0.325195 7.79036 0.325195 9.3395V20.5741C0.325195 22.1232 1.4591 23.3827 2.85377 23.3827H10.4395C11.8341 23.3827 12.9681 22.1232 12.9681 20.5741V19.1697H11.0716V20.5741C11.0716 20.9603 10.7872 21.2762 10.4395 21.2762H2.85377C2.50609 21.2762 2.22162 20.9603 2.22162 20.5741V9.3395C2.22162 8.95331 2.50609 8.63734 2.85377 8.63734H4.11805V6.53086H2.85377Z" fill="black"/>
</g>
<defs>
<clipPath id="clip0_4231_1239">
<rect width="17.7" height="22.4691" fill="white" transform="translate(0.325195 0.913574)"/>
</clipPath>
</defs>
</svg>
