<?xml version="1.0" encoding="utf-8"?>
<!-- Generator: Adobe Illustrator 27.0.0, SVG Export Plug-In . SVG Version: 6.00 Build 0)  -->
<svg version="1.1" id="Layer_1" xmlns="http://www.w3.org/2000/svg" xmlns:xlink="http://www.w3.org/1999/xlink" x="0px" y="0px"
	 viewBox="0 0 512 512" style="enable-background:new 0 0 512 512;" xml:space="preserve">
<style type="text/css">
	.st0{clip-path:url(#SVGID_00000109025996344958193590000000611660905150565510_);}
	.st1{fill:#FFFFFF;}
</style>
<g>
	<g>
		<defs>
			<rect id="SVGID_1_" x="-521.79" y="-800" width="800" height="800"/>
		</defs>
		<clipPath id="SVGID_00000172402422698985015200000002496228877205515681_">
			<use xlink:href="#SVGID_1_"  style="overflow:visible;"/>
		</clipPath>
		<g style="clip-path:url(#SVGID_00000172402422698985015200000002496228877205515681_);">
			<path class="st1" d="M-331.79-700h267l13,4l8,4l11,10l6,10l4,11l1,5v12l-3,12l-5,10l-10,11l-9,6l-11,4l-5,1h-257v400h400v-107
				l3-12l7-12l9-9l10-6l14-4h14l13,4l8,4l11,10l6,10l4,11l1,5v116l-4,20l-7,16l-7,12l-12,14l-12,10l-15,9l-17,6l-17,3h-419l-20-4
				l-15-6l-15-9l-13-12l-10-12l-8-14l-5-13l-4-20v-422l4-18l5-13l8-14l11-13l7-7l13-9l16-8l19-5L-331.79-700z"/>
			<path class="st1" d="M197.21-700h12l12,3l10,5l11,10l6,9l4,11l1,6v12l-3,12l-5,10l-9,10l-301,301l-10,6l-10,4l-6,1h-13l-13-4
				l-9-5l-10-9l-76-76l-7-12l-3-12v-14l3-11l5-10l9-10l10-7l11-4l6-1h12l12,3l10,5l12,11l34,34l4-2l266-266l8-5l11-4L197.21-700z"/>
		</g>
	</g>
</g>
<rect x="-33.96" y="-714.23" width="512" height="512"/>
<g>
	<path class="st1" d="M369.18,318.86H233.36c-6.22,0-11.32-5.66-11.32-12.57V105.14c0-6.91,5.09-12.57,11.32-12.57h99.1l48.03,53.35
		v160.37C380.5,313.2,375.4,318.86,369.18,318.86z M233.36,356.57h135.81c24.97,0,45.27-22.55,45.27-50.29V145.92
		c0-9.98-3.61-19.56-9.97-26.64l-47.96-53.35c-6.37-7.07-15-11.08-23.98-11.08h-99.17c-24.97,0-45.27,22.55-45.27,50.29v201.14
		C188.09,334.02,208.39,356.57,233.36,356.57z M142.82,155.43c-24.97,0-45.27,22.55-45.27,50.29v201.14
		c0,27.74,20.3,50.29,45.27,50.29h135.81c24.97,0,45.27-22.55,45.27-50.29v-25.14h-33.95v25.14c0,6.91-5.09,12.57-11.32,12.57
		H142.82c-6.22,0-11.32-5.66-11.32-12.57V205.71c0-6.91,5.09-12.57,11.32-12.57h22.64v-37.71L142.82,155.43L142.82,155.43z"/>
</g>
</svg>
