<svg width="8" height="96" viewBox="0 0 8 96" fill="none" xmlns="http://www.w3.org/2000/svg">
<mask id="path-1-inside-1_1_368" fill="white">
<path d="M7.99998 95.7488L4.76837e-07 95.7488L-2.70229e-07 2.06939e-07L7.99998 -7.62939e-06L7.99998 95.7488Z"/>
</mask>
<path d="M7.99998 -7.62939e-06L12 -1.15476e-05L12 -0.500012L7.99998 -0.500008L7.99998 -7.62939e-06ZM12 95.7488L12 94.7515L3.99998 94.7515L3.99998 95.7488L12 95.7488ZM12 92.7567L12 90.7619L3.99998 90.7619L3.99998 92.7567L12 92.7567ZM12 88.7671L12 86.7724L3.99998 86.7724L3.99998 88.7672L12 88.7671ZM12 84.7776L12 82.7828L3.99998 82.7829L3.99998 84.7776L12 84.7776ZM12 80.7881L12 78.7933L3.99998 78.7933L3.99998 80.7881L12 80.7881ZM12 76.7985L12 74.8038L3.99998 74.8038L3.99998 76.7985L12 76.7985ZM12 72.809L12 70.8142L3.99998 70.8142L3.99998 72.809L12 72.809ZM12 68.8195L12 66.8247L3.99998 66.8247L3.99998 68.8195L12 68.8195ZM12 64.8299L12 62.8352L3.99998 62.8352L3.99998 64.8299L12 64.8299ZM12 60.8404L12 58.8456L3.99998 58.8456L3.99998 60.8404L12 60.8404ZM12 56.8509L12 54.8561L3.99998 54.8561L3.99998 56.8509L12 56.8509ZM12 52.8613L12 50.8666L3.99998 50.8666L3.99998 52.8613L12 52.8613ZM12 48.8718L12 46.877L3.99998 46.877L3.99998 48.8718L12 48.8718ZM12 44.8823L12 42.8875L3.99998 42.8875L3.99998 44.8823L12 44.8823ZM12 40.8927L12 38.898L3.99998 38.898L3.99998 40.8927L12 40.8927ZM12 36.9032L12 34.9084L3.99998 34.9084L3.99998 36.9032L12 36.9032ZM12 32.9137L12 30.9189L3.99998 30.9189L3.99998 32.9137L12 32.9137ZM12 28.9241L12 26.9294L3.99998 26.9294L3.99998 28.9241L12 28.9241ZM12 24.9346L12 22.9398L3.99998 22.9398L3.99998 24.9346L12 24.9346ZM12 20.9451L12 18.9503L3.99998 18.9503L3.99998 20.9451L12 20.9451ZM12 16.9555L12 14.9608L3.99998 14.9608L3.99998 16.9555L12 16.9555ZM12 12.966L12 10.9712L3.99998 10.9713L3.99998 12.966L12 12.966ZM12 8.97648L12 6.98171L3.99998 6.98171L3.99998 8.97649L12 8.97648ZM12 4.98694L12 2.99217L3.99998 2.99218L3.99998 4.98695L12 4.98694ZM12 0.997408L12 -1.15476e-05L3.99998 -3.71122e-06L3.99998 0.997416L12 0.997408ZM7.99998 -0.500008L6.99999 -0.500007L6.99999 0.499993L7.99998 0.499992L7.99998 -0.500008ZM4.99999 -0.500005L2.99999 -0.500003L2.99999 0.499997L4.99999 0.499995L4.99999 -0.500005ZM0.999998 -0.500001L-2.7413e-07 -0.5L-2.66328e-07 0.5L0.999998 0.499999L0.999998 -0.500001ZM7.99998 -7.62939e-06L16 -1.54657e-05L16 -1.00002L7.99998 -1.00001L7.99998 -7.62939e-06ZM16 95.7488L16 94.7514L-1.52666e-05 94.7515L-1.52588e-05 95.7488L16 95.7488ZM16 92.7567L16 90.7619L-1.52977e-05 90.7619L-1.52821e-05 92.7567L16 92.7567ZM16 88.7671L16 86.7724L-1.53288e-05 86.7724L-1.53133e-05 88.7672L16 88.7671ZM16 84.7776L16 82.7828L-1.536e-05 82.7829L-1.53444e-05 84.7776L16 84.7776ZM16 80.7881L16 78.7933L-1.53911e-05 78.7933L-1.53755e-05 80.7881L16 80.7881ZM16 76.7985L16 74.8038L-1.54222e-05 74.8038L-1.54066e-05 76.7986L16 76.7985ZM16 72.809L16 70.8142L-1.54533e-05 70.8143L-1.54378e-05 72.809L16 72.809ZM16 68.8195L16 66.8247L-1.54845e-05 66.8247L-1.54689e-05 68.8195L16 68.8195ZM16 64.8299L16 62.8352L-1.55156e-05 62.8352L-1.55e-05 64.8299L16 64.8299ZM16 60.8404L16 58.8456L-1.55467e-05 58.8456L-1.55312e-05 60.8404L16 60.8404ZM16 56.8509L16 54.8561L-1.55778e-05 54.8561L-1.55623e-05 56.8509L16 56.8509ZM16 52.8613L16 50.8666L-1.5609e-05 50.8666L-1.55934e-05 52.8613L16 52.8613ZM16 48.8718L16 46.877L-1.56401e-05 46.877L-1.56245e-05 48.8718L16 48.8718ZM16 44.8823L16 42.8875L-1.56712e-05 42.8875L-1.56557e-05 44.8823L16 44.8823ZM16 40.8927L16 38.898L-1.57024e-05 38.898L-1.56868e-05 40.8928L16 40.8927ZM16 36.9032L16 34.9084L-1.57335e-05 34.9084L-1.57179e-05 36.9032L16 36.9032ZM16 32.9137L16 30.9189L-1.57646e-05 30.9189L-1.57491e-05 32.9137L16 32.9137ZM16 28.9241L16 26.9294L-1.57957e-05 26.9294L-1.57802e-05 28.9241L16 28.9241ZM16 24.9346L16 22.9398L-1.58269e-05 22.9398L-1.58113e-05 24.9346L16 24.9346ZM16 20.9451L16 18.9503L-1.5858e-05 18.9503L-1.58424e-05 20.9451L16 20.9451ZM16 16.9555L16 14.9608L-1.58891e-05 14.9608L-1.58736e-05 16.9556L16 16.9555ZM16 12.966L16 10.9712L-1.59203e-05 10.9713L-1.59047e-05 12.966L16 12.966ZM16 8.97647L16 6.9817L-1.59514e-05 6.98172L-1.59358e-05 8.97649L16 8.97647ZM16 4.98694L16 2.99217L-1.59825e-05 2.99219L-1.59669e-05 4.98695L16 4.98694ZM16 0.997405L16 -1.54657e-05L-1.60059e-05 2.06955e-07L-1.59981e-05 0.99742L16 0.997405ZM7.99998 -1.00001L6.99999 -1.00001L6.99999 0.999993L7.99998 0.999992L7.99998 -1.00001ZM4.99999 -1L2.99999 -1L2.99999 0.999997L4.99999 0.999995L4.99999 -1ZM0.999998 -1L-2.78031e-07 -1L-2.62426e-07 1L0.999998 0.999999L0.999998 -1Z" fill="#3040D3" mask="url(#path-1-inside-1_1_368)"/>
</svg>
