<?xml version="1.0" encoding="utf-8"?>
<!-- Generator: Adobe Illustrator 27.0.0, SVG Export Plug-In . SVG Version: 6.00 Build 0)  -->
<svg version="1.1" id="Layer_1" xmlns="http://www.w3.org/2000/svg" xmlns:xlink="http://www.w3.org/1999/xlink" x="0px" y="0px"
	 viewBox="0 0 30 30" style="enable-background:new 0 0 30 30;" xml:space="preserve">
<style type="text/css">
	.st0{fill:#FFFFFF;}
</style>
<path class="st0" d="M10.97,15c1.95,0,3.53-2.25,3.53-5.04c0-2.78-1.58-5.04-3.53-5.04c-1.95,0-3.53,2.25-3.53,5.04
	C7.45,12.75,9.02,15,10.97,15z M13.39,16.44h-0.26c-0.65,0.45-1.38,0.72-2.16,0.72c-0.77,0-1.5-0.27-2.16-0.72H8.55
	c-2,0-3.63,2.32-3.63,5.18v1.3c0,1.19,0.68,2.16,1.51,2.16h9.07c0.83,0,1.51-0.97,1.51-2.16v-1.3
	C17.01,18.76,15.39,16.44,13.39,16.44z M20.04,15c1.67,0,3.02-1.93,3.02-4.32c0-2.38-1.35-4.32-3.02-4.32
	c-1.67,0-3.02,1.93-3.02,4.32C17.01,13.07,18.37,15,20.04,15z M21.55,16.44h-0.12c-0.44,0.22-0.9,0.36-1.39,0.36
	s-0.95-0.14-1.39-0.36h-0.12c-0.64,0-1.23,0.27-1.75,0.69c0.77,1.18,1.25,2.75,1.25,4.49v1.73c0,0.1-0.02,0.19-0.02,0.29h5.56
	c0.83,0,1.51-0.97,1.51-2.16C25.07,18.69,23.5,16.44,21.55,16.44z"/>
</svg>
