<?xml version="1.0" encoding="utf-8"?>
<!-- Generator: Adobe Illustrator 27.0.0, SVG Export Plug-In . SVG Version: 6.00 Build 0)  -->
<svg version="1.1" id="Layer_1" xmlns="http://www.w3.org/2000/svg" xmlns:xlink="http://www.w3.org/1999/xlink" x="0px" y="0px"
	 viewBox="0 0 32 32" style="enable-background:new 0 0 32 32;" xml:space="preserve">
<style type="text/css">
	.st0{fill:#FFFFFF;stroke:#000000;stroke-width:2;stroke-linecap:round;stroke-linejoin:round;}
</style>
<path class="st0" d="M16.93,27.2c-2.09,0.59-4.32,0.47-6.34-0.34c-2.02-0.81-3.71-2.27-4.81-4.15c-1.1-1.88-1.55-4.07-1.27-6.22
	c0.28-2.16,1.26-4.16,2.8-5.7l0.93-0.93c1.51-1.51,3.47-2.49,5.58-2.78c2.11-0.3,4.27,0.1,6.13,1.13l3.07-3.02
	c0.49-0.48,1.15-0.76,1.83-0.77c0.69-0.01,1.36,0.24,1.86,0.71s0.81,1.11,0.86,1.8c0.04,0.69-0.18,1.36-0.62,1.89L26.8,8.98
	l-3.02,3.07c1,1.8,1.4,3.87,1.16,5.92c-0.24,2.05-1.12,3.96-2.52,5.48"/>
<path class="st0" d="M12.53,7.37l12.09,12.09 M14.72,23.71c0,0.51,0.1,1.01,0.29,1.48c0.19,0.47,0.48,0.89,0.84,1.25
	c0.36,0.36,0.78,0.64,1.25,0.84c0.47,0.19,0.97,0.29,1.48,0.29c0.51,0,1.01-0.1,1.48-0.29c0.47-0.19,0.89-0.48,1.25-0.84
	c0.36-0.36,0.64-0.78,0.84-1.25c0.19-0.47,0.29-0.97,0.29-1.48c0-0.51-0.1-1.01-0.29-1.48c-0.19-0.47-0.48-0.89-0.84-1.25
	c-0.36-0.36-0.78-0.64-1.25-0.84c-0.47-0.19-0.97-0.29-1.48-0.29c-0.51,0-1.01,0.1-1.48,0.29c-0.47,0.19-0.89,0.48-1.25,0.84
	c-0.36,0.36-0.64,0.78-0.84,1.25C14.82,22.71,14.72,23.21,14.72,23.71z"/>
</svg>
