<?xml version="1.0" encoding="utf-8"?>
<!-- Generator: Adobe Illustrator 27.0.0, SVG Export Plug-In . SVG Version: 6.00 Build 0)  -->
<svg version="1.1" id="Layer_1" xmlns="http://www.w3.org/2000/svg" xmlns:xlink="http://www.w3.org/1999/xlink" x="0px" y="0px"
	 viewBox="0 0 32 32" style="enable-background:new 0 0 32 32;" xml:space="preserve">
<style type="text/css">
	.st0{fill:none;stroke:#FFFFFF;stroke-width:2;stroke-linecap:round;stroke-linejoin:round;}
</style>
<path class="st0" d="M16.9,27.2c-2.1,0.6-4.3,0.5-6.3-0.3s-3.7-2.3-4.8-4.1s-1.5-4.1-1.3-6.2c0.3-2.2,1.3-4.2,2.8-5.7L8.2,10
	c1.5-1.5,3.5-2.5,5.6-2.8s4.3,0.1,6.1,1.1l3.1-3c0.5-0.5,1.1-0.8,1.8-0.8c0.7,0,1.4,0.2,1.9,0.7s0.8,1.1,0.9,1.8
	c0,0.7-0.2,1.4-0.6,1.9L26.8,9l-3,3.1c1,1.8,1.4,3.9,1.2,5.9s-1.1,4-2.5,5.5"/>
<path class="st0" d="M12.5,7.4l12.1,12.1 M14.7,23.7c0,0.5,0.1,1,0.3,1.5s0.5,0.9,0.8,1.2s0.8,0.6,1.2,0.8c0.5,0.2,1,0.3,1.5,0.3
	s1-0.1,1.5-0.3s0.9-0.5,1.2-0.8s0.6-0.8,0.8-1.2c0.2-0.5,0.3-1,0.3-1.5s-0.1-1-0.3-1.5s-0.5-0.9-0.8-1.2s-0.8-0.6-1.2-0.8
	c-0.5-0.2-1-0.3-1.5-0.3s-1,0.1-1.5,0.3s-0.9,0.5-1.2,0.8c-0.4,0.4-0.6,0.8-0.8,1.2C14.8,22.7,14.7,23.2,14.7,23.7z"/>
</svg>
