<?xml version="1.0" encoding="utf-8"?>
<!-- Generator: Adobe Illustrator 27.0.0, SVG Export Plug-In . SVG Version: 6.00 Build 0)  -->
<svg version="1.1" id="Layer_1" xmlns="http://www.w3.org/2000/svg" xmlns:xlink="http://www.w3.org/1999/xlink" x="0px" y="0px"
	 viewBox="0 0 32 32" style="enable-background:new 0 0 32 32;" xml:space="preserve">
<style type="text/css">
	.st0{fill:#FFFFFF;}
</style>
<g>
	<path class="st0" d="M36.97-6.71c-8.07,0-16.14,0-24.21,0c0-8.07,0-16.13,0-24.21c8.07,0,16.14,0,24.21,0
		C36.97-22.85,36.97-14.78,36.97-6.71z M13.08,22.78c-0.1,0-0.19,0-0.27,0c-0.57,0-1.13,0.02-1.7-0.01
		c-0.69-0.04-1.21-0.35-1.49-1.01c-0.09-0.21-0.17-0.42-0.25-0.64c-0.22-0.56-0.48-1.1-0.99-1.46c-0.04-0.03-0.09-0.1-0.08-0.13
		c0.02-0.05,0.09-0.1,0.13-0.11c0.11-0.01,0.23-0.01,0.32,0.03c0.18,0.08,0.37,0.16,0.51,0.29c0.31,0.29,0.6,0.6,0.89,0.91
		c0.34,0.37,0.74,0.67,1.26,0.66c0.66-0.01,1.32-0.06,1.97-0.12c0.23-0.02,0.41-0.15,0.56-0.35c0.3-0.41,0.67-0.75,1.17-0.91
		c0.05-0.02,0.11-0.04,0.13-0.04c-0.6-0.1-1.22-0.16-1.83-0.3c-1.28-0.3-2.4-0.88-3.15-2.03c-0.04-0.05-0.14-0.09-0.21-0.09
		c-0.96,0.05-1.91,0.11-2.87,0.18c-0.39,0.03-0.77,0.09-1.17,0.14c-0.02-0.17-0.04-0.31-0.07-0.52c1.35-0.11,2.68-0.22,4-0.34
		c-0.02-0.27-0.14-0.4-0.44-0.39c-0.88,0.02-1.76,0-2.64,0.01c-0.32,0-0.64,0.03-0.98,0.05c-0.01-0.16-0.02-0.31-0.03-0.51
		c1.3,0,2.58,0,3.84,0c0.02-0.06,0.03-0.07,0.03-0.08c-0.16-1.1,0.09-2.11,0.71-3.02c0.04-0.05,0.03-0.15,0.02-0.22
		c-0.07-0.42-0.18-0.83-0.23-1.25c-0.06-0.52-0.07-1.04,0.16-1.53c0.09-0.2,0.22-0.29,0.46-0.27c0.83,0.07,1.58,0.35,2.23,0.87
		c0.14,0.11,0.24,0.11,0.4,0.06c1.69-0.6,3.38-0.62,5.07,0.02c0.13,0.05,0.21,0.02,0.31-0.06c0.52-0.42,1.1-0.69,1.75-0.82
		c0.81-0.17,1.08,0.03,1.15,0.87c0,0.01,0,0.02,0,0.02c0.06,0.68-0.05,1.35-0.24,2c-0.04,0.16-0.03,0.27,0.06,0.41
		c0.45,0.66,0.69,1.39,0.65,2.2c-0.01,0.23-0.02,0.46-0.04,0.72c1.33-0.07,2.63-0.06,3.95,0.06c-0.01,0.16-0.02,0.3-0.03,0.45
		c-0.14,0-0.25,0-0.37,0c-1.08-0.01-2.15-0.03-3.23-0.04c-0.44,0-0.44,0.01-0.57,0.43c0,0.01,0.01,0.03,0,0.02
		c1.37,0.11,2.72,0.22,4.11,0.33c-0.04,0.21-0.06,0.36-0.08,0.52c-0.12-0.01-0.22-0.03-0.33-0.04c-1.27-0.09-2.54-0.19-3.81-0.27
		c-0.07,0-0.19,0.05-0.23,0.11c-0.5,0.77-1.19,1.29-2.02,1.64c-0.93,0.4-1.92,0.57-2.88,0.62c0.24,0.13,0.54,0.24,0.78,0.44
		c0.83,0.69,1.32,1.58,1.38,2.66c0.05,0.84,0.01,1.68,0.02,2.52c0,0.13,0,0.25,0.02,0.38c0.08,0.55,0.46,0.77,0.96,0.58
		c5.29-1.97,8.27-7.63,6.9-13.12c-1.13-4.52-4.99-7.87-9.64-8.35c-2.48-0.26-4.81,0.26-6.93,1.57c-3.95,2.44-5.97,6.82-5.15,11.38
		c0.75,4.16,3.21,6.99,7.14,8.54c0.37,0.15,0.56,0.08,0.75-0.27c0.09-0.16,0.14-0.36,0.14-0.54C13.08,24.71,13.08,23.76,13.08,22.78
		z"/>
	<path class="st0" d="M13.08,22.78c0,0.98,0.01,1.92-0.01,2.87c0,0.18-0.06,0.38-0.14,0.54c-0.19,0.35-0.38,0.42-0.75,0.27
		c-3.93-1.56-6.38-4.39-7.14-8.54c-0.83-4.56,1.2-8.94,5.15-11.38c2.12-1.31,4.45-1.83,6.93-1.57c4.65,0.48,8.51,3.83,9.64,8.35
		c1.37,5.49-1.6,11.15-6.9,13.12c-0.51,0.19-0.88-0.03-0.96-0.58c-0.02-0.12-0.02-0.25-0.02-0.38c0-0.84,0.03-1.69-0.02-2.52
		c-0.06-1.08-0.55-1.98-1.38-2.66c-0.23-0.19-0.54-0.3-0.78-0.44c0.96-0.05,1.95-0.22,2.88-0.62c0.83-0.36,1.52-0.88,2.02-1.64
		c0.04-0.06,0.15-0.12,0.23-0.11c1.27,0.08,2.54,0.18,3.81,0.27c0.1,0.01,0.2,0.02,0.33,0.04c0.03-0.16,0.05-0.3,0.08-0.52
		c-1.38-0.11-2.74-0.22-4.11-0.33c0,0.01-0.01-0.01,0-0.02c0.13-0.42,0.13-0.43,0.57-0.43c1.08,0.01,2.15,0.03,3.23,0.04
		c0.12,0,0.23,0,0.37,0c0.01-0.15,0.02-0.29,0.03-0.45c-1.32-0.12-2.63-0.12-3.95-0.06c0.01-0.25,0.02-0.48,0.04-0.72
		c0.04-0.81-0.2-1.54-0.65-2.2c-0.09-0.14-0.11-0.26-0.06-0.41c0.19-0.65,0.3-1.32,0.24-2c0-0.01,0-0.02,0-0.02
		c-0.07-0.84-0.34-1.03-1.15-0.87c-0.65,0.13-1.24,0.41-1.75,0.82c-0.1,0.08-0.18,0.11-0.31,0.06c-1.69-0.64-3.38-0.62-5.07-0.02
		c-0.16,0.06-0.26,0.05-0.4-0.06c-0.65-0.52-1.4-0.8-2.23-0.87c-0.24-0.02-0.37,0.07-0.46,0.27c-0.23,0.49-0.23,1.01-0.16,1.53
		c0.05,0.42,0.16,0.83,0.23,1.25c0.01,0.07,0.02,0.17-0.02,0.22c-0.63,0.92-0.87,1.92-0.71,3.02c0,0.01,0,0.01-0.03,0.08
		c-1.26,0-2.53,0-3.84,0c0.01,0.2,0.02,0.35,0.03,0.51c0.34-0.02,0.66-0.04,0.98-0.05c0.88-0.01,1.76,0.01,2.64-0.01
		c0.3-0.01,0.42,0.12,0.44,0.39c-1.32,0.11-2.65,0.22-4,0.34c0.03,0.21,0.05,0.35,0.07,0.52c0.4-0.05,0.78-0.11,1.17-0.14
		c0.96-0.07,1.91-0.12,2.87-0.18c0.07,0,0.18,0.04,0.21,0.09c0.75,1.15,1.87,1.73,3.15,2.03c0.61,0.14,1.24,0.21,1.83,0.3
		c-0.02,0.01-0.07,0.03-0.13,0.04c-0.5,0.16-0.87,0.5-1.17,0.91c-0.15,0.2-0.33,0.33-0.56,0.35c-0.66,0.05-1.31,0.11-1.97,0.12
		c-0.52,0.01-0.91-0.29-1.26-0.66c-0.29-0.31-0.58-0.62-0.89-0.91c-0.14-0.13-0.33-0.21-0.51-0.29c-0.09-0.04-0.21-0.04-0.32-0.03
		c-0.05,0-0.11,0.06-0.13,0.11c-0.01,0.03,0.04,0.1,0.08,0.13c0.51,0.36,0.78,0.9,0.99,1.46c0.08,0.21,0.16,0.43,0.25,0.64
		c0.28,0.66,0.81,0.97,1.49,1.01c0.56,0.03,1.13,0.01,1.7,0.01C12.89,22.78,12.97,22.78,13.08,22.78z"/>
</g>
</svg>
