<?xml version="1.0" encoding="utf-8"?>
<!-- Generator: Adobe Illustrator 27.0.0, SVG Export Plug-In . SVG Version: 6.00 Build 0)  -->
<svg version="1.1" id="Layer_1" xmlns="http://www.w3.org/2000/svg" xmlns:xlink="http://www.w3.org/1999/xlink" x="0px" y="0px"
	 viewBox="0 0 32 32" style="enable-background:new 0 0 32 32;" xml:space="preserve">
<style type="text/css">
	.st0{fill:#E84135;}
	.st1{fill:#34A853;}
	.st2{fill:#4285F3;}
	.st3{fill:#F9BA09;}
</style>
<g>
	<path class="st0" d="M5.71,10.69c0.66-1.36,1.58-2.54,2.71-3.54c1.85-1.63,4-2.62,6.44-2.9c3.5-0.4,6.61,0.51,9.27,2.88
		c0.02,0.02,0.05,0.04,0.07,0.07c0.01,0.01,0.02,0.03,0.01,0.02c-1.11,1.13-2.22,2.26-3.35,3.4c-0.33-0.29-0.66-0.57-1.04-0.79
		c-2.72-1.67-6.27-1.17-8.54,1.2c-0.74,0.78-1.28,1.68-1.64,2.69c-0.07-0.05-0.15-0.09-0.22-0.14C8.19,12.61,6.95,11.65,5.71,10.69z
		"/>
	<path class="st1" d="M24.17,24.95c-0.89,0.86-1.93,1.51-3.07,1.97c-4.5,1.81-9.89,0.97-13.47-2.85c-0.78-0.83-1.43-1.74-1.92-2.77
		c1.31-1.01,2.62-2.02,3.93-3.03c0.43,1.2,1.1,2.24,2.05,3.09c1.6,1.4,3.46,1.96,5.56,1.73c1.09-0.12,2.11-0.45,3.04-1.04
		c0.03-0.02,0.06-0.02,0.09-0.03c0.51,0.4,1.02,0.81,1.53,1.2C22.66,23.79,23.42,24.37,24.17,24.95z"/>
	<path class="st2" d="M24.17,24.95c-0.75-0.58-1.51-1.16-2.26-1.74c-0.51-0.4-1.02-0.8-1.53-1.2c0.58-0.44,1.11-0.93,1.51-1.54
		c0.42-0.65,0.71-1.34,0.84-2.13c-2.14,0-4.27,0-6.41,0c0-1.52,0-3.02,0-4.54c3.71,0,7.42,0,11.14,0c0.12,0.47,0.17,0.96,0.19,1.45
		c0.13,2.09-0.11,4.13-0.94,6.08C26.12,22.71,25.3,23.94,24.17,24.95z"/>
	<path class="st3" d="M9.64,18.27c-1.31,1.01-2.62,2.02-3.93,3.03c-0.5-0.94-0.84-1.94-1.04-2.98c-0.5-2.61-0.19-5.11,0.97-7.51
		c0.02-0.04,0.05-0.08,0.07-0.12c1.24,0.96,2.48,1.92,3.72,2.88c0.07,0.05,0.15,0.1,0.22,0.14C9.15,15.23,9.16,16.75,9.64,18.27z"/>
</g>
</svg>
