<?xml version="1.0" encoding="utf-8"?>
<!-- Generator: Adobe Illustrator 27.0.0, SVG Export Plug-In . SVG Version: 6.00 Build 0)  -->
<svg version="1.1" id="Layer_1" xmlns="http://www.w3.org/2000/svg" xmlns:xlink="http://www.w3.org/1999/xlink" x="0px" y="0px"
	 viewBox="0 0 40 40" style="enable-background:new 0 0 40 40;" xml:space="preserve">
<rect x="0.09" width="7.49" height="40"/>
<g id="_x32_9ecTj_00000124156713516895240620000011013171353960687530_">
	<g>
		<path d="M19.98,40C9.05,40.04-0.03,31.13,0,19.93C0.03,8.97,9.07-0.4,20.77,0.01c10.36,0.36,19.42,8.97,19.19,20.45
			C39.76,31.21,30.95,40.03,19.98,40z M19.98,21.88c0.24,0,0.48,0,0.72,0c3.31,0,6.62,0,9.93,0c0.65,0,0.85-0.2,0.85-0.86
			c0-0.67,0-1.34,0-2c0-0.68-0.2-0.89-0.87-0.89c-4.58,0-9.16,0-13.74,0c-2.51,0-5.02,0-7.53,0c-0.63,0-0.86,0.23-0.86,0.87
			c0,0.65,0,1.31,0,1.96c0,0.72,0.2,0.93,0.92,0.93C12.93,21.88,16.46,21.88,19.98,21.88z M20,13.57c3.54,0,7.07,0,10.61,0
			c0.71,0,0.88-0.16,0.88-0.86c0-0.67,0-1.33,0-2c0-0.67-0.18-0.84-0.86-0.84c-5.46,0-10.92,0-16.38,0c-1.68,0-3.36,0-5.04,0
			c-0.47,0-0.72,0.24-0.72,0.7c-0.01,0.77-0.02,1.55,0.01,2.32c0.01,0.2,0.16,0.46,0.32,0.58c0.15,0.11,0.4,0.09,0.61,0.09
			C12.95,13.57,16.48,13.57,20,13.57z M19.94,30.15c3.6,0,7.21,0,10.81,0c0.52,0,0.74-0.22,0.74-0.72c0-0.76,0.01-1.52,0-2.28
			c0-0.46-0.23-0.69-0.68-0.69c-7.21,0-14.41,0-21.62,0c-0.48,0-0.7,0.23-0.71,0.71c0,0.71,0,1.41,0,2.12
			c0,0.66,0.19,0.86,0.84,0.86C12.86,30.15,16.4,30.15,19.94,30.15z"/>
	</g>
</g>
<rect x="0.09" y="-0.1" width="39.91" height="8.91"/>
<rect x="32.83" y="-0.1" width="7.1" height="40.1"/>
<rect x="0.29" y="31.24" width="39.71" height="8.81"/>
</svg>
