<?xml version="1.0" encoding="utf-8"?>
<!-- Generator: Adobe Illustrator 27.0.0, SVG Export Plug-In . SVG Version: 6.00 Build 0)  -->
<svg version="1.1" id="Layer_1" xmlns="http://www.w3.org/2000/svg" xmlns:xlink="http://www.w3.org/1999/xlink" x="0px" y="0px"
	 viewBox="0 0 30 30" style="enable-background:new 0 0 30 30;" xml:space="preserve">
<path d="M26.22,15.37L15.85,3.85c-0.44-0.49-1.27-0.49-1.71,0L3.78,15.37c-0.15,0.17-0.25,0.37-0.28,0.59
	c-0.03,0.22,0,0.45,0.09,0.65c0.18,0.42,0.6,0.68,1.05,0.68h2.3v8.07c0,0.31,0.12,0.6,0.34,0.81c0.22,0.22,0.51,0.34,0.81,0.34h3.45
	c0.31,0,0.6-0.12,0.81-0.34c0.22-0.22,0.34-0.51,0.34-0.81v-4.61h4.61v4.61c0,0.31,0.12,0.6,0.34,0.81
	c0.22,0.22,0.51,0.34,0.81,0.34h3.45c0.31,0,0.6-0.12,0.81-0.34c0.22-0.22,0.34-0.51,0.34-0.81V17.3h2.3c0.22,0,0.44-0.06,0.63-0.18
	c0.19-0.12,0.34-0.29,0.43-0.5c0.09-0.2,0.12-0.43,0.08-0.65C26.46,15.74,26.37,15.54,26.22,15.37z"/>
</svg>
