<svg width="30" height="30" viewBox="0 0 30 30" fill="none" xmlns="http://www.w3.org/2000/svg">
<path d="M29.6112 15.486L16.1127 0.475125C15.5442 -0.158334 14.4524 -0.158334 13.8839 0.475125L0.385433 15.486C0.191139 15.7016 0.0636056 15.969 0.01834 16.2557C-0.0269255 16.5424 0.0120268 16.8362 0.130461 17.1012C0.370434 17.6431 0.907374 17.9913 1.49981 17.9913H4.49947V28.4989C4.49947 28.8971 4.65749 29.2789 4.93876 29.5604C5.22004 29.8419 5.60152 30 5.9993 30H10.4988C10.8966 30 11.2781 29.8419 11.5593 29.5604C11.8406 29.2789 11.9986 28.8971 11.9986 28.4989V22.4946H17.998V28.4989C17.998 28.8971 18.156 29.2789 18.4373 29.5604C18.7185 29.8419 19.1 30 19.4978 30H23.9973C24.3951 30 24.7766 29.8419 25.0578 29.5604C25.3391 29.2789 25.4971 28.8971 25.4971 28.4989V17.9913H28.4968C28.7873 17.9926 29.0718 17.9092 29.3158 17.7514C29.5597 17.5936 29.7525 17.3681 29.8706 17.1025C29.9888 16.8369 30.0271 16.5427 29.9811 16.2557C29.935 15.9686 29.8065 15.7012 29.6112 15.486Z" fill="white"/>
</svg>
