<?xml version="1.0" encoding="utf-8"?>
<!-- Generator: Adobe Illustrator 27.0.0, SVG Export Plug-In . SVG Version: 6.00 Build 0)  -->
<svg version="1.1" id="Layer_1" xmlns="http://www.w3.org/2000/svg" xmlns:xlink="http://www.w3.org/1999/xlink" x="0px" y="0px"
	 viewBox="0 0 30 30" style="enable-background:new 0 0 30 30;" xml:space="preserve">
<style type="text/css">
	.st0{fill-rule:evenodd;clip-rule:evenodd;fill:#FFFFFF;}
</style>
<path class="st0" d="M15,5.54c-0.06,0.11-0.13,0.23-0.21,0.37l-0.1,0.19l-0.02,0.04c-0.08,0.15-0.22,0.4-0.45,0.58
	c-0.23,0.18-0.52,0.24-0.68,0.27L13.49,7l-0.2,0.05c-0.19,0.04-0.34,0.08-0.46,0.11c0.08,0.1,0.19,0.23,0.33,0.4l0.14,0.16
	l0.03,0.04c0.11,0.13,0.3,0.34,0.38,0.62c0.08,0.27,0.05,0.55,0.04,0.72c0,0.02,0,0.03-0.01,0.05l-0.02,0.21
	c-0.02,0.16-0.03,0.32-0.04,0.49c0.11-0.05,0.24-0.11,0.38-0.17l0.19-0.09l0.04-0.02c0.15-0.07,0.41-0.2,0.71-0.2
	s0.56,0.12,0.71,0.2l0.04,0.02l0.19,0.09c0.15,0.07,0.27,0.13,0.38,0.17c-0.01-0.16-0.03-0.32-0.04-0.49l-0.02-0.21
	c0-0.02,0-0.03-0.01-0.05c-0.02-0.18-0.05-0.45,0.04-0.72c0.08-0.27,0.27-0.49,0.38-0.62l0.03-0.04l0.14-0.16
	c0.14-0.17,0.25-0.29,0.33-0.4c-0.13-0.03-0.28-0.07-0.46-0.11L16.51,7l-0.05-0.01c-0.16-0.03-0.45-0.1-0.68-0.27
	c-0.23-0.17-0.37-0.42-0.45-0.58L15.31,6.1l-0.1-0.19C15.13,5.77,15.06,5.64,15,5.54z M13.96,4.24C14.14,4,14.47,3.66,15,3.66
	S15.86,4,16.04,4.24c0.17,0.23,0.35,0.54,0.53,0.86l0.02,0.04l0.1,0.19l0.06,0.11l0.1,0.02l0.2,0.05l0.05,0.01
	c0.35,0.08,0.69,0.16,0.95,0.26c0.29,0.12,0.69,0.34,0.84,0.83c0.15,0.48-0.04,0.89-0.2,1.15C18.55,8,18.31,8.27,18.08,8.54
	l-0.03,0.04l-0.14,0.16l-0.09,0.1c0,0.04,0.01,0.08,0.01,0.14l0.02,0.21l0,0.05c0.04,0.37,0.07,0.73,0.06,1.02
	c-0.01,0.3-0.08,0.76-0.49,1.07c-0.42,0.32-0.89,0.25-1.18,0.17c-0.27-0.08-0.59-0.23-0.92-0.37l-0.05-0.02l-0.19-0.09L15,10.97
	l-0.09,0.04l-0.19,0.09l-0.05,0.02c-0.32,0.15-0.64,0.3-0.92,0.37c-0.3,0.08-0.76,0.16-1.18-0.17c-0.41-0.31-0.48-0.77-0.49-1.07
	c-0.01-0.29,0.02-0.65,0.06-1.02l0-0.05l0.02-0.21l0.01-0.14c-0.03-0.03-0.06-0.07-0.09-0.1l-0.14-0.16l-0.03-0.04
	c-0.24-0.28-0.47-0.55-0.62-0.79c-0.16-0.26-0.35-0.67-0.2-1.15c0.15-0.49,0.55-0.71,0.84-0.83c0.26-0.1,0.61-0.18,0.95-0.26
	l0.05-0.01l0.2-0.05l0.11-0.02l0.06-0.11l0.1-0.19l0.02-0.04C13.61,4.78,13.79,4.46,13.96,4.24z M13.89,12.1h2.21
	c0.7,0,1.31,0,1.79,0.07c0.52,0.07,1.02,0.23,1.42,0.63c0.4,0.4,0.56,0.9,0.63,1.42c0.07,0.48,0.07,1.09,0.07,1.79v2.6
	c0.17-0.05,0.35-0.09,0.53-0.11c0.48-0.07,1.09-0.07,1.79-0.07h0.1c0.7,0,1.31,0,1.79,0.07c0.52,0.07,1.02,0.23,1.42,0.63
	c0.4,0.4,0.56,0.9,0.63,1.42c0.07,0.48,0.07,1.09,0.07,1.79v3.22c0,0.21-0.08,0.41-0.23,0.56c-0.15,0.15-0.35,0.23-0.56,0.23
	c-0.21,0-0.41-0.08-0.56-0.23c-0.15-0.15-0.23-0.35-0.23-0.56v-3.17c0-0.77,0-1.27-0.05-1.63c-0.05-0.34-0.12-0.45-0.18-0.51
	c-0.06-0.06-0.17-0.14-0.51-0.18c-0.37-0.05-0.86-0.05-1.63-0.05c-0.77,0-1.27,0-1.63,0.05c-0.34,0.05-0.45,0.12-0.51,0.18
	c-0.06,0.06-0.14,0.17-0.18,0.51c-0.05,0.37-0.05,0.86-0.05,1.63v3.17c0,0.21-0.08,0.41-0.23,0.56c-0.15,0.15-0.35,0.23-0.56,0.23
	c-0.21,0-0.41-0.08-0.56-0.23c-0.15-0.15-0.23-0.35-0.23-0.56v-9.5c0-0.77,0-1.27-0.05-1.63c-0.05-0.34-0.12-0.45-0.18-0.51
	c-0.06-0.06-0.17-0.14-0.51-0.18c-0.37-0.05-0.86-0.05-1.63-0.05h-2.11c-0.77,0-1.27,0-1.63,0.05c-0.34,0.05-0.45,0.12-0.51,0.18
	c-0.06,0.06-0.14,0.17-0.18,0.51c-0.05,0.37-0.05,0.86-0.05,1.63v9.5c0,0.21-0.08,0.41-0.23,0.56c-0.15,0.15-0.35,0.23-0.56,0.23
	c-0.21,0-0.41-0.08-0.56-0.23c-0.15-0.15-0.23-0.35-0.23-0.56c0-0.77,0-1.27-0.05-1.63c-0.05-0.34-0.12-0.45-0.18-0.51
	c-0.06-0.06-0.17-0.14-0.51-0.18c-0.37-0.05-0.86-0.05-1.63-0.05c-0.77,0-1.27,0-1.63,0.05c-0.34,0.05-0.45,0.12-0.51,0.18
	c-0.06,0.06-0.14,0.17-0.18,0.51c-0.05,0.37-0.05,0.86-0.05,1.63c0,0.21-0.08,0.41-0.23,0.56c-0.15,0.15-0.35,0.23-0.56,0.23
	c-0.21,0-0.41-0.08-0.56-0.23c-0.15-0.15-0.23-0.35-0.23-0.56V25.5c0-0.7,0-1.31,0.07-1.79c0.07-0.52,0.23-1.02,0.63-1.42
	c0.4-0.4,0.9-0.56,1.42-0.63c0.48-0.07,1.09-0.07,1.79-0.07h0.1c0.7,0,1.31,0,1.79,0.07c0.18,0.02,0.36,0.06,0.53,0.11V16
	c0-0.7,0-1.31,0.07-1.79c0.07-0.52,0.23-1.02,0.63-1.42c0.4-0.4,0.9-0.56,1.42-0.63C12.59,12.1,13.19,12.1,13.89,12.1z"/>
</svg>
