<?xml version="1.0" standalone="no"?>
<!DOCTYPE svg PUBLIC "-//W3C//DTD SVG 20010904//EN"
 "http://www.w3.org/TR/2001/REC-SVG-20010904/DTD/svg10.dtd">
<svg version="1.0" xmlns="http://www.w3.org/2000/svg"
 width="710.000000pt" height="710.000000pt" viewBox="0 0 710.000000 710.000000"
 preserveAspectRatio="xMidYMid meet">

<g transform="translate(0.000000,710.000000) scale(0.100000,-0.100000)"
fill="#000000" stroke="none">
<path d="M3160 6392 c-143 -38 -233 -123 -322 -302 l-56 -115 26 -48 c14 -27
41 -61 59 -77 41 -36 43 -53 6 -44 -30 8 -108 67 -122 93 -8 13 -16 14 -58 3
-26 -7 -62 -10 -79 -6 -38 7 -50 -6 -74 -87 -21 -68 -21 -186 -1 -252 27 -86
140 -167 233 -167 27 0 84 11 126 24 42 13 103 31 135 40 31 9 57 19 57 22 0
3 -8 18 -19 32 -45 65 -54 96 -62 217 -4 66 -12 140 -19 165 -10 39 -9 53 7
99 24 72 57 96 130 96 51 0 57 -3 90 -39 32 -35 35 -42 29 -82 -7 -55 4 -56
52 -4 80 89 134 100 219 44 67 -45 127 -71 180 -80 37 -6 41 -4 45 18 8 43 -8
141 -32 191 -49 103 -188 222 -295 252 -86 24 -182 27 -255 7z"/>
<path d="M4998 6083 c18 -2 45 -2 60 0 15 2 0 4 -33 4 -33 0 -45 -2 -27 -4z"/>
<path d="M3077 6012 c-37 -41 -46 -100 -22 -146 9 -18 15 -57 15 -105 0 -133
36 -228 112 -298 61 -57 147 -65 220 -20 88 54 242 284 264 394 5 27 3 34 -12
39 -54 17 -82 31 -142 71 -36 23 -72 43 -78 43 -7 0 -39 -23 -71 -51 -72 -63
-112 -83 -148 -69 -23 9 -25 14 -25 69 0 41 -5 65 -16 75 -21 21 -77 20 -97
-2z"/>
<path d="M1995 5899 c-105 -22 -149 -35 -263 -76 -67 -24 -192 -78 -278 -119
-85 -40 -159 -74 -165 -74 -15 0 -11 -9 38 -84 27 -39 89 -153 139 -253 l90
-183 119 68 c130 73 243 170 296 253 31 47 51 60 63 40 14 -21 -61 -139 -134
-211 -74 -73 -109 -97 -337 -225 -57 -31 -103 -59 -103 -60 0 -6 267 -188 324
-221 56 -33 200 -94 220 -94 6 0 20 31 29 68 37 144 137 263 285 340 387 202
792 7 792 -380 0 -95 -23 -171 -75 -250 -19 -28 -22 -38 -11 -38 16 0 52 41
61 71 4 10 14 19 23 19 14 0 14 2 3 9 -32 20 76 138 207 224 34 23 62 46 62
52 0 23 -362 605 -376 605 -4 0 -50 -14 -103 -31 -77 -25 -106 -29 -146 -24
-111 13 -211 91 -263 203 -36 78 -38 228 -5 313 l22 56 -91 7 c-124 8 -374 6
-423 -5z"/>
<path d="M1220 5592 c-8 -3 -25 -9 -38 -13 l-23 -9 29 -53 c16 -28 63 -111
105 -183 42 -72 93 -166 114 -208 20 -42 42 -76 48 -76 5 0 20 8 33 18 l23 18
-26 59 c-37 86 -78 162 -169 316 -58 96 -85 134 -96 131z"/>
<path d="M1002 5460 c-249 -132 -322 -213 -322 -358 0 -78 13 -119 55 -172 70
-86 163 -143 615 -373 151 -77 292 -155 313 -172 21 -18 79 -54 130 -80 117
-60 139 -76 162 -119 23 -43 45 -53 62 -30 19 25 16 43 -12 96 -29 55 -30 58
-10 58 19 0 54 -38 71 -78 17 -37 42 -52 55 -31 15 24 10 62 -16 118 -28 59
-27 68 3 52 25 -13 46 -46 62 -96 16 -52 25 -61 45 -45 24 20 19 98 -10 157
-45 89 -134 158 -305 238 -58 26 -123 59 -145 73 -87 54 -227 150 -365 251
-153 111 -198 137 -270 156 -34 8 -45 16 -45 31 0 16 8 20 48 22 56 4 128 -26
197 -81 25 -20 47 -32 49 -26 8 25 -240 459 -263 459 -6 0 -53 -23 -104 -50z"/>
<path d="M2560 5073 c-46 -7 -154 -44 -205 -70 -68 -34 -132 -84 -185 -145
l-43 -51 25 -46 c15 -25 46 -76 70 -112 24 -37 70 -115 103 -174 52 -93 165
-276 184 -297 8 -9 148 35 205 64 65 33 168 114 212 165 83 98 119 201 112
321 -14 235 -224 387 -478 345z"/>
<path d="M2095 4698 c-35 -86 -37 -92 -27 -96 54 -18 151 -111 184 -177 23
-46 41 -133 35 -170 -5 -33 -5 -34 59 -59 96 -39 114 -33 75 22 -49 69 -131
204 -149 245 -11 26 -34 66 -51 91 -17 24 -48 76 -69 115 l-39 71 -18 -42z"/>
<path d="M837 4596 c-91 -200 -171 -454 -179 -565 l-3 -34 520 2 c286 2 522 4
524 7 2 2 -9 18 -25 36 -48 55 -95 134 -101 171 -5 31 -1 39 37 75 l41 41 -53
27 c-29 15 -166 84 -304 154 -139 70 -283 146 -322 169 -39 23 -72 41 -75 41
-2 0 -29 -56 -60 -124z"/>
<path d="M3314 4661 c-49 -33 -111 -82 -138 -109 l-49 -51 36 -6 c32 -6 43 -2
109 47 40 30 94 69 121 87 51 35 57 49 29 74 -17 16 -24 14 -108 -42z"/>
<path d="M3421 4571 c-19 -17 -64 -45 -100 -62 -98 -48 -108 -52 -119 -45 -12
7 -112 -100 -112 -121 0 -28 182 -252 262 -321 76 -67 154 -103 288 -133 167
-39 438 -89 590 -110 81 -11 87 -14 120 -52 75 -87 129 -134 204 -176 74 -42
80 -44 105 -30 17 10 27 24 29 45 3 26 -6 39 -58 89 -33 33 -63 68 -66 79 -10
30 23 48 71 40 61 -10 104 -36 191 -115 136 -123 224 -171 253 -136 9 12 10
21 2 35 -13 24 -248 243 -306 285 -45 32 -195 106 -289 141 -33 13 -117 45
-186 70 -122 46 -405 161 -585 237 -49 21 -93 44 -96 51 -4 7 -12 24 -18 38
-19 43 -126 213 -137 217 -5 2 -25 -10 -43 -26z"/>
<path d="M6280 4364 c-63 -25 -146 -56 -185 -71 -38 -14 -95 -36 -125 -49 -30
-12 -95 -37 -145 -56 -93 -36 -92 -36 -133 -123 -42 -89 -294 -586 -337 -663
-33 -58 -42 -83 -33 -86 7 -3 92 -7 188 -11 96 -3 191 -8 210 -11 l35 -5 52
103 c100 198 295 564 365 686 39 68 68 125 65 128 -5 5 -167 -46 -212 -67 -11
-5 -66 -24 -122 -44 -114 -39 -168 -48 -168 -26 0 12 71 39 485 185 36 13 73
27 83 31 31 13 20 -21 -47 -143 -35 -64 -91 -171 -126 -237 -34 -66 -73 -138
-85 -160 -12 -22 -51 -94 -85 -160 -35 -66 -94 -177 -131 -246 -38 -70 -69
-134 -69 -142 0 -23 -11 -47 -21 -47 -5 0 -9 15 -9 33 0 18 -5 38 -11 44 -7 7
-260 9 -827 6 -674 -3 -819 -6 -831 -18 -19 -19 -17 -62 4 -85 18 -20 35 -20
809 -19 862 1 910 3 951 51 12 14 66 109 120 210 54 100 160 298 235 438 185
342 270 515 270 544 0 24 -12 38 -40 48 -9 3 -67 -14 -130 -38z"/>
<path d="M1698 4242 c-33 -10 -48 -21 -48 -33 0 -25 87 -139 106 -139 9 0 48
23 86 51 79 59 79 62 -15 109 -68 34 -65 34 -129 12z"/>
<path d="M1876 4050 c-56 -41 -64 -50 -44 -50 13 0 33 7 44 15 10 8 26 15 34
15 8 0 35 10 60 21 l45 20 -25 14 c-14 8 -30 14 -35 15 -6 0 -41 -22 -79 -50z"/>
<path d="M2060 4080 c-9 -6 -10 -10 -3 -10 6 0 15 5 18 10 8 12 4 12 -15 0z"/>
<path d="M5184 4035 c-69 -35 -85 -121 -33 -180 27 -30 37 -35 75 -35 103 0
156 128 82 197 -32 29 -86 37 -124 18z"/>
<path d="M640 3869 c0 -37 5 -103 11 -146 37 -271 252 -516 498 -568 85 -18
280 -20 581 -6 113 6 306 13 430 16 124 3 252 10 285 14 33 5 108 12 167 16
101 6 107 6 117 -14 10 -18 8 -21 -26 -30 -21 -5 -55 -12 -75 -15 -21 -3 -53
-8 -72 -11 l-34 -5 -11 -83 c-6 -45 -20 -134 -31 -197 -11 -63 -27 -167 -35
-230 -19 -138 -50 -335 -70 -445 -7 -44 -21 -129 -30 -190 -9 -60 -23 -150
-31 -200 -8 -49 -16 -109 -19 -132 l-5 -43 380 2 c334 2 380 4 385 17 2 9 9
50 15 91 6 41 19 127 30 190 11 63 33 203 50 310 17 107 39 249 50 315 10 66
28 197 40 290 12 94 25 190 30 215 17 91 22 264 10 345 -29 196 -186 392 -384
480 -29 13 -111 36 -182 50 l-129 27 -972 3 -973 3 0 -69z"/>
<path d="M4640 3710 c0 -5 18 -24 40 -41 44 -36 66 -91 56 -143 l-5 -31 30 35
c52 60 55 79 17 117 -34 33 -138 81 -138 63z"/>
<path d="M2310 3098 c-41 -5 -212 -12 -380 -16 l-305 -8 76 -36 c41 -20 129
-57 195 -83 215 -83 246 -98 285 -135 22 -21 39 -46 39 -58 0 -12 -2 -22 -4
-22 -3 0 -49 22 -103 49 -54 27 -115 55 -135 62 l-37 13 -123 -84 c-68 -46
-311 -209 -541 -363 l-418 -279 19 -22 c11 -11 62 -77 114 -146 52 -69 123
-161 159 -205 35 -44 91 -115 124 -157 53 -68 62 -75 80 -66 22 12 366 238
730 480 l230 153 6 60 c14 150 95 694 125 843 6 31 6 32 -27 31 -19 -1 -68 -6
-109 -11z"/>
<path d="M4985 3050 l-1390 -5 -3 -45 c-3 -33 1 -47 14 -57 14 -10 301 -13
1466 -13 l1447 0 21 22 c27 29 26 73 -2 92 -16 12 -42 15 -93 14 -38 -2 -695
-5 -1460 -8z"/>
<path d="M4697 2903 c-16 -15 -4 -44 44 -107 l51 -68 -24 -26 c-12 -15 -26
-29 -29 -32 -5 -5 -67 -88 -319 -431 -74 -101 -157 -213 -184 -249 -27 -36
-93 -126 -146 -200 -53 -75 -125 -173 -159 -219 l-61 -83 0 702 0 703 -31 -7
c-17 -3 -35 -6 -40 -6 -5 0 -9 -463 -9 -1064 0 -1151 -3 -1092 52 -1084 23 3
23 5 28 163 l5 160 124 160 c302 388 532 693 726 965 176 246 247 340 255 340
4 0 10 -10 14 -22 3 -13 56 -89 118 -169 62 -80 134 -175 160 -210 137 -187
235 -320 274 -369 38 -48 143 -193 254 -351 l35 -50 -4 -133 c-2 -115 -1 -135
14 -150 10 -9 27 -16 39 -14 20 3 21 8 21 133 0 244 5 405 13 404 9 -1 103
-121 180 -231 34 -48 79 -111 102 -139 71 -91 72 -95 74 -284 1 -93 6 -178 10
-188 8 -17 51 -24 60 -9 7 12 19 2114 11 2133 -4 12 -15 14 -43 10 l-37 -6 3
-807 c2 -444 1 -812 -3 -818 -3 -5 -53 55 -111 135 -57 80 -126 173 -152 208
-27 34 -65 85 -84 114 -33 47 -35 55 -27 95 10 51 12 743 2 944 l-6 140 -33 0
-34 -1 0 -517 c0 -285 -4 -518 -9 -518 -9 0 -229 292 -366 485 -43 61 -99 137
-125 170 -26 33 -63 84 -84 114 l-36 53 32 38 c48 54 128 167 128 179 0 6 -13
11 -28 11 -37 0 -139 -103 -148 -150 -4 -17 -10 -29 -14 -28 -4 2 -42 42 -85
91 -61 68 -84 87 -105 87 -50 0 -47 -16 22 -107 l39 -52 -43 -55 c-24 -30 -45
-55 -48 -55 -3 0 -21 25 -40 55 -58 92 -182 224 -211 224 -3 0 -9 -3 -12 -7z
m501 -336 c64 -91 229 -317 453 -618 l185 -249 -2 -112 c-2 -61 -5 -112 -6
-114 -2 -1 -45 59 -97 134 -51 75 -141 200 -199 278 -59 77 -164 217 -235 311
-114 153 -149 197 -258 326 l-31 37 27 38 c16 20 39 49 53 64 l26 28 18 -28
c10 -15 40 -57 66 -95z m-314 65 c20 -24 36 -48 36 -52 0 -5 -46 -71 -103
-147 -95 -128 -155 -209 -312 -428 -69 -96 -150 -205 -320 -432 -66 -88 -146
-196 -177 -239 -32 -44 -75 -99 -98 -124 l-40 -44 0 111 c0 61 4 113 8 115 5
2 48 57 97 123 193 261 261 354 340 460 45 61 122 164 171 231 49 66 139 187
199 268 61 81 119 161 130 177 11 16 23 28 26 26 4 -1 23 -22 43 -45z"/>
<path d="M660 2031 c-37 -12 -90 -40 -129 -69 -33 -25 -33 -25 -27 -86 10 -87
70 -204 146 -286 80 -85 98 -123 115 -237 23 -151 62 -217 166 -284 63 -40
126 -57 241 -65 54 -4 98 -10 98 -13 0 -22 -31 -31 -103 -31 -139 0 -242 38
-335 123 -66 62 -89 110 -108 222 -22 139 -36 169 -117 255 -80 83 -126 162
-151 260 -9 36 -19 71 -21 78 -4 9 -14 8 -44 -8 -73 -37 -79 -87 -24 -199 30
-60 58 -97 138 -177 113 -113 135 -155 153 -290 15 -106 57 -177 142 -238 71
-51 117 -72 211 -96 152 -40 264 -16 303 64 34 70 1 125 -119 200 -70 43 -90
93 -81 210 3 49 11 118 17 153 6 35 10 66 8 67 -2 2 -32 6 -65 9 -110 8 -218
74 -270 162 -35 60 -40 124 -16 213 l20 72 -62 -1 c-33 0 -72 -4 -86 -8z"/>
<path d="M847 1947 c-9 -30 -17 -64 -17 -76 0 -56 57 -139 125 -181 59 -36
175 -48 175 -18 0 10 -97 139 -176 233 -23 28 -47 60 -53 73 -19 36 -36 26
-54 -31z"/>
<path d="M2341 1526 c-27 -32 62 -140 124 -152 49 -9 113 -1 158 21 36 17 147
121 147 137 0 4 -94 8 -209 8 -168 0 -211 -3 -220 -14z"/>
<path d="M2770 1432 c-31 -32 -80 -70 -110 -87 -49 -27 -64 -30 -140 -30 -80
0 -88 2 -132 33 -26 18 -61 53 -79 78 -24 36 -33 43 -44 34 -19 -16 -50 -101
-66 -184 -12 -63 -12 -71 6 -104 23 -42 72 -78 127 -92 24 -7 90 -8 176 -4
149 7 219 -4 304 -47 56 -29 155 -36 373 -26 99 4 198 6 220 5 l40 -3 -45 -24
c-44 -24 -50 -25 -295 -25 l-250 -1 -65 29 c-63 29 -70 30 -270 36 -224 6
-251 13 -311 72 -40 40 -59 31 -59 -27 0 -57 19 -96 65 -131 55 -41 146 -50
353 -34 l171 13 53 -24 c51 -23 61 -24 303 -24 l250 0 52 28 c77 40 100 97 69
171 -18 44 -58 73 -123 91 -29 8 -77 22 -107 30 -74 21 -191 101 -304 209 -52
50 -97 92 -101 93 -3 0 -31 -24 -61 -55z"/>
<path d="M830 845 c7 -8 17 -15 22 -15 5 0 3 7 -6 15 -8 8 -18 15 -22 15 -3 0
-1 -7 6 -15z"/>
<path d="M4215 850 c3 -5 8 -10 11 -10 2 0 4 5 4 10 0 6 -5 10 -11 10 -5 0 -7
-4 -4 -10z"/>
<path d="M3665 840 c-3 -5 -1 -10 4 -10 6 0 11 5 11 10 0 6 -2 10 -4 10 -3 0
-8 -4 -11 -10z"/>
<path d="M3725 840 c3 -5 8 -10 11 -10 2 0 4 5 4 10 0 6 -5 10 -11 10 -5 0 -7
-4 -4 -10z"/>
<path d="M2085 810 c3 -5 8 -10 11 -10 2 0 4 5 4 10 0 6 -5 10 -11 10 -5 0 -7
-4 -4 -10z"/>
<path d="M5025 810 c-3 -5 -1 -10 4 -10 6 0 11 5 11 10 0 6 -2 10 -4 10 -3 0
-8 -4 -11 -10z"/>
<path d="M5190 799 c0 -5 5 -7 10 -4 6 3 10 8 10 11 0 2 -4 4 -10 4 -5 0 -10
-5 -10 -11z"/>
<path d="M5270 802 c0 -6 9 -12 20 -15 11 -3 20 -3 20 -1 0 2 -9 8 -20 14 -11
6 -20 7 -20 2z"/>
<path d="M6050 796 c0 -2 7 -9 15 -16 9 -7 15 -8 15 -2 0 5 -7 12 -15 16 -8 3
-15 4 -15 2z"/>
<path d="M2120 780 c0 -13 18 -22 24 -11 3 5 -1 11 -9 15 -8 3 -15 1 -15 -4z"/>
<path d="M3710 781 c0 -6 5 -13 10 -16 6 -3 10 1 10 9 0 9 -4 16 -10 16 -5 0
-10 -4 -10 -9z"/>
<path d="M5220 779 c0 -5 5 -7 10 -4 6 3 10 8 10 11 0 2 -4 4 -10 4 -5 0 -10
-5 -10 -11z"/>
<path d="M756 761 c-4 -5 -2 -12 3 -15 5 -4 12 -2 15 3 4 5 2 12 -3 15 -5 4
-12 2 -15 -3z"/>
<path d="M4062 756 c7 -8 15 -12 17 -11 5 6 -10 25 -20 25 -5 0 -4 -6 3 -14z"/>
<path d="M5125 760 c3 -5 8 -10 11 -10 2 0 4 5 4 10 0 6 -5 10 -11 10 -5 0 -7
-4 -4 -10z"/>
<path d="M6100 740 c0 -5 7 -10 16 -10 8 0 12 5 9 10 -3 6 -10 10 -16 10 -5 0
-9 -4 -9 -10z"/>
<path d="M790 730 c0 -5 5 -10 11 -10 5 0 7 5 4 10 -3 6 -8 10 -11 10 -2 0 -4
-4 -4 -10z"/>
<path d="M4500 730 c-13 -8 -12 -10 3 -10 9 0 17 5 17 10 0 12 -1 12 -20 0z"/>
<path d="M872 714 c-14 -16 -5 -18 17 -5 7 5 9 11 5 14 -5 3 -15 -1 -22 -9z"/>
<path d="M1935 720 c3 -5 8 -10 11 -10 2 0 4 5 4 10 0 6 -5 10 -11 10 -5 0 -7
-4 -4 -10z"/>
<path d="M2150 720 c0 -5 5 -10 11 -10 5 0 7 5 4 10 -3 6 -8 10 -11 10 -2 0
-4 -4 -4 -10z"/>
<path d="M3440 720 c0 -5 5 -10 11 -10 5 0 7 5 4 10 -3 6 -8 10 -11 10 -2 0
-4 -4 -4 -10z"/>
<path d="M4347 719 c7 -7 15 -10 18 -7 3 3 -2 9 -12 12 -14 6 -15 5 -6 -5z"/>
<path d="M4410 719 c0 -5 5 -7 10 -4 6 3 10 8 10 11 0 2 -4 4 -10 4 -5 0 -10
-5 -10 -11z"/>
<path d="M2210 710 c0 -5 5 -10 10 -10 6 0 10 5 10 10 0 6 -4 10 -10 10 -5 0
-10 -4 -10 -10z"/>
<path d="M3360 710 c0 -5 5 -10 10 -10 6 0 10 5 10 10 0 6 -4 10 -10 10 -5 0
-10 -4 -10 -10z"/>
<path d="M4160 710 c0 -5 5 -10 10 -10 6 0 10 5 10 10 0 6 -4 10 -10 10 -5 0
-10 -4 -10 -10z"/>
<path d="M5210 710 c0 -5 5 -10 10 -10 6 0 10 5 10 10 0 6 -4 10 -10 10 -5 0
-10 -4 -10 -10z"/>
<path d="M5368 713 c7 -3 16 -2 19 1 4 3 -2 6 -13 5 -11 0 -14 -3 -6 -6z"/>
<path d="M5520 710 c0 -5 5 -10 10 -10 6 0 10 5 10 10 0 6 -4 10 -10 10 -5 0
-10 -4 -10 -10z"/>
<path d="M815 700 c3 -5 8 -10 11 -10 2 0 4 5 4 10 0 6 -5 10 -11 10 -5 0 -7
-4 -4 -10z"/>
<path d="M1326 701 c-3 -5 1 -11 9 -14 9 -4 12 -1 8 9 -6 16 -10 17 -17 5z"/>
<path d="M2935 700 c3 -5 8 -10 11 -10 2 0 4 5 4 10 0 6 -5 10 -11 10 -5 0 -7
-4 -4 -10z"/>
<path d="M3710 700 c0 -5 5 -10 10 -10 6 0 10 5 10 10 0 6 -4 10 -10 10 -5 0
-10 -4 -10 -10z"/>
<path d="M755 690 c-3 -5 -1 -10 4 -10 6 0 11 5 11 10 0 6 -2 10 -4 10 -3 0
-8 -4 -11 -10z"/>
<path d="M3170 690 c0 -5 5 -10 10 -10 6 0 10 5 10 10 0 6 -4 10 -10 10 -5 0
-10 -4 -10 -10z"/>
<path d="M3310 689 c0 -5 5 -7 10 -4 6 3 10 8 10 11 0 2 -4 4 -10 4 -5 0 -10
-5 -10 -11z"/>
<path d="M4910 690 c0 -5 5 -10 10 -10 6 0 10 5 10 10 0 6 -4 10 -10 10 -5 0
-10 -4 -10 -10z"/>
<path d="M5140 689 c0 -5 5 -7 10 -4 6 3 10 8 10 11 0 2 -4 4 -10 4 -5 0 -10
-5 -10 -11z"/>
<path d="M5775 690 c-3 -5 -1 -10 4 -10 6 0 11 5 11 10 0 6 -2 10 -4 10 -3 0
-8 -4 -11 -10z"/>
<path d="M1635 680 c3 -5 11 -10 16 -10 6 0 7 5 4 10 -3 6 -11 10 -16 10 -6 0
-7 -4 -4 -10z"/>
<path d="M4695 680 c3 -5 8 -10 11 -10 2 0 4 5 4 10 0 6 -5 10 -11 10 -5 0 -7
-4 -4 -10z"/>
<path d="M1287 666 c-4 -10 -1 -13 9 -9 15 6 19 23 5 23 -5 0 -11 -7 -14 -14z"/>
<path d="M2070 672 c0 -5 7 -15 15 -22 8 -7 15 -9 15 -6 0 4 -7 14 -15 22 -8
9 -15 11 -15 6z"/>
<path d="M3510 676 c0 -2 8 -10 18 -17 15 -13 16 -12 3 4 -13 16 -21 21 -21
13z"/>
<path d="M4557 672 c-3 -4 1 -13 9 -19 7 -7 15 -9 17 -5 3 4 -1 13 -9 19 -7 7
-15 9 -17 5z"/>
<path d="M5170 670 c0 -5 5 -10 10 -10 6 0 10 5 10 10 0 6 -4 10 -10 10 -5 0
-10 -4 -10 -10z"/>
<path d="M1860 661 c0 -6 4 -13 10 -16 6 -3 7 1 4 9 -7 18 -14 21 -14 7z"/>
<path d="M2435 660 c-3 -5 -1 -10 4 -10 6 0 11 5 11 10 0 6 -2 10 -4 10 -3 0
-8 -4 -11 -10z"/>
<path d="M3210 661 c0 -10 19 -25 25 -20 1 2 -3 10 -11 17 -8 7 -14 8 -14 3z"/>
<path d="M3285 660 c-3 -5 -1 -10 4 -10 6 0 11 5 11 10 0 6 -2 10 -4 10 -3 0
-8 -4 -11 -10z"/>
<path d="M3440 660 c0 -5 5 -10 11 -10 5 0 7 5 4 10 -3 6 -8 10 -11 10 -2 0
-4 -4 -4 -10z"/>
<path d="M3606 657 c3 -10 9 -15 12 -12 3 3 0 11 -7 18 -10 9 -11 8 -5 -6z"/>
<path d="M3670 659 c0 -5 5 -7 10 -4 6 3 10 8 10 11 0 2 -4 4 -10 4 -5 0 -10
-5 -10 -11z"/>
<path d="M4165 660 c3 -5 11 -10 16 -10 6 0 7 5 4 10 -3 6 -11 10 -16 10 -6 0
-7 -4 -4 -10z"/>
<path d="M4410 656 c0 -9 5 -16 10 -16 6 0 10 4 10 9 0 6 -4 13 -10 16 -5 3
-10 -1 -10 -9z"/>
<path d="M4790 660 c0 -5 5 -10 10 -10 6 0 10 5 10 10 0 6 -4 10 -10 10 -5 0
-10 -4 -10 -10z"/>
<path d="M4945 660 c-3 -5 -1 -10 4 -10 6 0 11 5 11 10 0 6 -2 10 -4 10 -3 0
-8 -4 -11 -10z"/>
<path d="M5110 659 c0 -5 5 -7 10 -4 6 3 10 8 10 11 0 2 -4 4 -10 4 -5 0 -10
-5 -10 -11z"/>
<path d="M5570 660 c0 -5 5 -10 11 -10 5 0 7 5 4 10 -3 6 -8 10 -11 10 -2 0
-4 -4 -4 -10z"/>
<path d="M1615 650 c-3 -5 -1 -10 4 -10 6 0 11 5 11 10 0 6 -2 10 -4 10 -3 0
-8 -4 -11 -10z"/>
<path d="M2592 640 c7 -11 16 -20 20 -20 5 0 3 9 -4 20 -7 11 -16 20 -20 20
-5 0 -3 -9 4 -20z"/>
<path d="M4245 650 c3 -5 8 -10 11 -10 2 0 4 5 4 10 0 6 -5 10 -11 10 -5 0 -7
-4 -4 -10z"/>
<path d="M640 640 c0 -5 5 -10 10 -10 6 0 10 5 10 10 0 6 -4 10 -10 10 -5 0
-10 -4 -10 -10z"/>
<path d="M1175 640 c-3 -5 -1 -10 4 -10 6 0 11 5 11 10 0 6 -2 10 -4 10 -3 0
-8 -4 -11 -10z"/>
<path d="M3125 640 c-3 -5 1 -10 10 -10 9 0 13 5 10 10 -3 6 -8 10 -10 10 -2
0 -7 -4 -10 -10z"/>
<path d="M4750 640 c0 -5 5 -10 10 -10 6 0 10 5 10 10 0 6 -4 10 -10 10 -5 0
-10 -4 -10 -10z"/>
<path d="M2280 630 c0 -5 5 -10 11 -10 5 0 7 5 4 10 -3 6 -8 10 -11 10 -2 0
-4 -4 -4 -10z"/>
<path d="M3485 630 c3 -5 8 -10 11 -10 2 0 4 5 4 10 0 6 -5 10 -11 10 -5 0 -7
-4 -4 -10z"/>
<path d="M4150 632 c0 -5 7 -15 15 -22 8 -7 15 -9 15 -6 0 4 -7 14 -15 22 -8
9 -15 11 -15 6z"/>
<path d="M4210 632 c0 -12 19 -26 26 -19 2 2 -2 10 -11 17 -9 8 -15 8 -15 2z"/>
<path d="M4530 626 c0 -9 5 -16 10 -16 6 0 10 4 10 9 0 6 -4 13 -10 16 -5 3
-10 -1 -10 -9z"/>
<path d="M4660 630 c0 -5 5 -10 11 -10 5 0 7 5 4 10 -3 6 -8 10 -11 10 -2 0
-4 -4 -4 -10z"/>
<path d="M4980 630 c0 -5 5 -10 11 -10 5 0 7 5 4 10 -3 6 -8 10 -11 10 -2 0
-4 -4 -4 -10z"/>
<path d="M5035 630 c-3 -5 -1 -10 4 -10 6 0 11 5 11 10 0 6 -2 10 -4 10 -3 0
-8 -4 -11 -10z"/>
<path d="M5140 630 c0 -5 5 -10 10 -10 6 0 10 5 10 10 0 6 -4 10 -10 10 -5 0
-10 -4 -10 -10z"/>
<path d="M5600 630 c0 -5 5 -10 11 -10 5 0 7 5 4 10 -3 6 -8 10 -11 10 -2 0
-4 -4 -4 -10z"/>
<path d="M5828 633 c7 -3 16 -2 19 1 4 3 -2 6 -13 5 -11 0 -14 -3 -6 -6z"/>
<path d="M6130 630 c0 -5 5 -10 11 -10 5 0 7 5 4 10 -3 6 -8 10 -11 10 -2 0
-4 -4 -4 -10z"/>
<path d="M1207 623 c-4 -3 -7 -11 -7 -17 0 -6 5 -5 12 2 6 6 9 14 7 17 -3 3
-9 2 -12 -2z"/>
<path d="M1340 624 c0 -7 27 -34 34 -34 13 0 5 16 -14 28 -11 7 -20 10 -20 6z"/>
<path d="M2390 620 c-9 -6 -10 -10 -3 -10 6 0 15 5 18 10 8 12 4 12 -15 0z"/>
<path d="M3585 620 c-3 -5 -1 -10 4 -10 6 0 11 5 11 10 0 6 -2 10 -4 10 -3 0
-8 -4 -11 -10z"/>
<path d="M3640 621 c0 -6 5 -13 10 -16 6 -3 10 1 10 9 0 9 -4 16 -10 16 -5 0
-10 -4 -10 -9z"/>
<path d="M3720 620 c0 -5 5 -10 11 -10 5 0 7 5 4 10 -3 6 -8 10 -11 10 -2 0
-4 -4 -4 -10z"/>
<path d="M4005 620 c3 -5 8 -10 11 -10 2 0 4 5 4 10 0 6 -5 10 -11 10 -5 0 -7
-4 -4 -10z"/>
<path d="M4595 620 c-3 -5 1 -10 9 -10 9 0 16 5 16 10 0 6 -4 10 -9 10 -6 0
-13 -4 -16 -10z"/>
<path d="M4825 620 c3 -5 8 -10 11 -10 2 0 4 5 4 10 0 6 -5 10 -11 10 -5 0 -7
-4 -4 -10z"/>
<path d="M5220 620 c0 -5 5 -10 10 -10 6 0 10 5 10 10 0 6 -4 10 -10 10 -5 0
-10 -4 -10 -10z"/>
<path d="M5307 623 c-9 -2 -15 -9 -12 -14 9 -14 22 -11 29 6 3 8 4 14 3 14 -1
-1 -10 -3 -20 -6z"/>
<path d="M5380 620 c0 -5 5 -10 10 -10 6 0 10 5 10 10 0 6 -4 10 -10 10 -5 0
-10 -4 -10 -10z"/>
<path d="M5535 620 c3 -5 10 -10 16 -10 5 0 9 5 9 10 0 6 -7 10 -16 10 -8 0
-12 -4 -9 -10z"/>
<path d="M6045 620 c3 -5 8 -10 11 -10 2 0 4 5 4 10 0 6 -5 10 -11 10 -5 0 -7
-4 -4 -10z"/>
<path d="M675 610 c-3 -6 1 -7 9 -4 18 7 21 14 7 14 -6 0 -13 -4 -16 -10z"/>
<path d="M1427 614 c-3 -5 1 -15 9 -22 16 -14 18 -5 5 17 -5 7 -11 9 -14 5z"/>
<path d="M1915 610 c3 -5 8 -10 11 -10 2 0 4 5 4 10 0 6 -5 10 -11 10 -5 0 -7
-4 -4 -10z"/>
<path d="M2567 609 c7 -7 15 -10 18 -7 3 3 -2 9 -12 12 -14 6 -15 5 -6 -5z"/>
<path d="M3330 609 c0 -5 5 -7 10 -4 6 3 10 8 10 11 0 2 -4 4 -10 4 -5 0 -10
-5 -10 -11z"/>
<path d="M4465 610 c-3 -5 -1 -10 4 -10 6 0 11 5 11 10 0 6 -2 10 -4 10 -3 0
-8 -4 -11 -10z"/>
<path d="M1115 600 c3 -5 8 -10 11 -10 2 0 4 5 4 10 0 6 -5 10 -11 10 -5 0 -7
-4 -4 -10z"/>
<path d="M1500 600 c0 -5 5 -10 11 -10 5 0 7 5 4 10 -3 6 -8 10 -11 10 -2 0
-4 -4 -4 -10z"/>
<path d="M1605 601 c-3 -5 -1 -12 5 -16 5 -3 10 1 10 9 0 18 -6 21 -15 7z"/>
<path d="M2135 600 c3 -5 8 -10 11 -10 2 0 4 5 4 10 0 6 -5 10 -11 10 -5 0 -7
-4 -4 -10z"/>
<path d="M2317 599 c7 -7 15 -10 18 -7 3 3 -2 9 -12 12 -14 6 -15 5 -6 -5z"/>
<path d="M3088 603 c7 -3 16 -2 19 1 4 3 -2 6 -13 5 -11 0 -14 -3 -6 -6z"/>
<path d="M3160 599 c0 -5 5 -7 10 -4 6 3 10 8 10 11 0 2 -4 4 -10 4 -5 0 -10
-5 -10 -11z"/>
<path d="M4640 601 c0 -6 4 -13 10 -16 6 -3 7 1 4 9 -7 18 -14 21 -14 7z"/>
<path d="M4775 600 c3 -5 8 -10 11 -10 2 0 4 5 4 10 0 6 -5 10 -11 10 -5 0 -7
-4 -4 -10z"/>
<path d="M5765 600 c3 -5 8 -10 11 -10 2 0 4 5 4 10 0 6 -5 10 -11 10 -5 0 -7
-4 -4 -10z"/>
<path d="M2255 590 c-3 -5 -1 -10 4 -10 6 0 11 5 11 10 0 6 -2 10 -4 10 -3 0
-8 -4 -11 -10z"/>
<path d="M5500 590 c0 -5 5 -10 11 -10 5 0 7 5 4 10 -3 6 -8 10 -11 10 -2 0
-4 -4 -4 -10z"/>
<path d="M5630 596 c0 -2 7 -9 15 -16 13 -11 14 -10 9 4 -5 14 -24 23 -24 12z"/>
<path d="M640 580 c0 -5 5 -10 10 -10 6 0 10 5 10 10 0 6 -4 10 -10 10 -5 0
-10 -4 -10 -10z"/>
<path d="M705 580 c-3 -5 1 -10 9 -10 9 0 16 5 16 10 0 6 -4 10 -9 10 -6 0
-13 -4 -16 -10z"/>
<path d="M2440 580 c0 -5 7 -10 15 -10 8 0 15 5 15 10 0 6 -7 10 -15 10 -8 0
-15 -4 -15 -10z"/>
<path d="M3355 580 c3 -5 8 -10 11 -10 2 0 4 5 4 10 0 6 -5 10 -11 10 -5 0 -7
-4 -4 -10z"/>
<path d="M3410 580 c0 -5 5 -10 10 -10 6 0 10 5 10 10 0 6 -4 10 -10 10 -5 0
-10 -4 -10 -10z"/>
<path d="M3670 580 c0 -5 7 -7 15 -4 8 4 15 8 15 10 0 2 -7 4 -15 4 -8 0 -15
-4 -15 -10z"/>
<path d="M3770 580 c0 -5 5 -10 11 -10 5 0 7 5 4 10 -3 6 -8 10 -11 10 -2 0
-4 -4 -4 -10z"/>
<path d="M4195 580 c3 -5 8 -10 11 -10 2 0 4 5 4 10 0 6 -5 10 -11 10 -5 0 -7
-4 -4 -10z"/>
<path d="M4565 580 c3 -5 10 -10 16 -10 5 0 9 5 9 10 0 6 -7 10 -16 10 -8 0
-12 -4 -9 -10z"/>
<path d="M5415 580 c3 -5 8 -10 11 -10 2 0 4 5 4 10 0 6 -5 10 -11 10 -5 0 -7
-4 -4 -10z"/>
<path d="M6270 580 c0 -5 5 -10 11 -10 5 0 7 5 4 10 -3 6 -8 10 -11 10 -2 0
-4 -4 -4 -10z"/>
<path d="M1395 570 c3 -5 8 -10 11 -10 2 0 4 5 4 10 0 6 -5 10 -11 10 -5 0 -7
-4 -4 -10z"/>
<path d="M1865 570 c3 -5 8 -10 11 -10 2 0 4 5 4 10 0 6 -5 10 -11 10 -5 0 -7
-4 -4 -10z"/>
<path d="M3050 576 c0 -2 7 -7 16 -10 8 -3 12 -2 9 4 -6 10 -25 14 -25 6z"/>
<path d="M3190 570 c0 -5 5 -10 10 -10 6 0 10 5 10 10 0 6 -4 10 -10 10 -5 0
-10 -4 -10 -10z"/>
<path d="M1725 559 c-4 -6 -5 -12 -2 -15 2 -3 7 2 10 11 7 17 1 20 -8 4z"/>
<path d="M2395 560 c3 -5 8 -10 11 -10 2 0 4 5 4 10 0 6 -5 10 -11 10 -5 0 -7
-4 -4 -10z"/>
<path d="M4530 551 c0 -5 7 -11 14 -14 10 -4 13 -1 9 9 -6 15 -23 19 -23 5z"/>
<path d="M4600 550 c0 -5 5 -10 10 -10 6 0 10 5 10 10 0 6 -4 10 -10 10 -5 0
-10 -4 -10 -10z"/>
<path d="M5545 550 c3 -5 8 -10 11 -10 2 0 4 5 4 10 0 6 -5 10 -11 10 -5 0 -7
-4 -4 -10z"/>
<path d="M2365 540 c3 -5 8 -10 11 -10 2 0 4 5 4 10 0 6 -5 10 -11 10 -5 0 -7
-4 -4 -10z"/>
<path d="M3085 540 c3 -5 8 -10 11 -10 2 0 4 5 4 10 0 6 -5 10 -11 10 -5 0 -7
-4 -4 -10z"/>
<path d="M3127 509 c7 -7 15 -10 18 -7 3 3 -2 9 -12 12 -14 6 -15 5 -6 -5z"/>
<path d="M3190 509 c0 -5 5 -7 10 -4 6 3 10 8 10 11 0 2 -4 4 -10 4 -5 0 -10
-5 -10 -11z"/>
<path d="M4570 510 c0 -5 5 -10 10 -10 6 0 10 5 10 10 0 6 -4 10 -10 10 -5 0
-10 -4 -10 -10z"/>
<path d="M2530 499 c0 -5 5 -7 10 -4 6 3 10 8 10 11 0 2 -4 4 -10 4 -5 0 -10
-5 -10 -11z"/>
<path d="M4415 440 c3 -5 8 -10 11 -10 2 0 4 5 4 10 0 6 -5 10 -11 10 -5 0 -7
-4 -4 -10z"/>
</g>
</svg>
