<?xml version="1.0" encoding="utf-8"?>
<!-- Generator: Adobe Illustrator 27.0.0, SVG Export Plug-In . SVG Version: 6.00 Build 0)  -->
<svg version="1.1" id="Layer_1" xmlns="http://www.w3.org/2000/svg" xmlns:xlink="http://www.w3.org/1999/xlink" x="0px" y="0px"
	 viewBox="0 0 30 30" style="enable-background:new 0 0 30 30;" xml:space="preserve">
<style type="text/css">
	.st0{fill-rule:evenodd;clip-rule:evenodd;fill:#FFFFFF;}
</style>
<path class="st0" d="M19.65,10.14c0.08-0.08,0.18-0.14,0.29-0.18c0.11-0.04,0.22-0.06,0.34-0.06s0.23,0.03,0.33,0.07
	s0.2,0.11,0.28,0.2l4.06,4.23c0.16,0.16,0.24,0.38,0.24,0.6c0,0.23-0.09,0.44-0.24,0.6l-4.06,4.23c-0.08,0.08-0.17,0.15-0.28,0.2
	c-0.11,0.05-0.22,0.07-0.33,0.07c-0.11,0-0.23-0.02-0.34-0.06c-0.11-0.04-0.2-0.1-0.29-0.18c-0.08-0.08-0.15-0.17-0.2-0.28
	c-0.05-0.11-0.07-0.22-0.07-0.33c0-0.11,0.02-0.23,0.06-0.34c0.04-0.11,0.1-0.2,0.18-0.29l2.64-2.76h-8.11
	c-0.23,0-0.45-0.09-0.62-0.26c-0.16-0.16-0.26-0.39-0.26-0.62c0-0.23,0.09-0.45,0.26-0.62c0.16-0.16,0.39-0.26,0.62-0.26h8.11
	l-2.65-2.76c-0.16-0.17-0.25-0.39-0.24-0.62C19.38,10.52,19.48,10.3,19.65,10.14"/>
<path class="st0" d="M4.81,5.69c0-0.23,0.09-0.45,0.26-0.62C5.23,4.9,5.45,4.81,5.69,4.81h11.01c0.23,0,0.45,0.09,0.62,0.26
	c0.16,0.16,0.26,0.39,0.26,0.62v3.49c0,0.23-0.09,0.45-0.26,0.62c-0.16,0.16-0.39,0.26-0.62,0.26s-0.45-0.09-0.62-0.26
	c-0.16-0.16-0.26-0.39-0.26-0.62V6.56H6.56v16.88h9.26v-2.62c0-0.23,0.09-0.45,0.26-0.62c0.16-0.16,0.39-0.26,0.62-0.26
	s0.45,0.09,0.62,0.26c0.16,0.16,0.26,0.39,0.26,0.62v3.49c0,0.23-0.09,0.45-0.26,0.62c-0.16,0.16-0.39,0.26-0.62,0.26H5.69
	c-0.23,0-0.45-0.09-0.62-0.26s-0.26-0.39-0.26-0.62V5.69z"/>
</svg>
