<svg width="30" height="30" viewBox="0 0 30 30" fill="none" xmlns="http://www.w3.org/2000/svg">
<path fill-rule="evenodd" clip-rule="evenodd" d="M21.8405 7.83937C21.9622 7.72223 22.1059 7.63023 22.2632 7.56863C22.4205 7.50704 22.5885 7.47706 22.7574 7.4804C22.9263 7.48374 23.0929 7.52035 23.2477 7.58812C23.4025 7.65589 23.5424 7.7535 23.6594 7.87537L29.6424 14.1102C29.8719 14.3496 30 14.6684 30 14.9999C30 15.3315 29.8719 15.6503 29.6424 15.8897L23.6594 22.1245C23.5424 22.2463 23.4026 22.3439 23.248 22.4116C23.0933 22.4794 22.9268 22.516 22.758 22.5195C22.5892 22.5229 22.4213 22.493 22.2641 22.4316C22.1068 22.3701 21.9631 22.2783 21.8413 22.1614C21.7196 22.0444 21.622 21.9046 21.5542 21.75C21.4865 21.5953 21.4498 21.4288 21.4464 21.26C21.443 21.0912 21.4728 20.9234 21.5343 20.7661C21.5957 20.6088 21.6875 20.4652 21.8045 20.3434L25.6977 16.2857H13.754C13.413 16.2857 13.086 16.1502 12.8448 15.9091C12.6037 15.668 12.4683 15.3409 12.4683 14.9999C12.4683 14.659 12.6037 14.3319 12.8448 14.0908C13.086 13.8497 13.413 13.7142 13.754 13.7142H25.6994L21.8045 9.65652C21.5686 9.41048 21.4401 9.08088 21.4472 8.74014C21.4543 8.3994 21.5964 8.07541 21.8422 7.83937" fill="white"/>
<path fill-rule="evenodd" clip-rule="evenodd" d="M0 1.28571C0 0.944722 0.135462 0.617695 0.376586 0.376577C0.61771 0.135459 0.944745 0 1.28575 0H17.4947C17.8357 0 18.1627 0.135459 18.4039 0.376577C18.645 0.617695 18.7805 0.944722 18.7805 1.28571V6.42857C18.7805 6.76956 18.645 7.09659 18.4039 7.33771C18.1627 7.57883 17.8357 7.71429 17.4947 7.71429C17.1537 7.71429 16.8267 7.57883 16.5856 7.33771C16.3444 7.09659 16.209 6.76956 16.209 6.42857V2.57143H2.57149V27.4286H16.2073V23.5714C16.2073 23.2304 16.3427 22.9034 16.5838 22.6623C16.825 22.4212 17.152 22.2857 17.493 22.2857C17.834 22.2857 18.161 22.4212 18.4022 22.6623C18.6433 22.9034 18.7787 23.2304 18.7787 23.5714V28.7143C18.7787 29.0553 18.6433 29.3823 18.4022 29.6234C18.161 29.8645 17.834 30 17.493 30H1.28575C0.944745 30 0.61771 29.8645 0.376586 29.6234C0.135462 29.3823 0 29.0553 0 28.7143V1.28571Z" fill="white"/>
</svg>
