<?xml version="1.0" standalone="no"?>
<!DOCTYPE svg PUBLIC "-//W3C//DTD SVG 20010904//EN"
 "http://www.w3.org/TR/2001/REC-SVG-20010904/DTD/svg10.dtd">
<svg version="1.0" xmlns="http://www.w3.org/2000/svg"
 width="59.000000pt" height="86.000000pt" viewBox="0 0 59.000000 86.000000"
 preserveAspectRatio="xMidYMid meet">

<g transform="translate(0.000000,86.000000) scale(0.100000,-0.100000)"
fill="#000000" stroke="none">
<path d="M422 807 c-29 -30 -30 -89 -2 -117 29 -29 90 -27 118 3 30 32 29 87
-1 115 -32 30 -87 29 -115 -1z m43 -17 c3 -6 -1 -13 -10 -16 -19 -8 -30 0 -20
15 8 14 22 14 30 1z"/>
<path d="M172 764 c-65 -32 -108 -84 -129 -153 -25 -87 -6 -177 50 -238 20
-22 27 -23 199 -23 l178 0 30 47 c39 62 53 116 45 171 -10 70 -12 72 -67 72
-66 0 -108 38 -108 98 0 47 -8 52 -89 52 -41 0 -71 -7 -109 -26z"/>
<path d="M164 317 c11 -6 28 -20 38 -29 25 -24 30 -23 26 10 -3 24 -7 27 -43
29 -35 2 -38 1 -21 -10z"/>
<path d="M257 323 c-4 -3 -7 -31 -8 -62 0 -31 -6 -93 -13 -139 -6 -45 -10 -85
-7 -87 2 -3 31 -5 64 -5 l60 0 -6 42 c-4 24 -12 91 -18 151 -12 106 -12 107
-39 107 -15 0 -30 -3 -33 -7z"/>
<path d="M350 300 l0 -29 35 22 c44 28 44 37 0 37 -32 0 -35 -2 -35 -30z"/>
<path d="M105 240 c-4 -7 -3 -16 3 -22 14 -14 45 -2 40 15 -6 16 -34 21 -43 7z"/>
<path d="M430 230 c0 -13 7 -20 20 -20 13 0 20 7 20 20 0 13 -7 20 -20 20 -13
0 -20 -7 -20 -20z"/>
</g>
</svg>
