<?xml version="1.0" encoding="utf-8"?>
<!-- Generator: Adobe Illustrator 27.0.0, SVG Export Plug-In . SVG Version: 6.00 Build 0)  -->
<svg version="1.1" id="Layer_1" xmlns="http://www.w3.org/2000/svg" xmlns:xlink="http://www.w3.org/1999/xlink" x="0px" y="0px"
	 viewBox="0 0 40 40" style="enable-background:new 0 0 40 40;" xml:space="preserve">
<style type="text/css">
	.st0{fill:#FFFFFF;}
</style>
<path d="M92-127.61H69.52c-1.28,0-2.51,0.64-3.41,1.78s-1.41,2.69-1.42,4.3v26.08c0,1.61,0.51,3.16,1.42,4.3
	c0.91,1.14,2.13,1.78,3.41,1.78h28.97c1.28,0,2.51-0.64,3.41-1.78s1.41-2.69,1.42-4.3v-17.91c0.15-5.02,0,0,0.15-5.02
	c-0.15-9.24,0,0-0.15-9.24l-18.46,22.24C84.6-105.13,84.31-105,84-105s-0.6-0.13-0.85-0.37l-12.41-12.17
	c-0.15-0.14-0.27-0.31-0.36-0.51c-0.09-0.2-0.15-0.42-0.18-0.65c-0.02-0.23-0.01-0.46,0.04-0.68s0.13-0.43,0.24-0.61
	s0.25-0.33,0.41-0.45c0.16-0.11,0.33-0.19,0.52-0.21s0.37-0.01,0.54,0.06c0.18,0.06,0.34,0.17,0.48,0.31L84-108.94l15.61-18.66"/>
<g id="uGUbh4_00000091718489226495161000000016087605267476887691_">
	<g>
		<path class="st0" d="M18.85,6.55c0.76,0,1.52,0,2.28,0c0.47,0.08,0.94,0.14,1.4,0.24c5,0.98,8.52,3.74,10.22,8.61
			c0.36,1.04,0.47,2.16,0.71,3.24c0,0.68,0,1.35,0,2.03c-0.04,0.18-0.09,0.34-0.11,0.52c-0.38,3.29-1.77,6.07-4.3,8.2
			c-3.69,3.11-7.95,3.85-12.6,2.85c-0.37-0.08-0.81-0.12-1.15,0.01c-0.94,0.35-1.85,0.8-2.78,1.22c-0.16,0-0.32,0-0.48,0
			c-0.64-0.25-0.88-0.74-0.85-1.41c0.03-0.56-0.04-1.12-0.03-1.68c0-0.55-0.21-0.97-0.62-1.35c-1.63-1.51-2.78-3.33-3.39-5.45
			c-0.27-0.95-0.41-1.93-0.61-2.9c0-0.72,0-1.43,0-2.16c0.05-0.31,0.1-0.62,0.15-0.93c1.02-5.56,4.3-9.06,9.72-10.56
			C17.2,6.79,18.03,6.7,18.85,6.55z M22.34,23.89c0.89-0.09,1.46-0.52,1.89-1.22c1.23-1.95,2.46-3.9,3.7-5.85
			c0.24-0.36,0.4-0.73,0.01-1.06c-0.36-0.3-0.7-0.13-1.02,0.13c-1.27,0.97-2.55,1.91-3.81,2.89c-0.51,0.4-0.94,0.39-1.44,0
			c-0.92-0.73-1.86-1.42-2.81-2.12c-1.12-0.81-2.34-0.59-3.08,0.58c-1.27,1.98-2.5,3.97-3.76,5.95c-0.22,0.34-0.38,0.69-0.02,1.02
			c0.38,0.34,0.73,0.14,1.06-0.12c1.27-0.97,2.55-1.91,3.8-2.9c0.49-0.38,0.91-0.37,1.39-0.01c0.94,0.73,1.89,1.46,2.87,2.14
			C21.49,23.59,21.93,23.72,22.34,23.89z"/>
	</g>
</g>
</svg>
