<?xml version="1.0" standalone="no"?>
<!DOCTYPE svg PUBLIC "-//W3C//DTD SVG 20010904//EN"
 "http://www.w3.org/TR/2001/REC-SVG-20010904/DTD/svg10.dtd">
<svg version="1.0" xmlns="http://www.w3.org/2000/svg"
 width="466.000000pt" height="280.000000pt" viewBox="0 0 466.000000 280.000000"
 preserveAspectRatio="xMidYMid meet">

<g transform="translate(0.000000,280.000000) scale(0.100000,-0.100000)"
fill="#000000" stroke="none">
<path d="M1913 2090 c-3 -11 -12 -20 -19 -20 -11 0 -14 -19 -14 -85 0 -69 -3
-85 -15 -85 -8 0 -15 -7 -15 -15 0 -8 -9 -15 -20 -15 -11 0 -20 -7 -20 -15 0
-8 -7 -15 -15 -15 -8 0 -15 -9 -15 -21 0 -17 -5 -20 -37 -17 -35 3 -38 6 -41
36 -2 20 -9 32 -18 32 -8 0 -14 7 -14 15 0 8 -7 15 -15 15 -11 0 -15 -12 -15
-50 0 -38 4 -50 15 -50 13 0 21 -25 16 -52 0 -5 8 -8 19 -8 16 0 20 -7 20 -35
0 -24 5 -35 15 -35 8 0 15 -6 15 -14 0 -7 9 -16 20 -19 17 -4 20 -14 20 -56 0
-50 1 -51 30 -51 20 0 30 5 30 15 0 8 -7 15 -15 15 -8 0 -15 9 -15 20 0 11 6
20 14 20 7 0 16 9 19 20 7 25 37 26 37 1 0 -11 9 -21 21 -24 12 -3 18 -10 14
-16 -4 -7 7 -11 29 -11 40 0 51 24 16 33 -14 3 -20 14 -20 32 0 18 6 29 20 32
11 3 20 12 20 19 0 8 7 14 15 14 11 0 15 12 15 48 0 27 3 51 6 55 10 9 34 -4
34 -19 0 -8 7 -14 15 -14 10 0 15 10 15 34 0 31 -2 33 -32 32 -24 0 -34 4 -36
17 -3 15 6 17 67 17 56 0 71 3 71 15 0 11 -12 15 -50 15 -43 0 -50 3 -50 20 0
18 7 20 68 20 l67 0 -3 65 c-3 48 -7 65 -18 65 -8 0 -14 9 -14 20 0 19 -7 20
-116 20 -107 0 -116 -1 -121 -20z m67 -71 c0 -25 -33 -22 -38 4 -2 12 3 17 17
17 15 0 21 -6 21 -21z"/>
<path d="M2320 1735 c0 -43 -4 -75 -10 -75 -5 0 -10 18 -10 41 0 28 -4 39 -12
37 -8 -3 -13 -23 -13 -54 0 -42 3 -50 23 -59 21 -9 23 -15 19 -52 -4 -41 -3
-43 22 -43 25 0 26 3 23 38 -3 33 0 41 22 56 23 14 26 23 26 71 0 42 -3 55
-15 55 -11 0 -15 -12 -15 -45 0 -25 -4 -45 -10 -45 -6 0 -10 32 -10 75 0 68
-2 75 -20 75 -18 0 -20 -7 -20 -75z"/>
<path d="M3067 1784 c-4 -4 -8 -39 -8 -78 -2 -57 -3 -63 -8 -32 -9 57 -28 57
-33 0 -3 -39 0 -49 19 -64 17 -13 23 -28 23 -59 0 -41 5 -46 34 -35 11 4 16
19 16 43 0 28 5 38 23 46 19 9 22 18 22 65 0 42 -3 55 -15 55 -10 0 -16 -14
-20 -45 -4 -40 -5 -36 -10 30 -4 57 -9 76 -20 78 -9 1 -19 0 -23 -4z"/>
<path d="M2778 1533 c6 -2 18 -2 25 0 6 3 1 5 -13 5 -14 0 -19 -2 -12 -5z"/>
<path d="M2113 1513 c9 -2 23 -2 30 0 6 3 -1 5 -18 5 -16 0 -22 -2 -12 -5z"/>
<path d="M1270 1240 c-19 -19 -20 -33 -20 -233 0 -210 0 -214 23 -235 21 -20
34 -22 124 -22 86 0 104 3 127 21 l26 20 0 213 c0 267 7 256 -153 256 -94 0
-109 -2 -127 -20z m180 -235 l0 -165 -50 0 -50 0 0 165 0 165 50 0 50 0 0
-165z"/>
<path d="M1630 1005 l0 -255 50 0 50 0 0 105 0 105 70 0 70 0 0 45 0 45 -70 0
-70 0 0 60 0 60 85 0 85 0 0 45 0 45 -135 0 -135 0 0 -255z"/>
<path d="M1950 1005 l0 -255 50 0 50 0 0 105 0 105 70 0 70 0 0 45 0 45 -70 0
-70 0 0 60 0 60 85 0 85 0 0 45 0 45 -135 0 -135 0 0 -255z"/>
<path d="M2260 1005 l0 -255 123 0 122 0 0 45 0 45 -72 0 -73 0 0 210 0 210
-50 0 -50 0 0 -255z"/>
<path d="M2550 1005 l0 -255 50 0 50 0 0 255 0 255 -50 0 -50 0 0 -255z"/>
<path d="M2740 1005 l0 -255 51 0 50 0 -3 155 c-2 85 -1 155 2 155 3 0 23 -70
44 -155 l38 -155 69 0 69 0 0 255 0 255 -50 0 -49 0 -3 -157 -3 -158 -39 158
-40 157 -68 0 -68 0 0 -255z"/>
<path d="M3150 1005 l0 -255 135 0 135 0 0 45 0 45 -85 0 -85 0 0 60 0 60 70
0 70 0 0 45 0 45 -70 0 -70 0 0 60 0 60 85 0 85 0 0 45 0 45 -135 0 -135 0 0
-255z"/>
<path d="M2112 90 c0 -25 2 -39 5 -32 3 9 9 10 18 2 9 -8 11 -5 7 15 -2 14 -8
23 -12 20 -5 -3 -11 5 -13 17 -2 13 -5 3 -5 -22z"/>
<path d="M2485 121 c-4 -7 0 -8 10 -4 10 3 21 0 27 -8 8 -12 9 -11 5 1 -5 18
-33 25 -42 11z"/>
<path d="M2550 110 c0 -11 7 -20 15 -20 21 0 19 -28 -2 -33 -17 -4 -17 -5 0
-6 25 -1 34 29 14 44 -22 16 -21 22 1 28 13 4 11 5 -5 6 -17 1 -23 -5 -23 -19z"/>
<path d="M2616 122 c-2 -4 4 -8 15 -8 10 0 19 4 19 8 0 4 -6 8 -14 8 -8 0 -17
-4 -20 -8z"/>
<path d="M2676 121 c-3 -5 2 -7 12 -4 15 4 19 -1 19 -27 0 -26 -4 -31 -20 -26
-14 3 -17 2 -9 -6 20 -20 42 -1 39 34 -2 32 -28 51 -41 29z"/>
<path d="M2741 117 c-9 -11 -8 -17 3 -26 8 -7 12 -20 9 -29 -3 -10 1 -8 11 6
28 36 6 83 -23 49z m29 -12 c0 -8 -4 -15 -9 -15 -13 0 -22 16 -14 24 11 11 23
6 23 -9z"/>
<path d="M2818 123 c7 -3 16 -2 19 1 4 3 -2 6 -13 5 -11 0 -14 -3 -6 -6z"/>
<path d="M2863 114 c-4 -10 0 -22 10 -29 12 -9 14 -14 5 -23 -7 -7 -8 -12 -2
-12 16 0 38 46 31 64 -8 21 -36 20 -44 0z m37 -10 c0 -9 -5 -14 -12 -12 -18 6
-21 28 -4 28 9 0 16 -7 16 -16z"/>
<path d="M2942 105 c-22 -28 -23 -30 -5 -34 10 -2 21 -8 24 -13 10 -15 16 14
10 47 l-6 29 -23 -29z m14 -22 c-10 -10 -19 5 -10 18 6 11 8 11 12 0 2 -7 1
-15 -2 -18z"/>
<path d="M3007 123 c22 -4 22 -6 8 -33 -22 -42 -17 -51 5 -10 25 46 25 50 -7
49 -24 -2 -25 -2 -6 -6z"/>
<path d="M3057 116 c-3 -8 0 -20 8 -26 8 -6 11 -19 8 -28 -3 -10 1 -8 11 6 10
12 16 30 14 40 -4 21 -34 28 -41 8z m33 -11 c0 -8 -4 -15 -9 -15 -13 0 -22 16
-14 24 11 11 23 6 23 -9z"/>
<path d="M1731 88 c-1 -30 3 -38 17 -38 11 0 13 3 5 8 -6 4 -13 21 -16 37 -4
27 -4 27 -6 -7z"/>
<path d="M1771 88 c-1 -30 3 -38 17 -38 11 0 13 3 5 8 -6 4 -13 21 -16 37 -4
27 -4 27 -6 -7z"/>
<path d="M1958 115 c-7 -7 3 -65 11 -65 4 0 5 16 3 35 -4 36 -5 38 -14 30z"/>
<path d="M1565 100 c-4 -6 -2 -17 5 -24 8 -11 8 -15 -2 -19 -8 -4 -7 -6 5 -6
9 -1 17 6 17 14 0 8 -5 15 -11 15 -6 0 -9 7 -5 15 6 17 0 20 -9 5z"/>
<path d="M1639 78 c4 -28 6 -29 9 -9 2 13 0 27 -5 32 -6 6 -7 -3 -4 -23z"/>
<path d="M2000 95 c-7 -8 -9 -22 -6 -31 8 -22 41 -13 42 11 1 15 0 16 -3 3 -5
-21 -33 -24 -33 -5 0 7 5 18 12 25 7 7 9 12 6 12 -3 0 -11 -7 -18 -15z"/>
<path d="M2061 96 c-14 -17 -4 -46 17 -46 13 0 12 3 -3 14 -16 12 -17 16 -6
30 7 9 11 16 8 16 -2 0 -10 -6 -16 -14z"/>
<path d="M2252 101 c-20 -12 -10 -46 13 -46 13 0 20 7 21 20 1 15 0 16 -3 3
-5 -21 -33 -24 -33 -5 0 7 5 18 12 25 14 14 9 15 -10 3z"/>
<path d="M2369 78 c4 -28 6 -29 9 -9 2 13 0 27 -5 32 -6 6 -7 -3 -4 -23z"/>
<path d="M2800 99 c0 -5 9 -9 20 -9 27 0 25 -18 -2 -30 -23 -9 -23 -9 -2 -9
21 -1 39 23 29 39 -7 12 -45 19 -45 9z"/>
<path d="M1671 78 c-1 -22 4 -28 19 -28 15 0 20 6 19 28 -2 23 -2 24 -6 5 -2
-13 -8 -23 -13 -23 -5 0 -11 10 -13 23 -4 19 -4 18 -6 -5z"/>
<path d="M1814 75 c1 -12 9 -21 21 -22 14 -1 15 0 3 3 -9 3 -19 13 -21 22 -3
12 -4 11 -3 -3z"/>
<path d="M1872 75 c0 -16 2 -22 5 -12 2 9 2 23 0 30 -3 6 -5 -1 -5 -18z"/>
<path d="M2194 75 c1 -12 9 -21 21 -22 14 -1 15 0 3 3 -9 3 -19 13 -21 22 -3
12 -4 11 -3 -3z"/>
<path d="M2338 75 c6 -32 12 -32 12 0 0 14 -4 25 -9 25 -4 0 -6 -11 -3 -25z"/>
<path d="M2646 81 c5 -21 3 -23 -15 -18 -12 3 -19 1 -15 -4 7 -12 31 -11 39 1
3 5 1 18 -5 27 -9 15 -10 14 -4 -6z"/>
<path d="M1919 76 c8 -10 9 -16 1 -19 -6 -3 -5 -4 2 -3 19 4 20 23 2 30 -14 5
-15 4 -5 -8z"/>
<path d="M2495 70 c-18 -20 -17 -20 11 -19 18 1 22 3 11 6 -14 4 -16 8 -6 19
18 22 4 17 -16 -6z"/>
</g>
</svg>
