<?xml version="1.0" standalone="no"?>
<!DOCTYPE svg PUBLIC "-//W3C//DTD SVG 20010904//EN"
 "http://www.w3.org/TR/2001/REC-SVG-20010904/DTD/svg10.dtd">
<svg version="1.0" xmlns="http://www.w3.org/2000/svg"
 width="225.000000pt" height="225.000000pt" viewBox="0 0 225.000000 225.000000"
 preserveAspectRatio="xMidYMid meet">

<g transform="translate(0.000000,225.000000) scale(0.100000,-0.100000)"
fill="#000000" stroke="none">
<path d="M1032 2239 c-152 -19 -275 -82 -393 -199 -70 -69 -94 -102 -127 -170
-58 -121 -75 -200 -70 -335 4 -89 10 -125 33 -185 22 -59 29 -97 32 -175 4
-91 2 -103 -17 -128 -21 -27 -23 -27 -139 -27 -101 0 -123 -3 -161 -22 -100
-52 -106 -182 -11 -245 31 -21 46 -23 158 -23 118 0 125 -1 148 -25 15 -15 25
-36 25 -54 l0 -29 -142 -4 c-168 -4 -221 -22 -287 -93 -63 -68 -75 -104 -75
-225 0 -90 3 -112 23 -152 44 -91 125 -141 228 -141 109 1 210 73 236 171 11
41 12 42 52 42 40 0 41 -1 53 -45 25 -96 126 -167 235 -168 161 -1 268 134
254 319 -9 126 -63 211 -165 261 -53 26 -68 28 -198 31 l-142 4 -5 45 c-6 54
-31 92 -78 115 -27 14 -59 18 -152 18 -112 0 -119 1 -142 25 -30 29 -32 64 -6
96 18 23 27 24 159 29 132 5 142 6 167 30 34 31 55 78 55 122 l0 33 68 -65
c118 -112 243 -171 400 -189 209 -23 399 42 554 189 l68 65 0 -33 c0 -44 21
-91 55 -122 25 -24 35 -25 167 -30 132 -5 141 -6 159 -29 26 -32 24 -67 -6
-96 -23 -24 -30 -25 -142 -25 -93 0 -125 -4 -152 -18 -47 -23 -72 -61 -78
-115 l-5 -45 -142 -4 c-120 -3 -149 -7 -192 -26 -103 -46 -164 -141 -172 -268
-12 -184 94 -317 253 -318 109 0 212 73 237 169 12 44 13 45 54 45 40 0 42 -2
48 -34 8 -44 56 -109 104 -141 20 -13 61 -29 90 -35 110 -21 211 28 267 130
28 51 30 62 30 160 0 94 -3 110 -27 155 -34 64 -80 108 -143 137 -42 19 -72
23 -192 26 l-143 4 0 30 c0 17 10 39 25 53 23 24 30 25 148 25 112 0 127 2
158 23 95 63 89 193 -11 245 -38 19 -60 22 -161 22 -115 0 -118 1 -138 26 -34
43 -29 162 11 278 40 118 50 263 23 381 -63 284 -304 502 -592 535 -48 5 -92
9 -98 9 -5 -1 -39 -5 -73 -10z m-52 -83 c0 -11 -19 -15 -25 -6 -3 5 1 10 9 10
9 0 16 -2 16 -4z m364 -16 c61 -23 176 -94 176 -109 0 -9 -82 -71 -94 -71 -3
0 -21 25 -41 55 -19 31 -54 76 -76 100 -47 51 -43 54 35 25z m-254 -125 l0
-135 -42 6 c-79 11 -148 34 -148 49 0 10 10 15 31 15 22 0 41 10 66 35 32 32
35 39 29 74 -5 35 -3 42 25 65 17 14 32 26 35 26 2 0 4 -61 4 -135z m156 63
c51 -54 104 -129 104 -148 0 -10 -80 -35 -147 -44 l-43 -6 0 135 c0 157 -1
156 86 63z m-404 20 c-14 -14 -16 -72 -2 -98 7 -13 6 -21 -5 -30 -11 -9 -23
-5 -60 20 -25 17 -45 35 -45 40 0 11 99 80 114 80 6 0 5 -5 -2 -12z m108 -33
c10 -12 10 -18 0 -30 -25 -30 -61 -7 -46 30 3 8 12 15 19 15 8 0 20 -7 27 -15z
m-159 -167 c5 -2 0 -30 -10 -64 -10 -34 -21 -83 -25 -110 -4 -27 -9 -66 -12
-86 l-6 -38 -114 0 c-130 0 -123 -6 -103 92 13 66 78 201 119 250 l31 37 55
-39 c31 -21 60 -40 65 -42z m884 -63 c35 -70 65 -169 65 -212 0 -23 -2 -23
-115 -23 -108 0 -115 1 -115 20 0 11 4 20 10 20 15 0 40 56 40 90 0 33 -46 90
-73 90 -15 0 -42 73 -28 78 5 2 33 20 63 42 l53 38 33 -36 c18 -20 49 -68 67
-107z m-769 11 c22 -7 72 -19 112 -26 l72 -12 0 -104 0 -104 -140 0 c-77 0
-140 3 -140 8 2 54 44 252 54 252 2 0 21 -6 42 -14z m489 -9 c4 -15 -2 -37
-15 -60 -30 -51 -21 -97 25 -134 19 -16 35 -31 35 -35 0 -5 -63 -8 -140 -8
l-140 0 0 104 0 104 72 12 c40 7 88 18 108 26 48 17 49 17 55 -9z m93 -113 c4
-27 -26 -40 -46 -20 -21 20 -8 48 20 44 14 -2 24 -11 26 -24z m-743 -251 c7
-58 37 -195 49 -223 5 -11 -11 -27 -58 -58 -35 -23 -66 -42 -69 -42 -3 0 -26
30 -51 68 -50 73 -91 177 -102 260 l-7 52 116 0 116 0 6 -57z m345 -55 l0
-112 -28 27 c-21 20 -38 27 -68 27 -48 0 -77 -19 -94 -60 -19 -45 -37 -37 -55
23 -12 42 -34 168 -35 200 0 4 63 7 140 7 l140 0 0 -112z m345 65 c-9 -69 -34
-186 -43 -201 -7 -9 -25 -8 -87 8 -43 11 -93 20 -112 20 l-33 0 0 110 0 110
141 0 140 0 -6 -47z m301 -5 c-11 -83 -52 -187 -102 -260 -25 -38 -48 -68 -51
-68 -3 0 -34 19 -69 42 -46 30 -63 47 -58 58 13 33 43 168 49 223 l6 57 116 0
116 0 -7 -52z m-721 -213 c0 -22 -31 -33 -47 -17 -17 17 -1 44 24 40 15 -2 23
-10 23 -23z m259 -41 c33 -8 65 -19 69 -24 18 -17 -68 -137 -139 -195 l-44
-36 0 135 0 136 26 0 c14 0 54 -7 88 -16z m-184 -119 c0 -69 -4 -125 -8 -125
-28 0 -195 200 -180 215 2 2 22 -4 44 -15 49 -24 87 -17 117 21 12 15 23 28
25 28 1 1 2 -55 2 -124z m-221 -2 c22 -34 56 -79 76 -102 l37 -41 -55 19 c-30
11 -66 25 -79 31 -40 21 -118 75 -118 82 0 8 93 78 97 74 1 -1 20 -30 42 -63z
m646 -4 c12 -19 -84 -80 -182 -116 l-65 -23 42 47 c23 26 58 74 77 105 l35 57
44 -29 c24 -17 46 -35 49 -41z m-625 -573 c92 -49 125 -108 125 -226 0 -101
-19 -148 -77 -190 -47 -34 -95 -44 -147 -30 -77 20 -140 101 -141 178 l0 32
-104 0 -103 0 -7 -49 c-21 -158 -201 -223 -308 -110 -20 21 -42 56 -47 76 -14
51 -14 137 1 187 16 54 91 130 144 144 24 6 150 10 334 9 267 -2 298 -4 330
-21z m1128 12 c59 -15 132 -85 150 -144 15 -51 15 -136 1 -187 -14 -51 -77
-113 -129 -127 -106 -28 -211 46 -226 161 l-7 49 -103 0 -104 0 0 -32 c-1 -77
-64 -158 -141 -178 -52 -14 -100 -4 -147 30 -48 35 -73 86 -79 164 -11 129 44
222 153 261 51 18 561 21 632 3z"/>
<path d="M400 475 l0 -35 55 0 55 0 0 35 0 35 -55 0 -55 0 0 -35z"/>
<path d="M580 475 l0 -35 55 0 55 0 0 35 0 35 -55 0 -55 0 0 -35z"/>
<path d="M220 365 c0 -33 -2 -35 -35 -35 -33 0 -35 -2 -35 -35 0 -33 2 -35 35
-35 33 0 35 2 35 35 0 33 2 35 35 35 33 0 35 -2 35 -35 0 -33 2 -35 35 -35 33
0 35 2 35 35 0 33 -2 35 -35 35 -33 0 -35 2 -35 35 0 33 -2 35 -35 35 -33 0
-35 -2 -35 -35z"/>
<path d="M810 386 c-27 -33 18 -72 48 -42 13 13 14 20 6 34 -15 23 -38 26 -54
8z"/>
<path d="M742 318 c-30 -30 1 -73 36 -51 23 14 25 29 7 47 -20 19 -27 20 -43
4z"/>
<path d="M886 317 c-26 -19 -13 -57 20 -57 28 0 42 25 27 48 -13 22 -26 24
-47 9z"/>
<path d="M220 215 c0 -33 2 -35 35 -35 33 0 35 2 35 35 0 33 -2 35 -35 35 -33
0 -35 -2 -35 -35z"/>
<path d="M807 244 c-13 -14 -7 -43 12 -53 24 -13 55 8 50 35 -4 19 -48 32 -62
18z"/>
<path d="M1560 475 l0 -35 55 0 55 0 0 35 0 35 -55 0 -55 0 0 -35z"/>
<path d="M1740 475 l0 -35 55 0 55 0 0 35 0 35 -55 0 -55 0 0 -35z"/>
<path d="M1380 365 c0 -33 -2 -35 -35 -35 -33 0 -35 -2 -35 -35 0 -33 2 -35
35 -35 33 0 35 2 35 35 0 33 2 35 35 35 33 0 35 -2 35 -35 0 -33 2 -35 35 -35
33 0 35 2 35 35 0 33 -2 35 -35 35 -33 0 -35 2 -35 35 0 33 -2 35 -35 35 -33
0 -35 -2 -35 -35z"/>
<path d="M1969 384 c-9 -11 -10 -20 -2 -32 14 -23 49 -27 57 -6 17 43 -26 73
-55 38z"/>
<path d="M1900 315 c-19 -23 -8 -50 22 -53 34 -4 50 34 22 55 -23 17 -29 16
-44 -2z"/>
<path d="M2045 314 c-9 -9 -14 -21 -12 -27 6 -18 33 -31 51 -24 21 8 21 53 0
61 -21 8 -20 8 -39 -10z"/>
<path d="M1380 215 c0 -33 2 -35 35 -35 33 0 35 2 35 35 0 33 -2 35 -35 35
-33 0 -35 -2 -35 -35z"/>
<path d="M1967 244 c-13 -14 -7 -43 12 -53 24 -13 55 8 50 35 -4 19 -48 32
-62 18z"/>
</g>
</svg>
