<svg width="25" height="25" viewBox="0 0 25 25" fill="none" xmlns="http://www.w3.org/2000/svg">
<path fill-rule="evenodd" clip-rule="evenodd" d="M3.50661 3.39371C2.60619 4.29721 1.89193 5.36982 1.40462 6.5503C0.917317 7.73077 0.666504 8.996 0.666504 10.2737C0.666504 11.5515 0.917317 12.8167 1.40462 13.9972C1.89193 15.1777 2.60619 16.2503 3.50661 17.1538C4.40703 18.0573 5.47599 18.774 6.65246 19.2629C7.82892 19.7519 9.08984 20.0036 10.3632 20.0036C11.6366 20.0036 12.8975 19.7519 14.074 19.2629C15.2505 18.774 16.3194 18.0573 17.2199 17.1538C18.986 15.3189 19.9632 12.8615 19.9411 10.3107C19.919 7.7599 18.8994 5.31986 17.1018 3.51611C15.3041 1.71236 12.8724 0.68922 10.3303 0.667055C7.78816 0.644889 5.33907 1.62547 3.51049 3.3976M15.8509 15.7801C15.1335 16.516 14.2779 17.1018 13.3334 17.5037C12.3889 17.9055 11.3743 18.1153 10.3484 18.121C9.32257 18.1266 8.30578 17.928 7.35692 17.5367C6.40807 17.1453 5.54601 16.569 4.82067 15.841C4.09532 15.1131 3.5211 14.248 3.13125 13.2958C2.7414 12.3437 2.54366 11.3234 2.54949 10.294C2.55532 9.26463 2.76461 8.24665 3.16522 7.299C3.56583 6.35134 4.14982 5.49285 4.88336 4.77322C6.34353 3.34076 8.30777 2.54388 10.3498 2.55553C12.3919 2.56718 14.3469 3.38641 15.7908 4.83543C17.2346 6.28446 18.0507 8.24636 18.062 10.2954C18.0732 12.3444 17.2787 14.3152 15.8509 15.7801Z" fill="black"/>
<path d="M15.8471 18.5682C15.4835 18.2031 15.2794 17.7081 15.2795 17.1919C15.2797 16.6758 15.4842 16.1809 15.8481 15.816C16.2119 15.4512 16.7053 15.2463 17.2197 15.2465C17.7341 15.2467 18.2273 15.4519 18.5909 15.817L24.0747 21.3214C24.2599 21.5009 24.4076 21.7156 24.5092 21.953C24.6109 22.1904 24.6643 22.4457 24.6666 22.704C24.6688 22.9624 24.6198 23.2186 24.5223 23.4577C24.4248 23.6968 24.2808 23.9141 24.0987 24.0968C23.9166 24.2795 23.7001 24.4239 23.4618 24.5218C23.2235 24.6196 22.9682 24.6688 22.7107 24.6666C22.4532 24.6643 22.1988 24.6107 21.9622 24.5087C21.7256 24.4067 21.5117 24.2585 21.3328 24.0727L15.8471 18.5682Z" fill="black"/>
</svg>
