<?xml version="1.0" encoding="utf-8"?>
<!-- Generator: Adobe Illustrator 27.0.0, SVG Export Plug-In . SVG Version: 6.00 Build 0)  -->
<svg version="1.1" id="Layer_1" xmlns="http://www.w3.org/2000/svg" xmlns:xlink="http://www.w3.org/1999/xlink" x="0px" y="0px"
	 viewBox="0 0 25 25" style="enable-background:new 0 0 25 25;" xml:space="preserve">
<style type="text/css">
	.st0{fill-rule:evenodd;clip-rule:evenodd;fill:#FFFFFF;}
	.st1{fill:#FFFFFF;}
</style>
<path class="st0" d="M5.58,5.49c-0.7,0.7-1.25,1.53-1.63,2.44c-0.38,0.91-0.57,1.89-0.57,2.88c0,0.99,0.19,1.97,0.57,2.88
	c0.38,0.91,0.93,1.74,1.63,2.44c0.7,0.7,1.52,1.25,2.43,1.63c0.91,0.38,1.89,0.57,2.87,0.57c0.99,0,1.96-0.19,2.87-0.57
	c0.91-0.38,1.74-0.93,2.43-1.63c1.37-1.42,2.12-3.32,2.11-5.3c-0.02-1.97-0.81-3.86-2.2-5.26c-1.39-1.4-3.27-2.19-5.24-2.2
	C8.89,3.36,7,4.12,5.58,5.49 M15.13,15.08c-0.56,0.57-1.22,1.02-1.95,1.33c-0.73,0.31-1.52,0.47-2.31,0.48
	c-0.79,0-1.58-0.15-2.31-0.45c-0.73-0.3-1.4-0.75-1.96-1.31c-0.56-0.56-1.01-1.23-1.31-1.97c-0.3-0.74-0.45-1.53-0.45-2.32
	c0-0.8,0.17-1.58,0.48-2.32c0.31-0.73,0.76-1.4,1.33-1.95c1.13-1.11,2.65-1.73,4.23-1.72c1.58,0.01,3.09,0.64,4.21,1.76
	c1.12,1.12,1.75,2.64,1.76,4.23C16.85,12.42,16.24,13.94,15.13,15.08z"/>
<path class="st1" d="M15.13,17.23c-0.28-0.28-0.44-0.67-0.44-1.07c0-0.4,0.16-0.78,0.44-1.06c0.28-0.28,0.66-0.44,1.06-0.44
	c0.4,0,0.78,0.16,1.06,0.44l4.24,4.26c0.14,0.14,0.26,0.31,0.34,0.49c0.08,0.18,0.12,0.38,0.12,0.58c0,0.2-0.04,0.4-0.11,0.58
	c-0.08,0.19-0.19,0.35-0.33,0.49s-0.31,0.25-0.49,0.33c-0.18,0.08-0.38,0.11-0.58,0.11c-0.2,0-0.4-0.04-0.58-0.12
	c-0.18-0.08-0.35-0.19-0.49-0.34L15.13,17.23z"/>
</svg>
