<?xml version="1.0" encoding="utf-8"?>
<!-- Generator: Adobe Illustrator 27.0.0, SVG Export Plug-In . SVG Version: 6.00 Build 0)  -->
<svg version="1.1" id="Layer_1" xmlns="http://www.w3.org/2000/svg" xmlns:xlink="http://www.w3.org/1999/xlink" x="0px" y="0px"
	 viewBox="0 0 40 40" style="enable-background:new 0 0 40 40;" xml:space="preserve">
<style type="text/css">
	.st0{fill:#FFFFFF;}
</style>
<rect y="-0.09" width="40" height="40"/>
<g>
	<path class="st0" d="M23.38,34.32c-0.45-0.01-0.73-0.25-0.92-0.63c-0.43-0.89-0.85-1.77-1.28-2.66c-1.27-2.64-2.55-5.27-3.82-7.91
		c-0.13-0.28-0.32-0.45-0.59-0.58c-3.47-1.67-6.93-3.34-10.39-5.02c-0.15-0.07-0.31-0.15-0.44-0.25c-0.45-0.34-0.47-1.04-0.05-1.4
		c0.15-0.13,0.34-0.23,0.52-0.3c8.84-3.32,17.68-6.64,26.53-9.95c0.64-0.24,1.09-0.12,1.37,0.36c0.18,0.3,0.14,0.61,0.02,0.92
		c-0.91,2.43-1.82,4.86-2.73,7.29c-2.41,6.42-4.82,12.84-7.22,19.27C24.18,33.92,23.94,34.3,23.38,34.32z M23.26,30.91
		c2.58-6.88,5.13-13.68,7.68-20.48c-0.13,0.02-0.19,0.08-0.25,0.13c-3.81,3.82-7.63,7.63-11.45,11.44
		c-0.16,0.16-0.17,0.27-0.08,0.47c1.3,2.69,2.6,5.39,3.9,8.08C23.12,30.65,23.17,30.74,23.26,30.91z M29.51,9.01
		c-0.01-0.02-0.02-0.04-0.03-0.06c-6.81,2.55-13.61,5.11-20.49,7.69c0.2,0.1,0.31,0.16,0.43,0.22c2.66,1.28,5.32,2.55,7.97,3.84
		c0.25,0.12,0.38,0.08,0.57-0.11c3.77-3.78,7.55-7.56,11.33-11.33C29.36,9.18,29.44,9.1,29.51,9.01z"/>
</g>
</svg>
