<?xml version="1.0" standalone="no"?>
<!DOCTYPE svg PUBLIC "-//W3C//DTD SVG 20010904//EN"
 "http://www.w3.org/TR/2001/REC-SVG-20010904/DTD/svg10.dtd">
<svg version="1.0" xmlns="http://www.w3.org/2000/svg"
 width="512.000000pt" height="512.000000pt" viewBox="0 0 512.000000 512.000000"
 preserveAspectRatio="xMidYMid meet">

<g transform="translate(0.000000,512.000000) scale(0.100000,-0.100000)"
fill="#000000" stroke="none">
<path d="M2511 4015 c-1163 -437 -2126 -802 -2140 -813 -40 -29 -63 -80 -58
-131 6 -55 31 -89 93 -123 27 -15 423 -208 881 -429 l831 -402 423 -874 c307
-635 430 -881 451 -898 70 -59 181 -37 223 44 36 71 1595 4248 1595 4275 0 73
-76 146 -150 145 -21 0 -890 -322 -2149 -794z m616 -673 l-929 -929 -674 325
c-371 179 -672 328 -668 331 6 7 3174 1198 3189 1200 5 1 -408 -417 -918 -927z
m546 -887 c-327 -875 -599 -1594 -603 -1598 -4 -4 -153 295 -332 665 l-325
673 925 927 c510 510 927 926 929 925 1 -2 -266 -718 -594 -1592z"/>
<path d="M13 543 c-10 -3 -13 -68 -13 -274 l0 -269 1385 0 1385 0 0 215 c0
197 -2 219 -20 255 -13 26 -34 47 -60 60 -39 20 -55 20 -1352 19 -722 0 -1319
-3 -1325 -6z m267 -173 c0 -16 -7 -20 -30 -20 -23 0 -30 4 -30 20 0 16 7 20
30 20 23 0 30 -4 30 -20z m1330 -32 c0 -53 0 -53 18 -30 14 18 26 23 52 20
l34 -3 -31 -35 -31 -34 29 -43 c16 -23 29 -44 29 -47 0 -3 -14 -6 -30 -6 -23
0 -35 7 -50 33 l-20 32 0 -32 c0 -30 -3 -33 -30 -33 l-30 0 0 115 0 115 30 0
c29 0 30 -1 30 -52z m840 22 c0 -16 5 -30 10 -30 6 0 10 -9 10 -20 0 -11 -4
-20 -10 -20 -6 0 -10 -28 -10 -65 l0 -65 -30 0 -30 0 0 65 c0 51 -3 65 -15 65
-8 0 -15 9 -15 20 0 11 7 20 15 20 10 0 15 10 15 30 0 27 3 30 30 30 27 0 30
-3 30 -30z m-1991 -46 c40 -33 40 -54 1 -54 -16 0 -30 4 -30 9 0 12 -27 21
-44 15 -19 -7 -28 -32 -21 -55 7 -20 49 -26 60 -9 8 13 65 13 65 -1 0 -21 -58
-69 -85 -69 -71 0 -120 69 -95 131 26 63 96 78 149 33z m206 2 c48 -48 40
-122 -16 -151 -41 -22 -74 -18 -108 11 -26 22 -31 33 -31 70 0 36 5 50 26 69
37 34 96 34 129 1z m192 16 c20 -12 33 -60 33 -118 0 -53 0 -54 -30 -54 -30 0
-30 1 -30 53 0 55 -13 79 -36 70 -10 -4 -14 -23 -14 -64 0 -59 0 -59 -30 -59
l-30 0 0 84 0 85 38 4 c68 7 87 7 99 -1z m227 -23 c37 -43 35 -91 -4 -131 -27
-27 -36 -30 -70 -25 -39 5 -40 4 -40 -24 0 -24 -4 -29 -25 -29 l-25 0 0 114 0
115 38 4 c92 9 99 8 126 -24z m212 21 c23 0 24 -2 24 -84 l0 -83 -65 -7 c-78
-8 -101 2 -121 51 -12 27 -13 42 -4 69 17 49 45 67 99 60 24 -3 54 -6 67 -6z
m205 -19 c16 -16 29 -34 29 -40 0 -17 -51 -13 -71 5 -14 12 -22 13 -38 4 -22
-11 -26 -26 -15 -54 7 -18 49 -22 59 -6 8 13 65 13 65 -1 0 -21 -58 -69 -85
-69 -40 0 -81 26 -95 59 -40 96 77 175 151 102z m341 12 c32 -29 23 -46 -22
-40 -23 3 -38 1 -34 -4 3 -5 14 -9 25 -9 23 0 59 -34 59 -55 0 -9 -11 -27 -25
-40 -30 -31 -77 -33 -105 -5 -32 32 -25 43 20 37 50 -6 51 2 2 28 -44 24 -52
55 -23 84 25 25 77 27 103 4z m288 -3 c16 -16 20 -33 20 -90 l0 -70 -30 0
c-30 0 -30 0 -30 59 0 41 -4 60 -14 64 -23 9 -36 -15 -36 -70 0 -52 0 -53 -30
-53 l-30 0 0 84 0 85 38 4 c80 8 92 7 112 -13z m182 9 c18 -10 48 -65 48 -89
0 -6 -27 -10 -65 -10 -64 0 -85 -12 -44 -25 12 -4 26 -2 32 4 12 12 67 15 67
4 0 -5 -6 -15 -13 -24 -54 -70 -167 -31 -167 58 0 68 81 115 142 82z m-2032
-84 l0 -85 -30 0 -30 0 0 85 0 85 30 0 30 0 0 -85z m1670 -55 c0 -27 -3 -30
-30 -30 -27 0 -30 3 -30 30 0 27 3 30 30 30 27 0 30 -3 30 -30z"/>
<path d="M576 271 c-23 -25 -6 -61 28 -61 36 0 47 37 20 64 -20 21 -27 20 -48
-3z"/>
<path d="M986 274 c-31 -30 -8 -69 36 -62 30 4 38 46 12 65 -23 17 -29 16 -48
-3z"/>
<path d="M1196 274 c-29 -29 -12 -64 31 -64 31 0 44 47 18 67 -24 17 -30 16
-49 -3z"/>
<path d="M2235 280 c-4 -6 7 -10 24 -10 17 0 31 5 31 10 0 6 -11 10 -24 10
-14 0 -28 -4 -31 -10z"/>
</g>
</svg>
