<?xml version="1.0" standalone="no"?>
<!DOCTYPE svg PUBLIC "-//W3C//DTD SVG 20010904//EN"
 "http://www.w3.org/TR/2001/REC-SVG-20010904/DTD/svg10.dtd">
<svg version="1.0" xmlns="http://www.w3.org/2000/svg"
 width="512.000000pt" height="512.000000pt" viewBox="0 0 512.000000 512.000000"
 preserveAspectRatio="xMidYMid meet">

<g transform="translate(0.000000,512.000000) scale(0.100000,-0.100000)"
fill="#000000" stroke="none">
<path d="M2165 3746 c-28 -7 -56 -15 -63 -20 -6 -4 -46 -14 -89 -22 -182 -34
-310 -138 -402 -325 -111 -226 -126 -431 -50 -689 l31 -105 -36 -54 c-61 -91
-47 -114 86 -143 53 -11 57 -14 52 -35 -11 -42 10 -53 104 -53 l85 0 -6 -73
c-14 -168 -23 -177 -324 -332 -299 -154 -400 -218 -453 -288 -80 -106 -112
-214 -71 -237 13 -7 396 -10 1170 -10 1062 0 1151 1 1166 17 23 22 15 65 -25
147 -37 74 -95 138 -175 191 -31 20 -165 93 -298 162 -133 69 -254 134 -270
145 -15 11 -36 37 -47 58 -19 37 -40 138 -40 193 l0 27 83 0 c97 0 112 7 104
47 -6 29 -4 30 51 41 31 7 72 19 90 27 43 19 42 50 -3 118 l-35 52 36 110 c33
99 36 121 36 215 0 400 -222 777 -493 839 -58 14 -152 12 -214 -3z"/>
<path d="M3510 3613 c-102 -17 -210 -73 -285 -149 -206 -206 -204 -528 4 -735
101 -101 217 -149 361 -149 392 0 639 404 463 759 -36 73 -141 178 -220 219
-94 50 -224 72 -323 55z m114 -209 c3 -9 6 -71 6 -140 l0 -123 138 -3 c137 -3
137 -3 140 -27 6 -43 -19 -51 -155 -51 l-123 0 0 -128 c0 -127 -6 -152 -36
-152 -7 0 -20 7 -28 16 -13 12 -16 40 -16 140 l0 124 -124 0 c-100 0 -128 3
-140 16 -9 8 -16 21 -16 28 0 30 25 36 152 36 l128 0 0 128 c0 86 4 132 12
140 17 17 55 15 62 -4z"/>
</g>
</svg>
