<?xml version="1.0" encoding="utf-8"?>
<!-- Generator: Adobe Illustrator 27.0.0, SVG Export Plug-In . SVG Version: 6.00 Build 0)  -->
<svg version="1.1" id="Layer_1" xmlns="http://www.w3.org/2000/svg" xmlns:xlink="http://www.w3.org/1999/xlink" x="0px" y="0px"
	 viewBox="0 0 40 40" style="enable-background:new 0 0 40 40;" xml:space="preserve">
<path d="M16.02,34.53l-0.58-4.65c-0.31-0.12-0.61-0.27-0.88-0.44c-0.28-0.17-0.55-0.35-0.81-0.54l-4.3,1.82l-3.98-6.9l3.72-2.83
	c-0.02-0.17-0.04-0.33-0.04-0.49v-0.98c0-0.16,0.01-0.32,0.04-0.49l-3.72-2.83l3.98-6.9l4.3,1.82c0.27-0.19,0.54-0.38,0.83-0.54
	c0.29-0.17,0.58-0.31,0.87-0.44l0.58-4.65h7.95l0.58,4.65c0.31,0.12,0.61,0.27,0.89,0.44c0.28,0.17,0.55,0.35,0.81,0.54l4.3-1.82
	l3.98,6.9l-3.72,2.83c0.02,0.17,0.04,0.33,0.04,0.49v0.98c0,0.16-0.02,0.32-0.07,0.49l3.72,2.83l-3.98,6.9l-4.26-1.82
	c-0.27,0.19-0.54,0.38-0.83,0.54c-0.29,0.17-0.58,0.31-0.87,0.44l-0.58,4.65H16.02z M20.07,25.08c1.4,0,2.59-0.5,3.58-1.49
	c0.99-0.99,1.48-2.19,1.48-3.6s-0.49-2.6-1.48-3.6c-0.99-0.99-2.18-1.49-3.58-1.49c-1.42,0-2.62,0.5-3.6,1.49
	c-0.98,0.99-1.46,2.19-1.46,3.6c0,1.4,0.49,2.6,1.46,3.6C17.45,24.59,18.65,25.08,20.07,25.08z"/>
</svg>
