<?xml version="1.0" standalone="no"?>
<!DOCTYPE svg PUBLIC "-//W3C//DTD SVG 20010904//EN"
 "http://www.w3.org/TR/2001/REC-SVG-20010904/DTD/svg10.dtd">
<svg version="1.0" xmlns="http://www.w3.org/2000/svg"
 width="450.000000pt" height="450.000000pt" viewBox="0 0 450.000000 450.000000"
 preserveAspectRatio="xMidYMid meet">

<g transform="translate(0.000000,450.000000) scale(0.100000,-0.100000)"
fill="#000000" stroke="none">
<path d="M2395 4120 c-51 -20 -50 -5 -50 -576 l0 -533 22 -23 c18 -18 37 -23
93 -26 38 -2 70 -6 70 -7 0 -2 -20 -55 -45 -119 -25 -64 -45 -123 -45 -131 0
-34 36 -8 172 120 l143 135 503 0 c530 0 549 1 566 45 10 28 7 1065 -4 1085
-5 10 -24 23 -41 29 -38 13 -1352 15 -1384 1z m1393 -26 l22 -15 0 -534 0
-534 -22 -15 c-20 -14 -87 -16 -531 -16 l-509 0 -144 -136 c-79 -75 -144 -134
-144 -130 0 3 23 63 50 132 28 69 50 128 50 130 0 2 -36 4 -79 4 -131 0 -121
-46 -121 567 l0 514 25 24 24 25 678 0 c598 0 681 -2 701 -16z"/>
<path d="M2939 3987 c-258 -90 -376 -373 -257 -617 84 -172 283 -274 469 -241
144 26 260 114 327 249 70 142 54 320 -42 449 -85 115 -194 173 -341 180 -76
3 -101 0 -156 -20z m316 -56 c186 -87 279 -313 206 -503 -6 -16 -13 -28 -16
-28 -26 0 -178 91 -213 127 l-43 44 22 31 c31 43 37 123 14 172 -27 56 -78 86
-146 86 -41 0 -65 -6 -90 -23 -38 -25 -79 -97 -79 -139 0 -15 -2 -28 -5 -28
-3 0 -46 20 -96 45 l-90 46 18 30 c10 17 40 51 66 75 125 113 298 138 452 65z
m-432 -267 c62 -30 121 -64 131 -74 19 -18 19 -19 -14 -46 -50 -43 -70 -95
-70 -191 l0 -83 210 0 210 0 0 80 0 80 70 -35 71 -36 -21 -28 c-37 -53 -120
-120 -178 -143 -81 -32 -235 -32 -305 0 -169 77 -269 237 -254 409 5 67 20
123 33 123 3 0 56 -25 117 -56z"/>
<path d="M1375 3997 c-64 -17 -129 -50 -182 -93 -23 -19 -48 -34 -57 -34 -36
0 -133 -46 -171 -81 -23 -21 -47 -55 -54 -76 -8 -23 -15 -110 -18 -223 -4
-162 -7 -188 -23 -205 -41 -44 -49 -98 -23 -152 20 -43 66 -73 114 -73 34 0
36 -2 52 -52 42 -132 158 -273 272 -329 l65 -32 0 -62 c0 -58 -2 -65 -31 -89
-29 -25 -36 -26 -157 -26 -150 0 -240 -17 -337 -64 -161 -76 -220 -170 -294
-463 -29 -116 -70 -319 -91 -458 -28 -180 -150 -1073 -149 -1095 2 -69 21 42
65 365 26 193 50 353 53 357 5 6 298 -48 308 -56 1 -1 6 -109 12 -241 6 -132
14 -284 17 -337 l7 -98 807 0 807 0 6 242 c4 133 7 378 7 545 0 166 3 303 6
303 3 0 61 -40 128 -89 203 -148 365 -250 425 -268 96 -28 187 2 239 77 25 37
30 125 11 195 -26 96 -130 274 -263 450 -173 229 -632 717 -687 730 -20 5 -31
18 -44 50 -15 42 -37 59 -74 60 -8 0 -22 24 -33 55 l-19 55 23 14 c43 28 114
107 136 152 62 128 45 272 -47 389 -23 29 -29 48 -34 116 -3 45 -14 101 -23
125 -21 55 -21 73 1 129 21 55 13 119 -19 156 -28 33 -98 41 -172 21 -44 -11
-54 -11 -70 1 -34 25 -128 70 -194 92 -81 27 -225 35 -295 17z m76 -257 c69
-44 121 -62 156 -54 14 4 23 2 23 -5 0 -6 -19 -11 -47 -11 -34 0 -63 9 -107
33 l-61 34 0 -51 c0 -48 -2 -51 -27 -54 -32 -4 -75 17 -123 59 -50 44 -44 57
8 16 52 -43 79 -57 108 -57 20 0 21 4 16 48 -2 26 -8 55 -12 65 -10 24 -3 22
66 -23z m418 -25 c63 -20 142 -16 170 9 11 10 22 13 25 8 3 -6 -7 -18 -22 -28
-20 -14 -45 -19 -97 -19 -60 1 -80 6 -140 35 -38 19 -71 41 -74 49 -3 10 10 6
40 -11 24 -14 68 -33 98 -43z m2 -96 c27 -11 72 -19 99 -19 49 0 50 0 73 -47
28 -56 51 -122 45 -129 -3 -2 -27 5 -53 17 -68 30 -179 30 -257 0 -104 -40
-185 -133 -219 -251 l-12 -45 -10 33 c-5 17 -14 32 -18 32 -13 0 -12 -6 12
-71 26 -72 21 -89 -26 -89 -19 0 -35 -5 -35 -11 0 -8 14 -10 43 -6 l44 6 17
-54 c33 -105 160 -210 277 -230 l39 -7 -22 -18 c-78 -61 -180 -90 -313 -90
-153 0 -260 37 -359 122 -61 52 -133 162 -166 251 l-24 67 -43 0 c-117 0 -156
162 -51 213 l33 17 28 -35 c47 -57 51 -52 72 106 15 117 39 176 97 243 l34 39
76 -37 c94 -45 166 -56 204 -31 23 15 26 22 21 55 l-5 38 42 -28 c91 -61 165
-76 204 -40 25 23 27 33 12 61 -9 16 -1 13 40 -12 28 -17 73 -40 101 -50z
m-810 36 c-43 -49 -61 -88 -68 -146 -3 -27 -10 -49 -16 -49 -16 0 0 94 23 141
24 46 63 89 81 89 6 0 -3 -16 -20 -35z m993 -244 c205 -101 255 -360 103 -527
-28 -31 -72 -65 -105 -81 -50 -24 -69 -28 -147 -28 -84 0 -95 2 -153 34 -70
38 -119 89 -154 160 -19 38 -23 62 -23 141 0 85 3 101 28 148 49 93 129 156
232 183 59 16 152 3 219 -30z m-50 -713 c17 -46 17 -48 -5 -77 -15 -21 -20
-37 -15 -55 5 -21 2 -26 -16 -31 -13 -2 -54 -11 -91 -20 -38 -8 -79 -12 -93
-9 -36 9 -64 51 -64 94 0 34 3 38 43 51 23 7 70 32 103 55 58 40 102 57 115
45 3 -4 13 -27 23 -53z m146 -48 c10 -5 22 -23 28 -39 l10 -29 -66 -7 c-36 -4
-76 -11 -89 -16 -27 -10 -37 3 -29 35 4 17 21 29 58 44 65 24 65 24 88 12z
m-577 -25 l127 0 0 -28 c0 -59 40 -105 94 -109 37 -3 33 -12 -22 -47 -127 -81
-273 -88 -431 -21 -55 24 -62 35 -31 45 39 12 60 53 60 117 l0 59 38 -8 c20
-4 94 -8 165 -8z m692 -99 c82 -63 425 -427 577 -613 176 -216 317 -455 339
-575 20 -113 -24 -186 -127 -209 -44 -10 -66 -10 -102 0 -149 39 -314 215
-493 526 -60 105 -189 365 -189 382 0 5 19 17 43 28 38 18 42 24 45 61 3 36
-1 45 -28 68 -27 23 -41 26 -103 27 -99 0 -141 16 -145 53 l-4 29 51 -5 c28
-3 51 -2 51 3 0 12 -57 21 -88 14 -32 -7 -58 15 -48 40 4 11 20 15 55 15 77 0
72 19 -6 22 -63 3 -68 5 -71 27 -5 31 12 41 71 41 28 0 47 4 47 11 0 8 -19 10
-64 6 -66 -6 -76 -1 -76 38 0 26 77 45 168 40 49 -2 69 -8 97 -29z m46 -337
c27 -14 40 -63 23 -87 -17 -25 -106 -56 -133 -47 -18 5 -40 51 -66 133 l-7 24
84 -8 c45 -3 90 -10 99 -15z m-1591 -627 c0 -298 -4 -462 -10 -452 -13 21 -14
933 0 925 6 -4 10 -167 10 -473z m1635 120 c12 -95 18 -175 14 -178 -10 -6
-15 25 -34 191 -9 77 -18 154 -21 170 -4 27 -4 28 8 10 7 -11 22 -98 33 -193z
m329 -388 l19 -26 -27 17 c-14 10 -26 21 -26 26 0 16 15 9 34 -17z"/>
<path d="M1208 3323 c-21 -8 -38 -19 -38 -24 0 -12 1 -12 43 6 47 19 124 19
161 0 29 -15 48 -13 30 4 -35 32 -137 39 -196 14z"/>
<path d="M1276 3204 c-21 -21 -20 -57 2 -77 24 -22 55 -21 75 1 34 37 11 92
-38 92 -13 0 -31 -7 -39 -16z"/>
<path d="M1182 3054 c-27 -18 -28 -36 -4 -57 38 -35 132 -13 132 31 0 18 -42
42 -75 42 -17 0 -41 -7 -53 -16z"/>
<path d="M1396 2911 c-33 -36 -18 -113 24 -126 29 -9 67 18 75 54 15 69 -55
120 -99 72z m80 -38 c8 -28 -2 -51 -30 -67 -14 -9 -21 -6 -37 13 -24 30 -24
56 1 81 25 25 56 13 66 -27z"/>
<path d="M1797 3401 c-74 -30 -132 -83 -167 -154 -79 -161 -12 -349 151 -422
55 -24 70 -27 143 -23 125 7 213 65 267 176 33 66 33 186 1 257 -29 64 -83
120 -147 153 -68 35 -179 41 -248 13z m241 -32 c101 -50 152 -129 160 -245 4
-62 1 -79 -23 -133 -104 -232 -425 -234 -536 -3 -46 95 -23 239 49 315 66 70
126 96 223 97 54 0 77 -6 127 -31z"/>
<path d="M1813 3337 c-35 -13 -65 -37 -46 -37 6 0 24 7 39 15 37 19 115 19
161 0 38 -16 52 -15 31 2 -40 32 -128 41 -185 20z"/>
<path d="M1828 3203 c-28 -32 -30 -58 -7 -86 38 -49 109 -24 109 38 0 56 -68
87 -102 48z"/>
<path d="M1890 3033 c-26 -10 -50 -35 -50 -54 0 -45 106 -67 150 -31 56 45
-25 113 -100 85z"/>
</g>
</svg>
